NotoSerifTamilSlanted-ExtraCondensedExtraBold.ufo
<glyph name="exclam" format="2">
  <advance width="350.8095238095238"/>
  <unicode hex="0021"/>
  <outline>
    <contour>
      <point x="144.40476190476193" y="231.21428571428572" type="line"/>
      <point x="205.33333333333334" y="231.21428571428572" type="line"/>
      <point x="373.45238095238096" y="714.0" type="line"/>
      <point x="203.2857142857143" y="714.0" type="line"/>
    </contour>
    <contour>
      <point x="145.5952380952381" y="-8.0" type="curve" smooth="yes"/>
      <point x="185.88095238095238" y="-8.0"/>
      <point x="230.16666666666666" y="16.095238095238095"/>
      <point x="230.16666666666666" y="85.47619047619047" type="curve" smooth="yes"/>
      <point x="230.16666666666666" y="133.11904761904762"/>
      <point x="199.97619047619048" y="155.76190476190476"/>
      <point x="157.6904761904762" y="155.76190476190476" type="curve" smooth="yes"/>
      <point x="106.76190476190477" y="155.76190476190476"/>
      <point x="73.57142857142857" y="117.57142857142857"/>
      <point x="73.57142857142857" y="62.64285714285714" type="curve" smooth="yes"/>
      <point x="73.57142857142857" y="16.357142857142858"/>
      <point x="102.76190476190474" y="-8.0"/>
    </contour>
  </outline>
</glyph>
<glyph name="quotedbl" format="2">
  <advance width="435.4761904761905"/>
  <unicode hex="0022"/>
  <outline>
    <contour>
      <point x="123.54761904761905" y="436.30952380952385" type="line"/>
      <point x="187.11904761904762" y="436.30952380952385" type="line"/>
      <point x="307.1666666666667" y="714.0" type="line"/>
      <point x="155.7380952380952" y="714.0" type="line"/>
    </contour>
    <contour>
      <point x="315.9523809523809" y="436.30952380952385" type="line"/>
      <point x="379.0714285714285" y="436.30952380952385" type="line"/>
      <point x="498.5714285714286" y="714.0" type="line"/>
      <point x="348.14285714285717" y="714.0" type="line"/>
    </contour>
  </outline>
</glyph>
<glyph name="numbersign" format="2">
  <advance width="454.1904761904762"/>
  <unicode hex="0023"/>
  <outline>
    <contour>
      <point x="46.642857142857146" y="0.0" type="line"/>
      <point x="109.92857142857144" y="0.0" type="line"/>
      <point x="165.92857142857147" y="199.9047619047619" type="line"/>
      <point x="256.90476190476187" y="199.9047619047619" type="line"/>
      <point x="201.9047619047619" y="0.0" type="line"/>
      <point x="265.2857142857143" y="0.0" type="line"/>
      <point x="319.73809523809524" y="199.9047619047619" type="line"/>
      <point x="415.7380952380952" y="199.9047619047619" type="line"/>
      <point x="423.7380952380952" y="269.19047619047615" type="line"/>
      <point x="340.83333333333337" y="269.19047619047615" type="line"/>
      <point x="389.19047619047615" y="449.26190476190476" type="line"/>
      <point x="472.7380952380953" y="449.26190476190476" type="line"/>
      <point x="482.8333333333333" y="520.0952380952381" type="line"/>
      <point x="410.83333333333337" y="520.0952380952381" type="line"/>
      <point x="464.2857142857143" y="714.0" type="line"/>
      <point x="401.45238095238096" y="714.0" type="line"/>
      <point x="348.0" y="520.0952380952381" type="line"/>
      <point x="256.4761904761905" y="520.0952380952381" type="line"/>
      <point x="308.4761904761904" y="714.0" type="line"/>
      <point x="245.64285714285714" y="714.0" type="line"/>
      <point x="194.19047619047618" y="520.0952380952381" type="line"/>
      <point x="100.19047619047619" y="520.0952380952381" type="line"/>
      <point x="90.09523809523809" y="449.26190476190476" type="line"/>
      <point x="172.54761904761907" y="449.26190476190476" type="line"/>
      <point x="122.64285714285714" y="269.19047619047615" type="line"/>
      <point x="41.642857142857146" y="269.19047619047615" type="line"/>
      <point x="33.642857142857146" y="199.9047619047619" type="line"/>
      <point x="103.0952380952381" y="199.9047619047619" type="line"/>
    </contour>
    <contour>
      <point x="184.47619047619048" y="269.19047619047615" type="line"/>
      <point x="234.38095238095238" y="449.26190476190476" type="line"/>
      <point x="326.90476190476187" y="449.26190476190476" type="line"/>
      <point x="277.0" y="269.19047619047615" type="line"/>
    </contour>
  </outline>
</glyph>
<glyph name="percent" format="2">
  <advance width="758.3095238095239"/>
  <unicode hex="0025"/>
  <outline>
    <contour>
      <point x="166.66666666666666" y="0.0" type="line"/>
      <point x="232.30952380952382" y="0.0" type="line"/>
      <point x="658.7619047619048" y="714.0" type="line"/>
      <point x="596.1145238095238" y="714.0" type="line"/>
    </contour>
    <contour>
      <point x="192.57142857142856" y="279.45238095238096" type="curve" smooth="yes"/>
      <point x="336.50000000000006" y="279.45238095238096"/>
      <point x="405.14285714285717" y="470.0"/>
      <point x="405.14285714285717" y="585.1904761904761" type="curve" smooth="yes"/>
      <point x="405.14285714285717" y="665.0"/>
      <point x="369.047619047619" y="724.547619047619"/>
      <point x="286.76190476190476" y="724.547619047619" type="curve" smooth="yes"/>
      <point x="143.83333333333334" y="724.547619047619"/>
      <point x="77.64285714285715" y="539.0"/>
      <point x="77.64285714285715" y="415.7142857142857" type="curve"/>
      <point x="77.64285714285715" y="327.0"/>
      <point x="122.28571428571429" y="279.45238095238096"/>
    </contour>
    <contour>
      <point x="208.76190476190476" y="331.2857142857142" type="curve" smooth="yes"/>
      <point x="187.95238095238093" y="331.2857142857142"/>
      <point x="179.5" y="359.64285714285717"/>
      <point x="179.5" y="403.9047619047619" type="curve" smooth="yes"/>
      <point x="179.5" y="484.07142857142856"/>
      <point x="220.95238095238093" y="670.1666666666666"/>
      <point x="282.3095238095238" y="670.1666666666666" type="curve" smooth="yes"/>
      <point x="304.1190476190476" y="670.1666666666666"/>
      <point x="311.5714285714286" y="644.8095238095239"/>
      <point x="311.5714285714286" y="602.0952380952381" type="curve" smooth="yes"/>
      <point x="311.5714285714286" y="519.3809523809524"/>
      <point x="270.1190476190476" y="331.2857142857142"/>
    </contour>
    <contour>
      <point x="537.0238095238095" y="-9.547619047619047" type="curve" smooth="yes"/>
      <point x="680.9523809523811" y="-9.547619047619047"/>
      <point x="749.1428571428572" y="180.45238095238093"/>
      <point x="749.1428571428572" y="295.19047619047615" type="curve" smooth="yes"/>
      <point x="749.1428571428572" y="374.45238095238096"/>
      <point x="713.5" y="434.0"/>
      <point x="630.7619047619048" y="434.0" type="curve" smooth="yes"/>
      <point x="488.2857142857142" y="434.0"/>
      <point x="422.0952380952381" y="249.45238095238096"/>
      <point x="422.0952380952381" y="125.71428571428572" type="curve"/>
      <point x="422.0952380952381" y="37.99999999999999"/>
      <point x="466.28571428571433" y="-9.547619047619047"/>
    </contour>
    <contour>
      <point x="551.2142857142858" y="41.73809523809525" type="curve" smooth="yes"/>
      <point x="531.4047619047618" y="41.73809523809525"/>
      <point x="522.9523809523808" y="69.64285714285714"/>
      <point x="522.9523809523808" y="114.35714285714285" type="curve" smooth="yes"/>
      <point x="522.9523809523808" y="193.52380952380952"/>
      <point x="564.4047619047618" y="380.61904761904765"/>
      <point x="625.7619047619048" y="380.61904761904765" type="curve" smooth="yes"/>
      <point x="647.5714285714287" y="380.61904761904765"/>
      <point x="655.0238095238095" y="354.26190476190476"/>
      <point x="655.0238095238095" y="311.5476190476191" type="curve" smooth="yes"/>
      <point x="655.0238095238095" y="229.38095238095238"/>
      <point x="614.0238095238096" y="41.73809523809525"/>
    </contour>
  </outline>
</glyph>
<glyph name="quotesingle" format="2">
  <advance width="254.26190476190473"/>
  <unicode hex="0027"/>
  <outline>
    <contour>
      <point x="137.38095238095235" y="436.30952380952385" type="line"/>
      <point x="200.95238095238096" y="436.30952380952385" type="line"/>
      <point x="307.1666666666667" y="714.0" type="line"/>
      <point x="157.2857142857143" y="714.0" type="line"/>
    </contour>
  </outline>
</glyph>
<glyph name="parenleft" format="2">
  <advance width="351.61904761904765"/>
  <unicode hex="0028"/>
  <outline>
    <contour>
      <point x="238.52380952380952" y="-139.83333333333334" type="curve"/>
      <point x="253.61904761904765" y="-74.80952380952381" type="line"/>
      <point x="208.7142857142857" y="-31.80952380952381"/>
      <point x="192.71428571428572" y="48.71428571428571"/>
      <point x="192.71428571428572" y="123.6190476190476" type="curve" smooth="yes"/>
      <point x="192.71428571428572" y="248.9761904761905"/>
      <point x="241.16666666666666" y="588.3571428571428"/>
      <point x="420.0714285714286" y="708.8095238095239" type="curve"/>
      <point x="431.0714285714286" y="772.3809523809524" type="line"/>
      <point x="171.02380952380952" y="702.0238095238096"/>
      <point x="41.0" y="414.3809523809524"/>
      <point x="41.0" y="168.64285714285714" type="curve" smooth="yes"/>
      <point x="41.0" y="31.904761904761905"/>
      <point x="99.47619047619047" y="-86.73809523809524"/>
    </contour>
  </outline>
</glyph>
<glyph name="parenright" format="2">
  <advance width="351.61904761904765"/>
  <unicode hex="0029"/>
  <outline>
    <contour>
      <point x="-39.35714285714286" y="-137.54761904761904" type="line"/>
      <point x="221.6904761904762" y="-67.73809523809524"/>
      <point x="350.7142857142857" y="220.9047619047619"/>
      <point x="350.7142857142857" y="465.6428571428571" type="curve" smooth="yes"/>
      <point x="350.7142857142857" y="602.3809523809524"/>
      <point x="292.7857142857143" y="720.5714285714284"/>
      <point x="153.73809523809524" y="774.1190476190476" type="curve"/>
      <point x="139.09523809523807" y="709.0952380952381" type="line"/>
      <point x="182.99999999999997" y="666.6428571428572"/>
      <point x="198.0" y="586.5714285714286"/>
      <point x="198.0" y="511.21428571428567" type="curve" smooth="yes"/>
      <point x="198.0" y="386.30952380952385"/>
      <point x="151.54761904761904" y="45.92857142857143"/>
      <point x="-28.35714285714286" y="-73.5238095238095" type="curve"/>
    </contour>
  </outline>
</glyph>
<glyph name="asterisk" format="2">
  <advance width="501.28571428571433"/>
  <unicode hex="002A"/>
  <outline>
    <contour>
      <point x="331.7857142857143" y="357.5238095238095" type="line"/>
      <point x="334.5952380952382" y="523.7142857142857" type="line"/>
      <point x="427.40476190476187" y="389.4285714285715" type="line"/>
      <point x="490.88095238095246" y="478.0" type="line"/>
      <point x="381.61904761904765" y="549.1666666666666" type="line"/>
      <point x="504.6904761904763" y="554.9761904761905" type="line"/>
      <point x="487.5952380952381" y="663.6428571428572" type="line"/>
      <point x="349.59523809523813" y="591.8095238095239" type="line"/>
      <point x="415.8809523809524" y="741.3571428571428" type="line"/>
      <point x="315.6666666666667" y="765.0" type="line"/>
      <point x="310.3095238095238" y="598.3571428571428" type="line"/>
      <point x="218.95238095238093" y="736.6428571428572" type="line"/>
      <point x="156.02380952380955" y="645.5238095238094" type="line"/>
      <point x="265.83333333333337" y="575.452380952381" type="line"/>
      <point x="140.66666666666666" y="566.6428571428572" type="line"/>
      <point x="159.3095238095238" y="459.9761904761904" type="line"/>
      <point x="296.3095238095238" y="533.8095238095239" type="line"/>
      <point x="232.57142857142858" y="380.7142857142858" type="line"/>
    </contour>
  </outline>
</glyph>
<glyph name="plus" format="2">
  <advance width="425.0"/>
  <unicode hex="002B"/>
  <outline>
    <contour>
      <point x="207.73809523809524" y="143.0" type="line"/>
      <point x="281.11904761904765" y="143.0" type="line"/>
      <point x="281.11904761904765" y="322.35714285714283" type="line"/>
      <point x="421.11904761904765" y="322.35714285714283" type="line"/>
      <point x="421.11904761904765" y="392.64285714285717" type="line"/>
      <point x="281.11904761904765" y="392.64285714285717" type="line"/>
      <point x="281.11904761904765" y="572.0" type="line"/>
      <point x="207.73809523809524" y="572.0" type="line"/>
      <point x="207.73809523809524" y="392.64285714285717" type="line"/>
      <point x="67.73809523809524" y="392.64285714285717" type="line"/>
      <point x="67.73809523809524" y="322.35714285714283" type="line"/>
      <point x="207.73809523809524" y="322.35714285714283" type="line"/>
    </contour>
  </outline>
</glyph>
<glyph name="comma" format="2">
  <advance width="273.0714285714286"/>
  <unicode hex="002C"/>
  <outline>
    <contour>
      <point x="-13.166666666666666" y="-151.6428571428571" type="line"/>
      <point x="120.50000000000001" y="-122.54761904761904"/>
      <point x="192.97619047619048" y="-36.26190476190476"/>
      <point x="192.97619047619048" y="67.1190476190476" type="curve" smooth="yes"/>
      <point x="192.97619047619048" y="123.21428571428572"/>
      <point x="161.42857142857144" y="154.7619047619048"/>
      <point x="121.23809523809523" y="154.7619047619048" type="curve" smooth="yes"/>
      <point x="85.04761904761904" y="154.7619047619048"/>
      <point x="51.30952380952381" y="126.57142857142856"/>
      <point x="51.30952380952381" y="80.92857142857142" type="curve" smooth="yes"/>
      <point x="51.30952380952381" y="27.833333333333336"/>
      <point x="89.1190476190476" y="26.833333333333336"/>
      <point x="89.1190476190476" y="-11.80952380952381" type="curve" smooth="yes"/>
      <point x="89.1190476190476" y="-52.80952380952381"/>
      <point x="59.57142857142858" y="-80.80952380952381"/>
      <point x="1.023809523809525" y="-97.80952380952381" type="curve"/>
    </contour>
  </outline>
</glyph>
<glyph name="hyphen" format="2">
  <advance width="252.0952380952381"/>
  <unicode hex="002D"/>
  <outline>
    <contour>
      <point x="15.357142857142858" y="219.52380952380955" type="line"/>
      <point x="226.452380952381" y="219.52380952380955" type="line"/>
      <point x="252.6428571428571" y="325.4761904761905" type="line"/>
      <point x="41.095238095238095" y="325.4761904761905" type="line"/>
    </contour>
  </outline>
</glyph>
<glyph name="period" format="2">
  <advance width="273.0714285714286"/>
  <unicode hex="002E"/>
  <outline>
    <contour>
      <point x="106.3095238095238" y="-8.0" type="curve" smooth="yes"/>
      <point x="146.04761904761904" y="-8.0"/>
      <point x="190.8809523809524" y="16.095238095238095"/>
      <point x="190.8809523809524" y="85.47619047619047" type="curve" smooth="yes"/>
      <point x="190.8809523809524" y="133.11904761904762"/>
      <point x="160.69047619047623" y="155.76190476190476"/>
      <point x="117.85714285714286" y="155.76190476190476" type="curve" smooth="yes"/>
      <point x="67.47619047619048" y="155.76190476190476"/>
      <point x="33.73809523809524" y="117.57142857142857"/>
      <point x="33.73809523809524" y="62.64285714285714" type="curve" smooth="yes"/>
      <point x="33.73809523809524" y="16.357142857142858"/>
      <point x="63.476190476190474" y="-8.0"/>
    </contour>
  </outline>
</glyph>
<glyph name="slash" format="2">
  <advance width="234.0952380952381"/>
  <unicode hex="002F"/>
  <outline>
    <contour>
      <point x="-93.83333333333334" y="-121.0" type="line"/>
      <point x="-23.357142857142858" y="-121.0" type="line"/>
      <point x="365.11904761904765" y="760.0" type="line"/>
      <point x="294.1904761904762" y="760.0" type="line"/>
    </contour>
  </outline>
</glyph>
<glyph name="zero" format="2">
  <advance width="496.4047619047619"/>
  <unicode hex="0030"/>
  <outline>
    <contour>
      <point x="221.21428571428572" y="-11.0" type="curve" smooth="yes"/>
      <point x="419.04761904761904" y="-11.0"/>
      <point x="511.8809523809524" y="318.3571428571429"/>
      <point x="511.8809523809524" y="512.452380952381" type="curve" smooth="yes"/>
      <point x="511.8809523809524" y="659.0"/>
      <point x="441.6904761904762" y="725.0"/>
      <point x="348.4047619047619" y="725.0" type="curve" smooth="yes"/>
      <point x="150.57142857142853" y="725.0"/>
      <point x="54.73809523809524" y="415.6428571428571"/>
      <point x="54.73809523809524" y="213.0952380952381" type="curve" smooth="yes"/>
      <point x="54.73809523809524" y="67.54761904761905"/>
      <point x="120.92857142857143" y="-11.0"/>
    </contour>
    <contour>
      <point x="227.66666666666666" y="58.38095238095239" type="curve" smooth="yes"/>
      <point x="200.5952380952381" y="58.38095238095239"/>
      <point x="183.33333333333334" y="95.0952380952381"/>
      <point x="183.33333333333334" y="167.97619047619045" type="curve" smooth="yes"/>
      <point x="183.33333333333334" y="333.5238095238096"/>
      <point x="260.80952380952374" y="656.6190476190476"/>
      <point x="343.5" y="656.6190476190476" type="curve" smooth="yes"/>
      <point x="373.1190476190476" y="656.6190476190476"/>
      <point x="389.3809523809524" y="619.9047619047619"/>
      <point x="389.3809523809524" y="549.0238095238095" type="curve" smooth="yes"/>
      <point x="389.3809523809524" y="387.0238095238095"/>
      <point x="316.45238095238096" y="58.38095238095239"/>
    </contour>
  </outline>
</glyph>
<glyph name="one" format="2">
  <advance width="496.4047619047619"/>
  <unicode hex="0031"/>
  <outline>
    <contour>
      <point x="46.285714285714285" y="0.0" type="line"/>
      <point x="401.07142857142856" y="0.0" type="line"/>
      <point x="413.16666666666663" y="53.83333333333333" type="line"/>
      <point x="375.26190476190476" y="53.83333333333333" type="line" smooth="yes"/>
      <point x="341.71428571428567" y="53.83333333333333"/>
      <point x="314.61904761904765" y="57.285714285714285"/>
      <point x="314.61904761904765" y="84.64285714285714" type="curve" smooth="yes"/>
      <point x="314.61904761904765" y="93.19047619047619"/>
      <point x="318.16666666666663" y="111.83333333333336"/>
      <point x="322.16666666666663" y="130.73809523809527" type="curve" smooth="yes"/>
      <point x="447.61904761904765" y="718.0" type="line"/>
      <point x="333.73809523809524" y="718.0" type="line"/>
      <point x="266.1904761904762" y="666.0" type="line" smooth="yes"/>
      <point x="202.19047619047618" y="617.0"/>
      <point x="160.0" y="601.0"/>
      <point x="122.0" y="589.0" type="curve"/>
      <point x="119.99999999999999" y="540.5238095238095"/>
      <point x="139.19047619047618" y="513.8809523809523"/>
      <point x="162.1904761904762" y="513.8809523809523" type="curve" smooth="yes"/>
      <point x="196.73809523809524" y="513.8809523809523"/>
      <point x="232.7380952380952" y="550.3333333333334"/>
      <point x="285.6428571428571" y="617.8809523809524" type="curve"/>
      <point x="288.6428571428571" y="617.8809523809524" type="line"/>
      <point x="273.0952380952381" y="575.6904761904761"/>
      <point x="264.0952380952381" y="531.7857142857143"/>
      <point x="254.1904761904762" y="482.26190476190476" type="curve" smooth="yes"/>
      <point x="178.28571428571428" y="117.64285714285714" type="line" smooth="yes"/>
      <point x="168.38095238095238" y="71.57142857142856"/>
      <point x="148.1190476190476" y="53.83333333333333"/>
      <point x="109.57142857142857" y="53.83333333333333" type="curve" smooth="yes"/>
      <point x="58.38095238095238" y="53.83333333333333" type="line"/>
    </contour>
  </outline>
</glyph>
<glyph name="two" format="2">
  <advance width="496.4047619047619"/>
  <unicode hex="0032"/>
  <outline>
    <contour>
      <point x="-9.095238095238095" y="0.0" type="line"/>
      <point x="394.6904761904762" y="0.0" type="line"/>
      <point x="447.97619047619054" y="212.69047619047618" type="line"/>
      <point x="391.5" y="212.69047619047618" type="line"/>
      <point x="384.5" y="194.5952380952381" type="line" smooth="yes"/>
      <point x="369.5" y="152.5"/>
      <point x="348.95238095238096" y="112.40476190476191"/>
      <point x="294.30952380952385" y="112.40476190476191" type="curve" smooth="yes"/>
      <point x="105.21428571428574" y="112.40476190476191" type="line"/>
      <point x="250.45238095238096" y="250.71428571428575" type="line" smooth="yes"/>
      <point x="452.9761904761905" y="414.8333333333333"/>
      <point x="506.42857142857144" y="486.64285714285717"/>
      <point x="506.42857142857144" y="590.6428571428571" type="curve" smooth="yes"/>
      <point x="506.42857142857144" y="673.0952380952381"/>
      <point x="441.59523809523813" y="724.0"/>
      <point x="328.2142857142857" y="724.0" type="curve" smooth="yes"/>
      <point x="195.83333333333331" y="724.0"/>
      <point x="124.19047619047622" y="655.547619047619"/>
      <point x="124.19047619047622" y="575.2619047619048" type="curve" smooth="yes"/>
      <point x="124.19047619047622" y="518.3333333333334"/>
      <point x="171.21428571428572" y="490.5952380952381"/>
      <point x="235.8809523809524" y="490.5952380952381" type="curve"/>
      <point x="240.69047619047618" y="587.5238095238094"/>
      <point x="271.04761904761904" y="661.6190476190476"/>
      <point x="314.57142857142856" y="661.6190476190476" type="curve" smooth="yes"/>
      <point x="342.73809523809524" y="661.6190476190476"/>
      <point x="358.00000000000006" y="626.7142857142857"/>
      <point x="358.00000000000006" y="578.9047619047618" type="curve" smooth="yes"/>
      <point x="358.00000000000006" y="492.3571428571429"/>
      <point x="333.00000000000006" y="424.0"/>
      <point x="208.45238095238096" y="300.1904761904762" type="curve" smooth="yes"/>
      <point x="11.999999999999998" y="104.66666666666666" type="line"/>
    </contour>
  </outline>
</glyph>
<glyph name="three" format="2">
  <advance width="496.4047619047619"/>
  <unicode hex="0033"/>
  <outline>
    <contour>
      <point x="187.76190476190476" y="-10.0" type="curve" smooth="yes"/>
      <point x="305.5952380952381" y="-10.0"/>
      <point x="451.42857142857144" y="50.0"/>
      <point x="451.42857142857144" y="233.0" type="curve" smooth="yes"/>
      <point x="451.42857142857144" y="313.54761904761904"/>
      <point x="406.4285714285715" y="361.904761904762"/>
      <point x="334.8809523809524" y="371.452380952381" type="curve"/>
      <point x="448.4285714285715" y="395.904761904762"/>
      <point x="507.42857142857144" y="493.0"/>
      <point x="507.42857142857144" y="586.452380952381" type="curve" smooth="yes"/>
      <point x="507.42857142857144" y="674.0"/>
      <point x="438.23809523809524" y="724.0"/>
      <point x="334.8571428571429" y="724.0" type="curve" smooth="yes"/>
      <point x="214.92857142857144" y="724.0"/>
      <point x="118.54761904761905" y="655.3571428571428"/>
      <point x="118.54761904761905" y="573.3571428571428" type="curve" smooth="yes"/>
      <point x="118.54761904761905" y="527.7142857142857"/>
      <point x="165.47619047619048" y="513.1666666666666"/>
      <point x="226.5952380952381" y="513.1666666666666" type="curve"/>
      <point x="240.04761904761907" y="592.1666666666666"/>
      <point x="264.0476190476191" y="662.1666666666666"/>
      <point x="314.0238095238095" y="662.1666666666666" type="curve" smooth="yes"/>
      <point x="349.28571428571433" y="662.1666666666666"/>
      <point x="362.09523809523813" y="630.8095238095239"/>
      <point x="362.09523809523813" y="586.547619047619" type="curve" smooth="yes"/>
      <point x="362.09523809523813" y="474.0952380952381"/>
      <point x="290.09523809523813" y="400.64285714285717"/>
      <point x="191.45238095238093" y="400.64285714285717" type="curve" smooth="yes"/>
      <point x="165.45238095238093" y="400.64285714285717" type="line"/>
      <point x="154.9047619047619" y="337.8095238095238" type="line"/>
      <point x="190.99999999999997" y="337.8095238095238" type="line" smooth="yes"/>
      <point x="264.5476190476191" y="337.8095238095238"/>
      <point x="304.09523809523813" y="298.99999999999994"/>
      <point x="304.09523809523813" y="227.0" type="curve" smooth="yes"/>
      <point x="304.09523809523813" y="118.38095238095238"/>
      <point x="249.28571428571425" y="62.47619047619048"/>
      <point x="203.4047619047619" y="62.47619047619048" type="curve" smooth="yes"/>
      <point x="145.23809523809527" y="62.47619047619048"/>
      <point x="118.14285714285715" y="118.28571428571429"/>
      <point x="121.6904761904762" y="198.30952380952382" type="curve"/>
      <point x="50.92857142857143" y="198.30952380952382"/>
      <point x="12.190476190476192" y="165.11904761904762"/>
      <point x="12.190476190476192" y="109.3809523809524" type="curve" smooth="yes"/>
      <point x="12.190476190476192" y="53.833333333333336"/>
      <point x="57.28571428571429" y="-10.0"/>
    </contour>
  </outline>
</glyph>
<glyph name="four" format="2">
  <advance width="496.4047619047619"/>
  <unicode hex="0034"/>
  <outline>
    <contour>
      <point x="119.83333333333336" y="0.0" type="line"/>
      <point x="416.5952380952381" y="0.0" type="line"/>
      <point x="429.14285714285717" y="53.83333333333333" type="line"/>
      <point x="416.7857142857143" y="53.83333333333333" type="line" smooth="yes"/>
      <point x="386.3333333333333" y="53.83333333333333"/>
      <point x="368.4285714285715" y="58.833333333333336"/>
      <point x="368.4285714285715" y="89.83333333333334" type="curve" smooth="yes"/>
      <point x="368.4285714285715" y="97.83333333333336"/>
      <point x="370.4285714285715" y="115.92857142857143"/>
      <point x="372.4285714285715" y="124.92857142857144" type="curve" smooth="yes"/>
      <point x="496.88095238095246" y="714.0" type="line"/>
      <point x="356.0" y="714.0" type="line"/>
      <point x="46.214285714285715" y="248.83333333333334" type="line"/>
      <point x="30.023809523809526" y="186.16666666666666" type="line"/>
      <point x="457.7619047619048" y="186.16666666666666" type="line"/>
      <point x="472.30952380952385" y="251.54761904761907" type="line"/>
      <point x="79.11904761904762" y="251.54761904761907" type="line"/>
      <point x="92.21428571428572" y="228.45238095238093" type="line"/>
      <point x="239.14285714285714" y="447.19047619047626" type="line" smooth="yes"/>
      <point x="267.8809523809524" y="490.11904761904765"/>
      <point x="311.61904761904765" y="561.047619047619"/>
      <point x="337.35714285714283" y="618.0714285714286" type="curve"/>
      <point x="319.35714285714283" y="556.0714285714286"/>
      <point x="302.35714285714283" y="478.9761904761905"/>
      <point x="291.35714285714283" y="426.61904761904765" type="curve" smooth="yes"/>
      <point x="228.45238095238096" y="125.83333333333334" type="line" smooth="yes"/>
      <point x="213.90476190476193" y="57.19047619047619"/>
      <point x="175.8095238095238" y="53.83333333333333"/>
      <point x="147.0" y="53.83333333333333" type="curve" smooth="yes"/>
      <point x="131.3809523809524" y="53.83333333333333" type="line"/>
    </contour>
  </outline>
</glyph>
<glyph name="five" format="2">
  <advance width="496.4047619047619"/>
  <unicode hex="0035"/>
  <outline>
    <contour>
      <point x="188.7619047619048" y="-10.0" type="curve" smooth="yes"/>
      <point x="355.7857142857143" y="-10.0"/>
      <point x="453.42857142857144" y="106.54761904761904"/>
      <point x="453.42857142857144" y="257.0952380952381" type="curve" smooth="yes"/>
      <point x="453.42857142857144" y="371.64285714285717"/>
      <point x="381.2380952380953" y="434.1904761904762"/>
      <point x="267.40476190476187" y="434.1904761904762" type="curve" smooth="yes"/>
      <point x="226.76190476190473" y="434.1904761904762"/>
      <point x="200.2142857142857" y="425.73809523809524"/>
      <point x="179.11904761904762" y="418.19047619047615" type="curve"/>
      <point x="226.28571428571428" y="603.1428571428572" type="line"/>
      <point x="397.6666666666667" y="603.1428571428572" type="line" smooth="yes"/>
      <point x="428.21428571428567" y="603.1428571428572"/>
      <point x="437.7619047619048" y="594.1428571428572"/>
      <point x="437.7619047619048" y="579.5952380952382" type="curve" smooth="yes"/>
      <point x="437.7619047619048" y="572.5952380952382"/>
      <point x="434.76190476190476" y="548.0476190476192"/>
      <point x="432.7619047619048" y="530.0476190476192" type="curve"/>
      <point x="491.78571428571433" y="530.0476190476192" type="line"/>
      <point x="524.4285714285713" y="714.0" type="line"/>
      <point x="195.54761904761907" y="714.0" type="line"/>
      <point x="101.64285714285715" y="368.6428571428571" type="line"/>
      <point x="138.92857142857144" y="346.3571428571429" type="line"/>
      <point x="158.38095238095238" y="357.3571428571429"/>
      <point x="183.38095238095238" y="368.3571428571429"/>
      <point x="220.2857142857143" y="368.3571428571429" type="curve" smooth="yes"/>
      <point x="272.73809523809524" y="368.3571428571429"/>
      <point x="309.6428571428571" y="328.45238095238096"/>
      <point x="309.6428571428571" y="249.09523809523807" type="curve" smooth="yes"/>
      <point x="309.6428571428571" y="127.38095238095241"/>
      <point x="266.4761904761905" y="60.47619047619049"/>
      <point x="199.3095238095238" y="60.47619047619049" type="curve" smooth="yes"/>
      <point x="126.30952380952382" y="60.47619047619049"/>
      <point x="113.85714285714286" y="134.57142857142856"/>
      <point x="114.85714285714286" y="192.76190476190476" type="curve"/>
      <point x="55.47619047619048" y="192.76190476190476"/>
      <point x="27.83333333333334" y="154.47619047619048"/>
      <point x="27.83333333333334" y="106.28571428571429" type="curve" smooth="yes"/>
      <point x="27.83333333333334" y="43.54761904761905"/>
      <point x="74.47619047619048" y="-10.0"/>
    </contour>
  </outline>
</glyph>
<glyph name="six" format="2">
  <advance width="496.4047619047619"/>
  <unicode hex="0036"/>
  <outline>
    <contour>
      <point x="234.21428571428572" y="-10.0" type="curve" smooth="yes"/>
      <point x="395.69047619047626" y="-10.0"/>
      <point x="475.42857142857144" y="129.0"/>
      <point x="475.42857142857144" y="271.5476190476191" type="curve" smooth="yes"/>
      <point x="475.42857142857144" y="362.0952380952381"/>
      <point x="434.4285714285714" y="437.6428571428571"/>
      <point x="345.3333333333333" y="437.6428571428571" type="curve" smooth="yes"/>
      <point x="287.23809523809524" y="437.6428571428571"/>
      <point x="249.8809523809524" y="411.73809523809524"/>
      <point x="224.8809523809524" y="388.1904761904762" type="curve"/>
      <point x="261.6904761904762" y="573.452380952381"/>
      <point x="313.4047619047619" y="664.1666666666666"/>
      <point x="376.0238095238095" y="664.1666666666666" type="curve" smooth="yes"/>
      <point x="415.28571428571433" y="664.1666666666666"/>
      <point x="417.2857142857143" y="599.9761904761905"/>
      <point x="414.2857142857143" y="534.7857142857143" type="curve"/>
      <point x="491.9523809523809" y="534.7857142857143"/>
      <point x="538.8809523809525" y="568.4285714285714"/>
      <point x="538.8809523809525" y="622.7142857142858" type="curve" smooth="yes"/>
      <point x="538.8809523809525" y="677.8095238095239"/>
      <point x="491.69047619047615" y="724.0"/>
      <point x="401.40476190476187" y="724.0" type="curve" smooth="yes"/>
      <point x="195.83333333333334" y="724.0"/>
      <point x="63.095238095238095" y="463.6428571428571"/>
      <point x="63.095238095238095" y="215.19047619047618" type="curve" smooth="yes"/>
      <point x="63.095238095238095" y="62.28571428571429"/>
      <point x="138.83333333333334" y="-10.0"/>
    </contour>
    <contour>
      <point x="251.95238095238093" y="54.83333333333333" type="curve" smooth="yes"/>
      <point x="217.6904761904762" y="54.83333333333333"/>
      <point x="196.33333333333334" y="95.0952380952381"/>
      <point x="196.33333333333334" y="181.35714285714283" type="curve" smooth="yes"/>
      <point x="196.33333333333334" y="233.54761904761904"/>
      <point x="201.8809523809524" y="273.09523809523813"/>
      <point x="211.33333333333331" y="325.0" type="curve"/>
      <point x="230.14285714285717" y="349.9047619047619"/>
      <point x="261.4047619047619" y="376.8095238095238"/>
      <point x="292.1190476190476" y="376.8095238095238" type="curve" smooth="yes"/>
      <point x="323.9285714285714" y="376.8095238095238"/>
      <point x="340.7380952380952" y="338.9047619047619"/>
      <point x="340.7380952380952" y="271.5476190476191" type="curve" smooth="yes"/>
      <point x="340.7380952380952" y="152.2857142857143"/>
      <point x="303.0238095238095" y="54.83333333333333"/>
    </contour>
  </outline>
</glyph>
<glyph name="seven" format="2">
  <advance width="496.4047619047619"/>
  <unicode hex="0037"/>
  <outline>
    <contour>
      <point x="104.28571428571428" y="0.0" type="line"/>
      <point x="180.66666666666669" y="0.0" type="line"/>
      <point x="546.6904761904763" y="652.5952380952382" type="line"/>
      <point x="559.4285714285714" y="714.0" type="line"/>
      <point x="163.47619047619048" y="714.0" type="line"/>
      <point x="114.83333333333334" y="502.14285714285717" type="line"/>
      <point x="173.85714285714286" y="502.14285714285717" type="line"/>
      <point x="187.40476190476193" y="552.1428571428572" type="line" smooth="yes"/>
      <point x="196.40476190476193" y="585.1428571428572"/>
      <point x="216.4047619047619" y="603.5952380952382"/>
      <point x="245.4047619047619" y="603.5952380952382" type="curve" smooth="yes"/>
      <point x="452.8571428571429" y="603.5952380952382" type="line"/>
    </contour>
  </outline>
</glyph>
<glyph name="eight" format="2">
  <advance width="496.4047619047619"/>
  <unicode hex="0038"/>
  <outline>
    <contour>
      <point x="234.11904761904762" y="-10.0" type="curve" smooth="yes"/>
      <point x="369.42857142857144" y="-10.0"/>
      <point x="464.42857142857144" y="60.0"/>
      <point x="464.42857142857144" y="210.0" type="curve" smooth="yes"/>
      <point x="464.42857142857144" y="287.0"/>
      <point x="425.88095238095235" y="340.5476190476191"/>
      <point x="372.9761904761905" y="380.0" type="curve"/>
      <point x="458.33333333333337" y="428.5476190476191"/>
      <point x="517.8809523809524" y="480.0"/>
      <point x="517.8809523809524" y="583.452380952381" type="curve" smooth="yes"/>
      <point x="517.8809523809524" y="664.0"/>
      <point x="456.14285714285717" y="724.0"/>
      <point x="352.4047619047619" y="724.0" type="curve" smooth="yes"/>
      <point x="194.02380952380955" y="724.0"/>
      <point x="132.92857142857142" y="631.0"/>
      <point x="132.92857142857142" y="528.6428571428571" type="curve" smooth="yes"/>
      <point x="132.92857142857142" y="461.4523809523809"/>
      <point x="162.47619047619048" y="402.9047619047619"/>
      <point x="203.38095238095238" y="361.9047619047619" type="curve"/>
      <point x="109.47619047619048" y="317.9047619047619"/>
      <point x="35.38095238095238" y="271.0952380952381"/>
      <point x="35.38095238095238" y="155.0952380952381" type="curve" smooth="yes"/>
      <point x="35.38095238095238" y="59.54761904761905"/>
      <point x="114.76190476190477" y="-10.0"/>
    </contour>
    <contour>
      <point x="235.95238095238096" y="48.285714285714285" type="curve" smooth="yes"/>
      <point x="190.33333333333334" y="48.285714285714285"/>
      <point x="163.52380952380952" y="87.64285714285714"/>
      <point x="163.52380952380952" y="149.45238095238096" type="curve" smooth="yes"/>
      <point x="163.52380952380952" y="234.16666666666669"/>
      <point x="198.6904761904762" y="290.61904761904765"/>
      <point x="257.3095238095238" y="323.5238095238095" type="curve"/>
      <point x="306.3809523809524" y="283.16666666666663"/>
      <point x="333.19047619047615" y="242.16666666666666"/>
      <point x="333.19047619047615" y="181.35714285714286" type="curve" smooth="yes"/>
      <point x="333.19047619047615" y="93.64285714285714"/>
      <point x="288.0238095238095" y="48.285714285714285"/>
    </contour>
    <contour>
      <point x="320.59523809523813" y="414.2857142857142" type="curve"/>
      <point x="284.9761904761905" y="446.64285714285717"/>
      <point x="266.6190476190476" y="488.1904761904762"/>
      <point x="266.6190476190476" y="536.547619047619" type="curve" smooth="yes"/>
      <point x="266.6190476190476" y="614.3571428571428"/>
      <point x="301.42857142857144" y="665.2619047619048"/>
      <point x="344.85714285714283" y="665.2619047619048" type="curve" smooth="yes"/>
      <point x="379.4761904761905" y="665.2619047619048"/>
      <point x="396.83333333333337" y="628.3571428571428"/>
      <point x="396.83333333333337" y="579.0" type="curve" smooth="yes"/>
      <point x="396.83333333333337" y="514.1904761904761"/>
      <point x="376.4761904761904" y="457.1904761904762"/>
    </contour>
  </outline>
</glyph>
<glyph name="nine" format="2">
  <advance width="496.4047619047619"/>
  <unicode hex="0039"/>
  <outline>
    <contour>
      <point x="161.38095238095238" y="-10.0" type="curve" smooth="yes"/>
      <point x="401.9569047619048" y="-10.0"/>
      <point x="503.33333333333337" y="355.9761904761905"/>
      <point x="503.33333333333337" y="540.8095238095237" type="curve" smooth="yes"/>
      <point x="503.33333333333337" y="657.9047619047619"/>
      <point x="442.6904761904762" y="724.0"/>
      <point x="344.4047619047619" y="724.0" type="curve" smooth="yes"/>
      <point x="212.11452380952383" y="724.0"/>
      <point x="95.83333333333333" y="602.547619047619"/>
      <point x="95.83333333333333" y="431.0" type="curve" smooth="yes"/>
      <point x="95.83333333333333" y="340.0"/>
      <point x="140.83333333333331" y="275.0"/>
      <point x="223.83333333333334" y="275.0" type="curve" smooth="yes"/>
      <point x="279.83333333333337" y="275.0"/>
      <point x="319.83333333333337" y="308.0"/>
      <point x="348.8333333333333" y="343.0" type="curve"/>
      <point x="301.2857142857143" y="159.9047619047619"/>
      <point x="252.38095238095238" y="53.92857142857143"/>
      <point x="173.92857142857144" y="53.92857142857143" type="curve" smooth="yes"/>
      <point x="126.92857142857143" y="53.92857142857143"/>
      <point x="110.92857142857143" y="113.47619047619047"/>
      <point x="111.92857142857144" y="165.57142857142858" type="curve"/>
      <point x="64.64285714285714" y="165.57142857142858"/>
      <point x="35.54761904761905" y="136.11904761904765"/>
      <point x="35.54761904761905" y="90.3809523809524" type="curve" smooth="yes"/>
      <point x="35.54761904761905" y="35.547619047619044"/>
      <point x="76.83333333333333" y="-10.0"/>
    </contour>
    <contour>
      <point x="280.59523809523813" y="348.0238095238095" type="curve" smooth="yes"/>
      <point x="250.8809523809524" y="348.0238095238095"/>
      <point x="233.61904761904762" y="377.92857142857144"/>
      <point x="233.61904761904762" y="435.19047619047615" type="curve" smooth="yes"/>
      <point x="233.61904761904762" y="538.452380952381"/>
      <point x="276.33333333333337" y="657.0714285714286"/>
      <point x="330.76190476190476" y="657.0714285714286" type="curve" smooth="yes"/>
      <point x="358.4761904761905" y="657.0714285714286"/>
      <point x="377.7380952380952" y="625.1666666666666"/>
      <point x="377.7380952380952" y="550.547619047619" type="curve" smooth="yes"/>
      <point x="377.7380952380952" y="512.547619047619"/>
      <point x="370.7380952380952" y="460.1904761904762"/>
      <point x="361.2857142857143" y="425.2857142857142" type="curve"/>
      <point x="343.92857142857144" y="387.92857142857133"/>
      <point x="316.7619047619047" y="348.4761904761905"/>
    </contour>
  </outline>
</glyph>
<glyph name="colon" format="2">
  <advance width="327.09523809523813"/>
  <unicode hex="003A"/>
  <outline>
    <contour>
      <point x="201.85714285714283" y="377.23809523809524" type="curve" smooth="yes"/>
      <point x="242.1428571428571" y="377.23809523809524"/>
      <point x="286.42857142857144" y="401.88095238095235"/>
      <point x="286.42857142857144" y="471.26190476190476" type="curve" smooth="yes"/>
      <point x="286.42857142857144" y="518.9047619047619"/>
      <point x="256.23809523809524" y="541.0"/>
      <point x="213.95238095238093" y="541.0" type="curve" smooth="yes"/>
      <point x="163.02380952380952" y="541.0"/>
      <point x="129.83333333333334" y="502.8095238095238"/>
      <point x="129.83333333333334" y="447.8809523809524" type="curve" smooth="yes"/>
      <point x="129.83333333333334" y="402.1428571428571"/>
      <point x="159.02380952380955" y="377.23809523809524"/>
    </contour>
    <contour>
      <point x="115.95238095238096" y="-8.0" type="curve" smooth="yes"/>
      <point x="156.23809523809527" y="-8.0"/>
      <point x="200.52380952380952" y="16.095238095238095"/>
      <point x="200.52380952380952" y="85.47619047619047" type="curve" smooth="yes"/>
      <point x="200.52380952380952" y="133.11904761904762"/>
      <point x="170.33333333333331" y="155.76190476190476"/>
      <point x="128.04761904761904" y="155.76190476190476" type="curve" smooth="yes"/>
      <point x="77.11904761904762" y="155.76190476190476"/>
      <point x="43.92857142857143" y="117.57142857142857"/>
      <point x="43.92857142857143" y="62.64285714285714" type="curve" smooth="yes"/>
      <point x="43.92857142857143" y="16.357142857142858"/>
      <point x="73.66666666666667" y="-8.0"/>
    </contour>
  </outline>
</glyph>
<glyph name="semicolon" format="2">
  <advance width="326.09523809523813"/>
  <unicode hex="003B"/>
  <outline>
    <contour>
      <point x="-16.095238095238095" y="-151.6428571428571" type="line"/>
      <point x="117.57142857142856" y="-122.54761904761904"/>
      <point x="189.04761904761907" y="-36.26190476190476"/>
      <point x="189.04761904761907" y="67.1190476190476" type="curve" smooth="yes"/>
      <point x="189.04761904761907" y="123.21428571428572"/>
      <point x="158.5" y="154.7619047619048"/>
      <point x="118.30952380952382" y="154.7619047619048" type="curve" smooth="yes"/>
      <point x="81.11904761904763" y="154.7619047619048"/>
      <point x="47.92857142857143" y="127.57142857142856"/>
      <point x="47.92857142857143" y="80.92857142857142" type="curve" smooth="yes"/>
      <point x="47.92857142857143" y="27.833333333333336"/>
      <point x="85.19047619047619" y="26.833333333333336"/>
      <point x="85.19047619047619" y="-11.80952380952381" type="curve" smooth="yes"/>
      <point x="85.19047619047619" y="-52.80952380952381"/>
      <point x="55.64285714285714" y="-80.80952380952381"/>
      <point x="-2.3571428571428568" y="-97.80952380952381" type="curve"/>
    </contour>
    <contour>
      <point x="201.85714285714283" y="377.23809523809524" type="curve" smooth="yes"/>
      <point x="241.59523809523807" y="377.23809523809524"/>
      <point x="286.42857142857144" y="401.88095238095235"/>
      <point x="286.42857142857144" y="471.26190476190476" type="curve" smooth="yes"/>
      <point x="286.42857142857144" y="518.9047619047619"/>
      <point x="255.6904761904762" y="541.0"/>
      <point x="213.4047619047619" y="541.0" type="curve" smooth="yes"/>
      <point x="163.02380952380952" y="541.0"/>
      <point x="129.2857142857143" y="502.8095238095238"/>
      <point x="129.2857142857143" y="447.8809523809524" type="curve" smooth="yes"/>
      <point x="129.2857142857143" y="402.1428571428571"/>
      <point x="159.02380952380955" y="377.23809523809524"/>
    </contour>
  </outline>
</glyph>
<glyph name="less" format="2">
  <advance width="425.0"/>
  <unicode hex="003C"/>
  <outline>
    <contour>
      <point x="421.11904761904765" y="104.35714285714286" type="line"/>
      <point x="421.11904761904765" y="184.19047619047618" type="line"/>
      <point x="160.66666666666666" y="357.0" type="line"/>
      <point x="421.11904761904765" y="531.8095238095239" type="line"/>
      <point x="421.11904761904765" y="611.6428571428571" type="line"/>
      <point x="67.73809523809524" y="378.0952380952381" type="line"/>
      <point x="67.73809523809524" y="336.9047619047619" type="line"/>
    </contour>
  </outline>
</glyph>
<glyph name="equal" format="2">
  <advance width="425.0"/>
  <unicode hex="003D"/>
  <outline>
    <contour>
      <point x="65.1904761904762" y="410.71428571428567" type="line"/>
      <point x="423.66666666666674" y="410.71428571428567" type="line"/>
      <point x="423.66666666666674" y="481.0" type="line"/>
      <point x="65.1904761904762" y="481.0" type="line"/>
    </contour>
    <contour>
      <point x="65.1904761904762" y="233.0" type="line"/>
      <point x="423.66666666666674" y="233.0" type="line"/>
      <point x="423.66666666666674" y="303.28571428571433" type="line"/>
      <point x="65.1904761904762" y="303.28571428571433" type="line"/>
    </contour>
  </outline>
</glyph>
<glyph name="question" format="2">
  <advance width="451.6904761904762"/>
  <unicode hex="003F"/>
  <outline>
    <contour>
      <point x="171.73809523809527" y="231.66666666666666" type="line"/>
      <point x="232.11904761904762" y="231.66666666666666" type="line"/>
      <point x="266.76190476190476" y="317.0" type="line"/>
      <point x="387.8571428571429" y="369.90476190476187"/>
      <point x="479.4047619047618" y="445.90476190476187"/>
      <point x="479.4047619047618" y="569.2619047619048" type="curve" smooth="yes"/>
      <point x="479.4047619047618" y="674.547619047619"/>
      <point x="411.1145238095238" y="724.0"/>
      <point x="297.0952380952381" y="724.0" type="curve" smooth="yes"/>
      <point x="173.16666666666666" y="724.0"/>
      <point x="90.23809523809523" y="664.6428571428572"/>
      <point x="90.23809523809523" y="591.547619047619" type="curve" smooth="yes"/>
      <point x="90.23809523809523" y="541.1666666666666"/>
      <point x="130.7142857142857" y="516.5238095238094"/>
      <point x="212.66666666666666" y="516.5238095238094" type="curve"/>
      <point x="221.57142857142858" y="592.5238095238094"/>
      <point x="241.47619047619048" y="662.1666666666666"/>
      <point x="282.9047619047619" y="662.1666666666666" type="curve" smooth="yes"/>
      <point x="307.5238095238095" y="662.1666666666666"/>
      <point x="325.7857142857142" y="629.2619047619047"/>
      <point x="325.7857142857142" y="571.9047619047619" type="curve" smooth="yes"/>
      <point x="325.7857142857142" y="453.7142857142857"/>
      <point x="260.42857142857144" y="396.54761904761904"/>
      <point x="160.52380952380952" y="352.0952380952381" type="curve"/>
    </contour>
    <contour>
      <point x="171.92857142857142" y="-8.0" type="curve" smooth="yes"/>
      <point x="212.21428571428575" y="-8.0"/>
      <point x="256.49999999999994" y="16.095238095238095"/>
      <point x="256.49999999999994" y="85.47619047619047" type="curve" smooth="yes"/>
      <point x="256.49999999999994" y="133.11904761904762"/>
      <point x="226.3095238095238" y="155.76190476190476"/>
      <point x="184.02380952380952" y="155.76190476190476" type="curve" smooth="yes"/>
      <point x="133.0952380952381" y="155.76190476190476"/>
      <point x="99.90476190476191" y="117.57142857142857"/>
      <point x="99.90476190476191" y="62.64285714285714" type="curve" smooth="yes"/>
      <point x="99.90476190476191" y="16.357142857142858"/>
      <point x="129.0952380952381" y="-8.0"/>
    </contour>
  </outline>
</glyph>
<glyph name="bracketleft" format="2">
  <advance width="362.61904761904765"/>
  <unicode hex="005B"/>
  <outline>
    <contour>
      <point x="19.476190476190474" y="-128.0" type="line"/>
      <point x="271.5476190476191" y="-128.0" type="line"/>
      <point x="283.09523809523813" y="-74.16666666666664" type="line"/>
      <point x="248.0952380952381" y="-74.16666666666664" type="line" smooth="yes"/>
      <point x="220.19047619047615" y="-74.16666666666664"/>
      <point x="195.64285714285717" y="-68.16666666666664"/>
      <point x="195.64285714285717" y="-29.976190476190474" type="curve" smooth="yes"/>
      <point x="195.64285714285717" y="-20.428571428571427"/>
      <point x="196.6428571428572" y="-12.07142857142857"/>
      <point x="198.6428571428572" y="-2.5238095238095224" type="curve"/>
      <point x="330.9047619047619" y="634.1666666666666" type="line"/>
      <point x="343.9047619047619" y="697.1666666666666"/>
      <point x="378.0" y="706.1666666666666"/>
      <point x="412.45238095238096" y="706.1666666666666" type="curve" smooth="yes"/>
      <point x="448.00000000000006" y="706.1666666666666" type="line"/>
      <point x="460.5476190476191" y="760.0" type="line"/>
      <point x="208.4761904761905" y="760.0" type="line"/>
    </contour>
  </outline>
</glyph>
<glyph name="backslash" format="2">
  <advance width="234.0952380952381"/>
  <unicode hex="005C"/>
  <outline>
    <contour>
      <point x="134.80952380952382" y="-121.0" type="line"/>
      <point x="196.64285714285714" y="-121.0" type="line"/>
      <point x="175.47619047619048" y="760.0" type="line"/>
      <point x="112.64285714285714" y="760.0" type="line"/>
    </contour>
  </outline>
</glyph>
<glyph name="bracketright" format="2">
  <advance width="362.61904761904765"/>
  <unicode hex="005D"/>
  <outline>
    <contour>
      <point x="-52.1904761904762" y="-128.0" type="line"/>
      <point x="198.8809523809524" y="-128.0" type="line"/>
      <point x="387.42857142857144" y="760.0" type="line"/>
      <point x="135.8095238095238" y="760.0" type="line"/>
      <point x="124.26190476190476" y="706.1666666666666" type="line"/>
      <point x="159.2619047619048" y="706.1666666666666" type="line" smooth="yes"/>
      <point x="187.16666666666669" y="706.1666666666666"/>
      <point x="212.16666666666666" y="700.1666666666666"/>
      <point x="212.16666666666666" y="661.9761904761906" type="curve" smooth="yes"/>
      <point x="212.16666666666666" y="652.4285714285714"/>
      <point x="210.71428571428572" y="644.0714285714286"/>
      <point x="208.71428571428572" y="634.5238095238094" type="curve" smooth="yes"/>
      <point x="77.45238095238093" y="-2.1666666666666643" type="line"/>
      <point x="64.45238095238095" y="-65.16666666666666"/>
      <point x="31.45238095238095" y="-74.16666666666664"/>
      <point x="-4.095238095238096" y="-74.16666666666664" type="curve" smooth="yes"/>
      <point x="-39.0952380952381" y="-74.16666666666664" type="line"/>
    </contour>
  </outline>
</glyph>
<glyph name="asciicircum" format="2">
  <advance width="425.0"/>
  <unicode hex="005E"/>
  <outline>
    <contour>
      <point x="50.0952380952381" y="262.3571428571429" type="line"/>
      <point x="117.92857142857142" y="262.3571428571429" type="line"/>
      <point x="242.92857142857144" y="604.5238095238096" type="line"/>
      <point x="369.3809523809524" y="262.3571428571429" type="line"/>
      <point x="437.7619047619048" y="262.3571428571429" type="line"/>
      <point x="263.0238095238095" y="714.0" type="line"/>
      <point x="224.28571428571433" y="714.0" type="line"/>
    </contour>
  </outline>
</glyph>
<glyph name="braceleft" format="2">
  <advance width="366.0238095238095"/>
  <unicode hex="007B"/>
  <outline>
    <contour>
      <point x="192.64285714285714" y="-124.9047619047619" type="curve" smooth="yes"/>
      <point x="282.5952380952381" y="-124.9047619047619" type="line"/>
      <point x="295.6904761904762" y="-70.6190476190476" type="line"/>
      <point x="260.4047619047619" y="-70.6190476190476" type="line" smooth="yes"/>
      <point x="231.04761904761907" y="-70.6190476190476"/>
      <point x="220.14285714285714" y="-53.714285714285715"/>
      <point x="220.14285714285714" y="-23.904761904761905" type="curve" smooth="yes"/>
      <point x="220.14285714285714" y="-6.809523809523809"/>
      <point x="222.14285714285717" y="9.19047619047619"/>
      <point x="226.14285714285714" y="26.190476190476193" type="curve" smooth="yes"/>
      <point x="257.59523809523813" y="167.16666666666666" type="line" smooth="yes"/>
      <point x="261.59523809523813" y="184.26190476190476"/>
      <point x="267.59523809523813" y="210.45238095238096"/>
      <point x="267.59523809523813" y="229.54761904761904" type="curve" smooth="yes"/>
      <point x="267.59523809523813" y="270.90476190476187"/>
      <point x="246.14285714285717" y="299.35714285714283"/>
      <point x="199.59523809523807" y="315.54761904761904" type="curve"/>
      <point x="201.14285714285714" y="321.0952380952381" type="line"/>
      <point x="269.23809523809524" y="338.73809523809524"/>
      <point x="300.14285714285717" y="378.6428571428571"/>
      <point x="313.59523809523813" y="440.0" type="curve" smooth="yes"/>
      <point x="345.50000000000006" y="587.5238095238095" type="line" smooth="yes"/>
      <point x="364.04761904761904" y="674.7142857142858"/>
      <point x="377.76190476190476" y="706.7142857142857"/>
      <point x="422.2142857142858" y="706.7142857142857" type="curve" smooth="yes"/>
      <point x="458.49999999999994" y="706.7142857142857" type="line"/>
      <point x="471.047619047619" y="760.0" type="line"/>
      <point x="401.11904761904765" y="760.0" type="line" smooth="yes"/>
      <point x="284.99999999999994" y="760.0"/>
      <point x="219.97619047619045" y="725.3809523809524"/>
      <point x="196.4285714285714" y="614.452380952381" type="curve" smooth="yes"/>
      <point x="159.97619047619048" y="441.45238095238096" type="line" smooth="yes"/>
      <point x="144.52380952380952" y="367.1904761904762"/>
      <point x="102.07142857142857" y="351.2857142857142"/>
      <point x="48.52380952380952" y="349.8333333333333" type="curve"/>
      <point x="33.42857142857142" y="287.26190476190476" type="line"/>
      <point x="77.42857142857142" y="285.26190476190476"/>
      <point x="110.97619047619047" y="273.9047619047619"/>
      <point x="110.97619047619047" y="224.45238095238093" type="curve" smooth="yes"/>
      <point x="110.97619047619047" y="216.00000000000003"/>
      <point x="110.42857142857142" y="205.09523809523807"/>
      <point x="107.97619047619048" y="193.64285714285714" type="curve" smooth="yes"/>
      <point x="81.61904761904762" y="69.40476190476191" type="line" smooth="yes"/>
      <point x="70.97619047619048" y="18.19047619047619"/>
      <point x="68.52380952380952" y="-1.3571428571428577"/>
      <point x="68.52380952380952" y="-20.261904761904763" type="curve" smooth="yes"/>
      <point x="68.52380952380952" y="-85.26190476190476"/>
      <point x="110.61904761904762" y="-124.9047619047619"/>
    </contour>
  </outline>
</glyph>
<glyph name="bar" format="2">
  <advance width="461.4761904761905"/>
  <unicode hex="007C"/>
  <outline>
    <contour>
      <point x="224.02380952380952" y="-240.0" type="line"/>
      <point x="288.4047619047619" y="-240.0" type="line"/>
      <point x="288.4047619047619" y="760.0" type="line"/>
      <point x="224.02380952380952" y="760.0" type="line"/>
    </contour>
  </outline>
</glyph>
<glyph name="braceright" format="2">
  <advance width="366.0238095238095"/>
  <unicode hex="007D"/>
  <outline>
    <contour>
      <point x="-51.0952380952381" y="-124.35714285714286" type="line"/>
      <point x="17.833333333333336" y="-124.35714285714286" type="line" smooth="yes"/>
      <point x="136.3095238095238" y="-124.35714285714286"/>
      <point x="200.42857142857144" y="-87.19047619047619"/>
      <point x="223.52380952380952" y="22.190476190476193" type="curve" smooth="yes"/>
      <point x="259.5238095238095" y="193.64285714285714" type="line" smooth="yes"/>
      <point x="274.9761904761905" y="268.9047619047619"/>
      <point x="317.8809523809524" y="284.26190476190476"/>
      <point x="371.42857142857144" y="286.7142857142858" type="curve"/>
      <point x="386.5238095238095" y="348.2857142857142" type="line"/>
      <point x="342.5238095238095" y="350.2857142857142"/>
      <point x="308.5238095238095" y="361.1904761904762"/>
      <point x="308.5238095238095" y="411.6428571428571" type="curve" smooth="yes"/>
      <point x="308.5238095238095" y="421.00000000000006"/>
      <point x="309.9761904761905" y="431.45238095238096"/>
      <point x="311.9761904761905" y="441.9047619047619" type="curve" smooth="yes"/>
      <point x="346.42857142857144" y="609.8095238095237" type="line" smooth="yes"/>
      <point x="351.4285714285714" y="632.9047619047619"/>
      <point x="351.42857142857144" y="644.3571428571429"/>
      <point x="351.42857142857144" y="656.8095238095239" type="curve" smooth="yes"/>
      <point x="351.42857142857144" y="719.642857142857"/>
      <point x="311.14285714285717" y="761.547619047619"/>
      <point x="228.21428571428572" y="761.547619047619" type="curve" smooth="yes"/>
      <point x="136.3571428571429" y="761.547619047619" type="line"/>
      <point x="123.26190476190476" y="707.7142857142857" type="line"/>
      <point x="159.54761904761907" y="707.7142857142857" type="line" smooth="yes"/>
      <point x="188.9047619047619" y="707.7142857142857"/>
      <point x="198.80952380952382" y="691.2619047619048"/>
      <point x="198.80952380952382" y="662.3571428571428" type="curve" smooth="yes"/>
      <point x="198.80952380952382" y="643.0"/>
      <point x="196.80952380952382" y="627.452380952381"/>
      <point x="192.80952380952382" y="610.452380952381" type="curve" smooth="yes"/>
      <point x="161.90476190476193" y="462.38095238095235" type="line" smooth="yes"/>
      <point x="158.45238095238096" y="448.1190476190476"/>
      <point x="152.35714285714286" y="422.8333333333333"/>
      <point x="152.35714285714286" y="406.54761904761904" type="curve" smooth="yes"/>
      <point x="152.35714285714286" y="365.64285714285717"/>
      <point x="172.8095238095238" y="337.19047619047615"/>
      <point x="220.35714285714286" y="321.54761904761904" type="curve"/>
      <point x="217.8095238095238" y="312.9047619047619" type="line"/>
      <point x="149.71428571428572" y="294.26190476190476"/>
      <point x="118.35714285714288" y="255.90476190476193"/>
      <point x="105.35714285714286" y="196.0952380952381" type="curve" smooth="yes"/>
      <point x="68.35714285714286" y="26.190476190476193" type="line" smooth="yes"/>
      <point x="54.452380952380956" y="-37.976190476190474"/>
      <point x="43.19047619047619" y="-70.07142857142856"/>
      <point x="-2.8095238095238084" y="-70.07142857142856" type="curve" smooth="yes"/>
      <point x="-38.54761904761905" y="-70.07142857142856" type="line"/>
    </contour>
  </outline>
</glyph>
<glyph name="asciitilde" format="2">
  <advance width="425.0"/>
  <unicode hex="007E"/>
  <outline>
    <contour>
      <point x="45.99999999999999" y="261.8095238095238" type="curve"/>
      <point x="114.92857142857143" y="261.8095238095238" type="line"/>
      <point x="116.28571428571428" y="345.35714285714283"/>
      <point x="131.83333333333334" y="378.7142857142857"/>
      <point x="161.8333333333333" y="378.7142857142857" type="curve" smooth="yes"/>
      <point x="180.73809523809527" y="378.7142857142857"/>
      <point x="192.19047619047618" y="365.9047619047619"/>
      <point x="226.28571428571428" y="326.8095238095238" type="curve" smooth="yes"/>
      <point x="274.8333333333333" y="271.3571428571429"/>
      <point x="300.3809523809524" y="261.8095238095238"/>
      <point x="330.9285714285714" y="261.8095238095238" type="curve" smooth="yes"/>
      <point x="417.3095238095238" y="261.8095238095238"/>
      <point x="443.40476190476187" y="349.7142857142857"/>
      <point x="444.3095238095238" y="451.19047619047615" type="curve"/>
      <point x="374.92857142857144" y="451.19047619047615" type="line"/>
      <point x="374.0238095238096" y="366.0952380952381"/>
      <point x="358.92857142857144" y="334.73809523809524"/>
      <point x="329.4761904761905" y="334.73809523809524" type="curve" smooth="yes"/>
      <point x="309.4761904761904" y="334.73809523809524"/>
      <point x="299.1190476190476" y="350.6428571428572"/>
      <point x="268.5714285714286" y="383.6428571428571" type="curve" smooth="yes"/>
      <point x="221.83333333333334" y="433.38095238095235"/>
      <point x="195.28571428571428" y="451.19047619047615"/>
      <point x="158.28571428571428" y="451.19047619047615" type="curve" smooth="yes"/>
      <point x="73.54761904761904" y="451.19047619047615"/>
      <point x="46.9047619047619" y="363.7380952380952"/>
    </contour>
  </outline>
</glyph>
<glyph name="twosuperior" format="2">
  <advance width="324.6428571428571"/>
  <unicode hex="00B2"/>
  <outline>
    <contour>
      <point x="63.095238095238095" y="386.0" type="line"/>
      <point x="332.66666666666663" y="386.0" type="line"/>
      <point x="360.21428571428567" y="527.1190476190476" type="line"/>
      <point x="326.57142857142856" y="527.1190476190476" type="line"/>
      <point x="319.57142857142856" y="506.1190476190476" type="line" smooth="yes"/>
      <point x="312.57142857142856" y="484.11904761904765"/>
      <point x="300.0238095238095" y="465.11904761904765"/>
      <point x="275.0238095238095" y="465.11904761904765" type="curve" smooth="yes"/>
      <point x="150.28571428571428" y="465.11904761904765" type="line"/>
      <point x="257.1190476190476" y="554.1190476190476" type="line" smooth="yes"/>
      <point x="357.6666666666667" y="637.9285714285714"/>
      <point x="390.2142857142857" y="681.1904761904761"/>
      <point x="390.2142857142857" y="737.6428571428572" type="curve" smooth="yes"/>
      <point x="390.2142857142857" y="789.547619047619"/>
      <point x="349.1190476190476" y="824.0"/>
      <point x="281.0238095238095" y="824.0" type="curve" smooth="yes"/>
      <point x="200.38095238095238" y="824.0"/>
      <point x="149.28571428571428" y="781.1904761904761"/>
      <point x="149.28571428571428" y="728.0" type="curve" smooth="yes"/>
      <point x="149.28571428571428" y="697.9047619047619"/>
      <point x="174.47619047619048" y="678.3571428571428"/>
      <point x="214.21428571428572" y="678.3571428571428" type="curve"/>
      <point x="220.21428571428572" y="731.357142857143"/>
      <point x="239.57142857142858" y="778.3571428571428"/>
      <point x="265.8333333333333" y="778.3571428571428" type="curve" smooth="yes"/>
      <point x="287.6428571428571" y="778.3571428571428"/>
      <point x="295.54761904761904" y="756.452380952381"/>
      <point x="295.54761904761904" y="731.6428571428571" type="curve" smooth="yes"/>
      <point x="295.54761904761904" y="678.1904761904761"/>
      <point x="272.6428571428571" y="631.2857142857142"/>
      <point x="201.28571428571428" y="567.6666666666666" type="curve" smooth="yes"/>
      <point x="82.83333333333334" y="462.59523809523813" type="line"/>
    </contour>
  </outline>
</glyph>
<glyph name="threesuperior" format="2">
  <advance width="324.6428571428571"/>
  <unicode hex="00B3"/>
  <outline>
    <contour>
      <point x="195.28571428571428" y="380.0" type="curve" smooth="yes"/>
      <point x="290.4761904761905" y="380.0"/>
      <point x="365.11452380952375" y="430.0"/>
      <point x="365.1190476190476" y="521.0952380952381" type="curve" smooth="yes"/>
      <point x="365.1190476190476" y="572.6428571428572"/>
      <point x="334.57142857142856" y="603.0"/>
      <point x="286.57142857142856" y="610.0" type="curve"/>
      <point x="287.57142857142856" y="614.547619047619" type="line"/>
      <point x="349.57142857142856" y="631.0"/>
      <point x="394.0238095238095" y="665.0"/>
      <point x="394.0238095238095" y="737.0" type="curve" smooth="yes"/>
      <point x="394.0238095238095" y="784.452380952381"/>
      <point x="359.4761904761905" y="824.0"/>
      <point x="282.92857142857144" y="824.0" type="curve" smooth="yes"/>
      <point x="200.28571428571425" y="824.0"/>
      <point x="149.7380952380952" y="783.452380952381"/>
      <point x="149.7380952380952" y="736.0" type="curve" smooth="yes"/>
      <point x="149.7380952380952" y="705.452380952381"/>
      <point x="176.92857142857144" y="691.3571428571428"/>
      <point x="220.76190476190476" y="691.3571428571428" type="curve"/>
      <point x="225.66666666666666" y="735.8095238095237"/>
      <point x="237.02380952380958" y="775.8095238095237"/>
      <point x="272.2857142857143" y="775.8095238095237" type="curve" smooth="yes"/>
      <point x="290.6428571428571" y="775.8095238095237"/>
      <point x="301.0" y="758.3571428571428"/>
      <point x="301.0" y="735.0952380952382" type="curve" smooth="yes"/>
      <point x="301.0" y="670.0"/>
      <point x="260.19047619047615" y="630.0"/>
      <point x="212.73809523809524" y="630.0" type="curve" smooth="yes"/>
      <point x="185.1904761904762" y="630.0" type="line"/>
      <point x="176.1904761904762" y="582.8095238095239" type="line"/>
      <point x="203.1904761904762" y="582.8095238095239" type="line" smooth="yes"/>
      <point x="253.6428571428571" y="582.8095238095239"/>
      <point x="275.6428571428571" y="553.8095238095239"/>
      <point x="275.6428571428571" y="516.547619047619" type="curve" smooth="yes"/>
      <point x="275.6428571428571" y="456.64285714285717"/>
      <point x="242.7380952380952" y="432.19047619047615"/>
      <point x="204.38095238095238" y="432.19047619047615" type="curve" smooth="yes"/>
      <point x="155.38095238095235" y="432.19047619047615"/>
      <point x="138.92857142857144" y="480.73809523809524"/>
      <point x="140.92857142857144" y="518.1904761904761" type="curve"/>
      <point x="100.0952380952381" y="518.1904761904761"/>
      <point x="69.9047619047619" y="496.6428571428571"/>
      <point x="69.9047619047619" y="459.095238095238" type="curve" smooth="yes"/>
      <point x="69.9047619047619" y="410.4523809523809"/>
      <point x="111.0" y="380.0"/>
    </contour>
  </outline>
</glyph>
<glyph name="multiply" format="2">
  <advance width="425.0"/>
  <unicode hex="00D7"/>
  <outline>
    <contour>
      <point x="122.47619047619047" y="160.73809523809524" type="line"/>
      <point x="243.83333333333334" y="305.80952380952385" type="line"/>
      <point x="363.64285714285717" y="163.28571428571428" type="line"/>
      <point x="415.38095238095235" y="207.57142857142856" type="line"/>
      <point x="288.57142857142856" y="359.54761904761904" type="line"/>
      <point x="415.38095238095235" y="510.5238095238096" type="line"/>
      <point x="362.6428571428572" y="554.2619047619048" type="line"/>
      <point x="243.83333333333334" y="412.7380952380952" type="line"/>
      <point x="123.02380952380952" y="556.8095238095239" type="line"/>
      <point x="70.28571428571428" y="513.0714285714286" type="line"/>
      <point x="199.0952380952381" y="359.54761904761904" type="line"/>
      <point x="70.28571428571428" y="205.02380952380955" type="line"/>
    </contour>
  </outline>
</glyph>
<glyph name="divide" format="2">
  <advance width="425.0"/>
  <unicode hex="00F7"/>
  <outline>
    <contour>
      <point x="67.73809523809524" y="322.35714285714283" type="line"/>
      <point x="421.11904761904765" y="322.35714285714283" type="line"/>
      <point x="421.11904761904765" y="392.64285714285717" type="line"/>
      <point x="67.73809523809524" y="392.64285714285717" type="line"/>
    </contour>
    <contour>
      <point x="244.92857142857144" y="107.35714285714286" type="curve" smooth="yes"/>
      <point x="272.0238095238095" y="107.35714285714286"/>
      <point x="294.5714285714286" y="123.35714285714286"/>
      <point x="294.5714285714286" y="168.0" type="curve" smooth="yes"/>
      <point x="294.5714285714286" y="213.6428571428571"/>
      <point x="272.0238095238095" y="228.64285714285714"/>
      <point x="244.92857142857144" y="228.64285714285714" type="curve" smooth="yes"/>
      <point x="215.28571428571428" y="228.64285714285714"/>
      <point x="194.7380952380952" y="213.6428571428571"/>
      <point x="194.7380952380952" y="168.0" type="curve" smooth="yes"/>
      <point x="194.7380952380952" y="123.35714285714286"/>
      <point x="215.28571428571428" y="107.35714285714286"/>
    </contour>
    <contour>
      <point x="244.92857142857144" y="486.35714285714283" type="curve" smooth="yes"/>
      <point x="272.0238095238095" y="486.35714285714283"/>
      <point x="294.5714285714286" y="502.3571428571429"/>
      <point x="294.5714285714286" y="547.0" type="curve" smooth="yes"/>
      <point x="294.5714285714286" y="592.6428571428572"/>
      <point x="272.0238095238095" y="607.6428571428571"/>
      <point x="244.92857142857144" y="607.6428571428571" type="curve" smooth="yes"/>
      <point x="215.28571428571428" y="607.6428571428571"/>
      <point x="194.7380952380952" y="592.6428571428572"/>
      <point x="194.7380952380952" y="547.0" type="curve" smooth="yes"/>
      <point x="194.7380952380952" y="502.3571428571429"/>
      <point x="215.28571428571428" y="486.35714285714283"/>
    </contour>
  </outline>
</glyph>
<glyph name="udatta-deva" format="2">
  <unicode hex="0951"/>
  <anchor x="62.64285714285714" y="571.0238095238095" name="_vedic"/>
  <outline>
    <contour>
      <point x="111.00000000000001" y="947.4047619047619" type="line"/>
      <point x="174.3809523809524" y="947.4047619047619" type="line"/>
      <point x="217.47619047619048" y="1151.6904761904761" type="line"/>
      <point x="154.54761904761907" y="1151.6904761904761" type="line"/>
    </contour>
  </outline>
</glyph>
<glyph name="anudatta-deva" format="2">
  <unicode hex="0952"/>
  <anchor x="-59.0" y="0.0" name="_bottom"/>
  <outline>
    <contour>
      <point x="-373.64285714285717" y="-548.4761904761905" type="line"/>
      <point x="23.452380952380953" y="-548.4761904761905" type="line"/>
      <point x="42.095238095238095" y="-457.8095238095238" type="line"/>
      <point x="-355.0" y="-457.8095238095238" type="line"/>
    </contour>
  </outline>
</glyph>
<glyph name="danda-deva" format="2">
  <advance width="279.85714285714283"/>
  <unicode hex="0964"/>
  <outline>
    <contour>
      <point x="0.07142857142857006" y="0.0" type="line"/>
      <point x="158.14285714285717" y="0.0" type="line"/>
      <point x="279.7857142857143" y="571.0238095238095" type="line"/>
      <point x="121.16666666666666" y="571.0238095238095" type="line"/>
    </contour>
  </outline>
</glyph>
<glyph name="dbldanda-deva" format="2">
  <advance width="518.3571428571428"/>
  <unicode hex="0965"/>
  <outline>
    <contour>
      <point x="238.57142857142858" y="0.0" type="line"/>
      <point x="396.64285714285717" y="0.0" type="line"/>
      <point x="518.2857142857143" y="571.0238095238095" type="line"/>
      <point x="359.66666666666663" y="571.0238095238095" type="line"/>
    </contour>
    <contour>
      <point x="0.07142857142857006" y="0.0" type="line"/>
      <point x="158.14285714285717" y="0.0" type="line"/>
      <point x="279.7857142857143" y="571.0238095238095" type="line"/>
      <point x="121.16666666666666" y="571.0238095238095" type="line"/>
    </contour>
  </outline>
</glyph>
<glyph name="anusvara-tamil" format="2">
  <unicode hex="0B82"/>
  <note>
uni0B82
</note>
  <anchor x="62.64285714285714" y="571.0238095238095" name="_top"/>
  <outline>
    <contour>
      <point x="101.09523809523809" y="625.8095238095239" type="curve" smooth="yes"/>
      <point x="176.47619047619048" y="625.8095238095239"/>
      <point x="236.85714285714286" y="683.2857142857142"/>
      <point x="236.85714285714286" y="760.3095238095239" type="curve" smooth="yes"/>
      <point x="236.85714285714286" y="836.7857142857143"/>
      <point x="176.47619047619048" y="893.2619047619049"/>
      <point x="101.09523809523809" y="893.2619047619049" type="curve" smooth="yes"/>
      <point x="25.714285714285715" y="893.2619047619049"/>
      <point x="-34.66666666666667" y="836.7857142857143"/>
      <point x="-34.66666666666667" y="760.3095238095239" type="curve" smooth="yes"/>
      <point x="-34.66666666666667" y="683.2857142857142"/>
      <point x="25.714285714285715" y="625.8095238095239"/>
    </contour>
    <contour>
      <point x="101.09523809523809" y="704.0238095238095" type="curve" smooth="yes"/>
      <point x="71.54761904761904" y="704.0238095238095"/>
      <point x="45.90476190476191" y="728.6666666666667"/>
      <point x="45.90476190476191" y="759.7619047619048" type="curve" smooth="yes"/>
      <point x="45.90476190476191" y="790.8571428571429"/>
      <point x="71.54761904761904" y="815.5"/>
      <point x="101.09523809523809" y="815.5" type="curve" smooth="yes"/>
      <point x="130.6428571428571" y="815.5"/>
      <point x="156.2857142857143" y="790.8571428571429"/>
      <point x="156.2857142857143" y="759.7619047619048" type="curve" smooth="yes"/>
      <point x="156.2857142857143" y="728.6666666666667"/>
      <point x="130.6428571428571" y="704.0238095238095"/>
    </contour>
  </outline>
</glyph>
<glyph name="visarga-tamil" format="2">
  <advance width="712.4047619047619"/>
  <unicode hex="0B83"/>
  <note>
uni0B83
</note>
  <outline>
    <contour>
      <point x="123.09523809523809" y="-5.0" type="curve" smooth="yes"/>
      <point x="230.1904761904762" y="-5.0"/>
      <point x="308.0238095238095" y="108.45238095238096"/>
      <point x="308.02380952380946" y="234.9047619047619" type="curve" smooth="yes"/>
      <point x="308.02380952380946" y="327.2857142857143"/>
      <point x="261.73809523809524" y="375.19047619047615"/>
      <point x="188.64285714285714" y="375.19047619047615" type="curve" smooth="yes"/>
      <point x="76.45238095238096" y="375.19047619047615"/>
      <point x="10.714285714285715" y="242.92857142857144"/>
      <point x="10.714285714285715" y="131.09523809523807" type="curve" smooth="yes"/>
      <point x="10.714285714285715" y="49.35714285714286"/>
      <point x="52.8095238095238" y="-5.0"/>
    </contour>
    <contour>
      <point x="113.26190476190476" y="67.92857142857143" type="curve" smooth="yes"/>
      <point x="84.35714285714286" y="67.92857142857143"/>
      <point x="73.64285714285714" y="95.0"/>
      <point x="73.64285714285714" y="138.35714285714286" type="curve" smooth="yes"/>
      <point x="73.64285714285714" y="212.35714285714286"/>
      <point x="108.99999999999999" y="303.07142857142856"/>
      <point x="159.71428571428572" y="303.07142857142856" type="curve" smooth="yes"/>
      <point x="190.16666666666669" y="303.07142857142856"/>
      <point x="198.97619047619048" y="276.0714285714286"/>
      <point x="198.97619047619048" y="234.8095238095238" type="curve" smooth="yes"/>
      <point x="198.97619047619048" y="153.57142857142858"/>
      <point x="163.35714285714286" y="67.92857142857143"/>
    </contour>
    <contour>
      <point x="472.2142857142857" y="-5.0" type="curve" smooth="yes"/>
      <point x="579.3095238095236" y="-5.0"/>
      <point x="657.1428571428571" y="108.45238095238096"/>
      <point x="657.1428571428571" y="234.9047619047619" type="curve" smooth="yes"/>
      <point x="657.1428571428571" y="327.2857142857143"/>
      <point x="610.8571428571429" y="375.19047619047615"/>
      <point x="537.7619047619048" y="375.19047619047615" type="curve" smooth="yes"/>
      <point x="425.57142857142856" y="375.19047619047615"/>
      <point x="359.8333333333333" y="242.92857142857144"/>
      <point x="359.8333333333333" y="131.09523809523807" type="curve" smooth="yes"/>
      <point x="359.8333333333333" y="49.35714285714286"/>
      <point x="401.92857142857144" y="-5.0"/>
    </contour>
    <contour>
      <point x="462.38095238095235" y="67.92857142857143" type="curve" smooth="yes"/>
      <point x="433.4761904761905" y="67.92857142857143"/>
      <point x="422.76190476190476" y="95.0"/>
      <point x="422.76190476190476" y="138.35714285714286" type="curve" smooth="yes"/>
      <point x="422.76190476190476" y="212.35714285714286"/>
      <point x="458.1190476190476" y="303.07142857142856"/>
      <point x="508.8333333333333" y="303.07142857142856" type="curve" smooth="yes"/>
      <point x="539.2857142857143" y="303.07142857142856"/>
      <point x="548.0952380952381" y="276.0714285714286"/>
      <point x="548.0952380952381" y="234.8095238095238" type="curve" smooth="yes"/>
      <point x="548.0952380952381" y="153.57142857142858"/>
      <point x="512.4761904761905" y="67.92857142857143"/>
    </contour>
    <contour>
      <point x="394.57142857142856" y="431.76190476190476" type="curve" smooth="yes"/>
      <point x="501.66666666666663" y="431.76190476190476"/>
      <point x="579.5000000000001" y="544.6666666666667"/>
      <point x="579.5000000000001" y="671.1190476190476" type="curve" smooth="yes"/>
      <point x="579.5000000000001" y="764.047619047619"/>
      <point x="533.2142857142857" y="811.952380952381"/>
      <point x="460.11904761904765" y="811.952380952381" type="curve" smooth="yes"/>
      <point x="347.9285714285714" y="811.952380952381"/>
      <point x="282.1904761904762" y="679.6904761904761"/>
      <point x="282.1904761904762" y="567.8571428571428" type="curve" smooth="yes"/>
      <point x="282.1904761904762" y="486.11904761904765"/>
      <point x="324.28571428571433" y="431.76190476190476"/>
    </contour>
    <contour>
      <point x="384.7380952380952" y="504.6904761904761" type="curve" smooth="yes"/>
      <point x="355.8333333333333" y="504.6904761904761"/>
      <point x="345.1190476190476" y="531.7619047619048"/>
      <point x="345.1190476190476" y="575.1190476190476" type="curve" smooth="yes"/>
      <point x="345.1190476190476" y="649.1190476190476"/>
      <point x="380.4761904761905" y="739.8333333333334"/>
      <point x="431.19047619047626" y="739.8333333333334" type="curve" smooth="yes"/>
      <point x="461.6428571428571" y="739.8333333333334"/>
      <point x="470.4523809523809" y="712.8333333333334"/>
      <point x="470.4523809523809" y="671.5714285714284" type="curve" smooth="yes"/>
      <point x="470.4523809523809" y="590.3333333333335"/>
      <point x="434.83333333333326" y="504.6904761904761"/>
    </contour>
  </outline>
</glyph>
<glyph name="a-tamil" format="2">
  <advance width="1109.4285714285713"/>
  <unicode hex="0B85"/>
  <note>
uni0B85
</note>
  <anchor x="481.8809523809524" y="0.0" name="bottom"/>
  <anchor x="286.2142857142857" y="-148.76190476190476" name="nukta"/>
  <anchor x="590.3333333333335" y="571.0238095238095" name="top"/>
  <anchor x="591.2380952380954" y="571.0238095238095" name="vedic"/>
  <outline>
    <contour>
      <point x="785.904761904762" y="-212.85714285714286" type="line"/>
      <point x="944.4285714285713" y="-212.85714285714286" type="line"/>
      <point x="1111.2619047619048" y="571.0238095238095" type="line"/>
      <point x="952.6428571428571" y="571.0238095238095" type="line"/>
      <point x="865.0" y="160.16666666666663" type="line"/>
      <point x="72.0" y="160.16666666666663" type="line" smooth="yes"/>
      <point x="15.619047619047617" y="160.16666666666663"/>
      <point x="-21.92857142857143" y="115.33333333333334"/>
      <point x="-21.92857142857143" y="58.14285714285713" type="curve" smooth="yes"/>
      <point x="-21.92857142857143" y="-52.880952380952394"/>
      <point x="107.5952380952381" y="-148.76190476190476"/>
      <point x="286.2142857142857" y="-148.76190476190476" type="curve" smooth="yes"/>
      <point x="569.4285714285713" y="-148.76190476190476"/>
      <point x="799.2857142857142" y="25.785714285714285"/>
      <point x="799.2857142857142" y="304.1666666666667" type="curve" smooth="yes"/>
      <point x="799.2857142857142" y="474.7142857142857"/>
      <point x="684.547619047619" y="576.0238095238095"/>
      <point x="531.6904761904763" y="576.0238095238095" type="curve" smooth="yes"/>
      <point x="393.83333333333337" y="576.0238095238095"/>
      <point x="283.9047619047619" y="485.4523809523809"/>
      <point x="283.9047619047619" y="352.07142857142856" type="curve" smooth="yes"/>
      <point x="283.9047619047619" y="276.5952380952381"/>
      <point x="336.2857142857143" y="219.14285714285717"/>
      <point x="411.02380952380946" y="219.14285714285717" type="curve" smooth="yes"/>
      <point x="508.14285714285717" y="219.14285714285717"/>
      <point x="572.6904761904763" y="285.3571428571429"/>
      <point x="572.6904761904763" y="387.7380952380952" type="curve" smooth="yes"/>
      <point x="572.6904761904763" y="450.54761904761904"/>
      <point x="540.1428571428571" y="508.4523809523809"/>
      <point x="499.1428571428572" y="533.4761904761905" type="curve"/>
      <point x="438.85714285714283" y="526.2857142857142" type="line"/>
      <point x="470.40476190476187" y="502.5476190476191"/>
      <point x="487.8571428571428" y="455.6428571428571"/>
      <point x="487.8571428571428" y="413.1904761904762" type="curve" smooth="yes"/>
      <point x="487.8571428571428" y="352.1904761904762"/>
      <point x="462.047619047619" y="296.90476190476187"/>
      <point x="406.21428571428567" y="296.90476190476187" type="curve" smooth="yes"/>
      <point x="379.11904761904765" y="296.90476190476187"/>
      <point x="353.47619047619054" y="322.42857142857144"/>
      <point x="353.47619047619054" y="364.80952380952385" type="curve" smooth="yes"/>
      <point x="353.47619047619054" y="446.35714285714283"/>
      <point x="419.47619047619037" y="509.09523809523813"/>
      <point x="506.4047619047619" y="509.09523809523813" type="curve" smooth="yes"/>
      <point x="601.5952380952382" y="509.09523809523813"/>
      <point x="655.6904761904763" y="440.1666666666667"/>
      <point x="655.6904761904763" y="328.26190476190476" type="curve" smooth="yes"/>
      <point x="655.6904761904763" y="93.97619047619047"/>
      <point x="511.8809523809524" y="-82.3809523809524"/>
      <point x="275.83333333333337" y="-82.3809523809524" type="curve" smooth="yes"/>
      <point x="142.5" y="-82.3809523809524"/>
      <point x="51.095238095238095" y="-6.952380952380954"/>
      <point x="51.095238095238095" y="58.14285714285714" type="curve" smooth="yes"/>
      <point x="51.095238095238095" y="83.69047619047618"/>
      <point x="61.54761904761905" y="94.78571428571428"/>
      <point x="83.0952380952381" y="94.78571428571428" type="curve" smooth="yes"/>
      <point x="850.9047619047617" y="94.78571428571428" type="line"/>
    </contour>
  </outline>
</glyph>
<glyph name="aa-tamil" format="2">
  <advance width="1315.047619047619"/>
  <unicode hex="0B86"/>
  <note>
uni0B86
</note>
  <anchor x="601.8809523809525" y="0.0" name="bottom"/>
  <anchor x="268.4761904761904" y="-148.76190476190476" name="nukta"/>
  <anchor x="723.2380952380953" y="571.0238095238095" name="top"/>
  <anchor x="724.2380952380953" y="571.0238095238095" name="vedic"/>
  <outline>
    <contour>
      <point x="722.9285714285714" y="-407.4523809523809" type="curve" smooth="yes"/>
      <point x="974.4285714285714" y="-407.4523809523809"/>
      <point x="1235.8809523809523" y="-258.3571428571429"/>
      <point x="1235.8809523809523" y="-26.85714285714286" type="curve" smooth="yes"/>
      <point x="1235.8809523809523" y="56.07142857142858"/>
      <point x="1188.5" y="103.26190476190477"/>
      <point x="1121.6666666666665" y="103.26190476190477" type="curve" smooth="yes"/>
      <point x="1046.8333333333333" y="103.26190476190477"/>
      <point x="982.9047619047619" y="43.88095238095238"/>
      <point x="946.0714285714287" y="-78.71428571428571" type="curve"/>
      <point x="969.1666666666665" y="-86.16666666666667" type="line"/>
      <point x="979.6190476190477" y="-31.61904761904762"/>
      <point x="1001.8095238095237" y="-12.976190476190474"/>
      <point x="1033.357142857143" y="-12.976190476190474" type="curve" smooth="yes"/>
      <point x="1058.2619047619048" y="-12.976190476190474"/>
      <point x="1075.2619047619048" y="-29.78571428571428"/>
      <point x="1075.2619047619048" y="-61.23809523809524" type="curve" smooth="yes"/>
      <point x="1075.2619047619048" y="-223.26190476190473"/>
      <point x="905.9523809523808" y="-343.6190476190476"/>
      <point x="728.2857142857143" y="-343.6190476190476" type="curve" smooth="yes"/>
      <point x="647.9047619047619" y="-343.6190476190476"/>
      <point x="589.7142857142858" y="-319.42857142857144"/>
      <point x="589.7142857142858" y="-269.35714285714283" type="curve" smooth="yes"/>
      <point x="589.7142857142858" y="-224.09523809523807"/>
      <point x="631.0" y="-203.19047619047618"/>
      <point x="687.7142857142858" y="-188.28571428571428" type="curve"/>
      <point x="673.7142857142857" y="-129.35714285714286" type="line"/>
      <point x="581.4285714285716" y="-154.35714285714283"/>
      <point x="521.8809523809525" y="-193.6428571428571"/>
      <point x="521.8809523809525" y="-277.35714285714283" type="curve" smooth="yes"/>
      <point x="521.8809523809525" y="-355.3571428571429"/>
      <point x="601.4285714285714" y="-407.4523809523809"/>
    </contour>
    <component base="a-tamil"/>
  </outline>
</glyph>
<glyph name="i-tamil" format="2">
  <advance width="858.5714285714287"/>
  <unicode hex="0B87"/>
  <note>
uni0B87
</note>
  <anchor x="350.42857142857144" y="0.0" name="bottom"/>
  <anchor x="288.8809523809524" y="-284.6666666666667" name="nukta"/>
  <anchor x="502.71428571428567" y="839.2142857142858" name="top"/>
  <anchor x="456.547619047619" y="571.0238095238095" name="vedic"/>
  <outline>
    <contour>
      <point x="78.83333333333336" y="-323.8571428571429" type="curve" smooth="yes"/>
      <point x="371.5476190476191" y="-323.8571428571429"/>
      <point x="680.6666666666666" y="11.857142857142858"/>
      <point x="680.6666666666666" y="332.90476190476187" type="curve" smooth="yes"/>
      <point x="680.6666666666666" y="483.8571428571429"/>
      <point x="593.7380952380952" y="576.0238095238095"/>
      <point x="450.52380952380946" y="576.0238095238095" type="curve" smooth="yes"/>
      <point x="324.5952380952381" y="576.0238095238095"/>
      <point x="214.92857142857144" y="473.61904761904754"/>
      <point x="214.92857142857144" y="350.1666666666667" type="curve" smooth="yes"/>
      <point x="214.92857142857144" y="272.7857142857143"/>
      <point x="264.9285714285714" y="219.14285714285714"/>
      <point x="336.76190476190476" y="219.14285714285714" type="curve" smooth="yes"/>
      <point x="432.71428571428567" y="219.14285714285714"/>
      <point x="498.16666666666674" y="289.45238095238096"/>
      <point x="498.16666666666674" y="389.47619047619054" type="curve" smooth="yes"/>
      <point x="498.16666666666674" y="453.2857142857143"/>
      <point x="464.452380952381" y="510.28571428571433"/>
      <point x="430.54761904761904" y="535.0238095238096" type="curve"/>
      <point x="369.8809523809524" y="523.8333333333333" type="line"/>
      <point x="396.07142857142856" y="502.54761904761904"/>
      <point x="412.8809523809524" y="452.8333333333333"/>
      <point x="412.8809523809524" y="410.38095238095235" type="curve" smooth="yes"/>
      <point x="412.8809523809524" y="351.19047619047615"/>
      <point x="387.33333333333337" y="296.904761904762"/>
      <point x="331.49999999999994" y="296.904761904762" type="curve" smooth="yes"/>
      <point x="301.95238095238096" y="296.904761904762"/>
      <point x="284.95238095238096" y="323.1666666666667"/>
      <point x="284.95238095238096" y="359.8095238095238" type="curve" smooth="yes"/>
      <point x="284.95238095238096" y="442.35714285714283"/>
      <point x="348.8809523809524" y="509.09523809523813"/>
      <point x="430.16666666666663" y="509.09523809523813" type="curve" smooth="yes"/>
      <point x="508.26190476190476" y="509.09523809523813"/>
      <point x="544.5238095238095" y="456.0238095238095"/>
      <point x="544.5238095238095" y="366.92857142857144" type="curve" smooth="yes"/>
      <point x="544.5238095238095" y="68.78571428571428"/>
      <point x="332.0952380952381" y="-255.3809523809524"/>
      <point x="85.64285714285712" y="-255.3809523809524" type="curve" smooth="yes"/>
      <point x="31.9047619047619" y="-255.3809523809524"/>
      <point x="5.19047619047619" y="-223.35714285714286"/>
      <point x="5.19047619047619" y="-176.83333333333331" type="curve" smooth="yes"/>
      <point x="5.19047619047619" y="-44.42857142857143"/>
      <point x="168.3095238095238" y="45.16666666666666"/>
      <point x="340.8809523809524" y="45.16666666666666" type="curve" smooth="yes"/>
      <point x="497.9047619047619" y="45.16666666666666"/>
      <point x="642.5714285714286" y="-35.357142857142854"/>
      <point x="642.5714285714286" y="-148.28571428571428" type="curve" smooth="yes"/>
      <point x="642.5714285714286" y="-219.7380952380952"/>
      <point x="598.0238095238096" y="-255.3809523809524"/>
      <point x="527.0238095238095" y="-255.3809523809524" type="curve" smooth="yes"/>
      <point x="327.16666666666663" y="-255.3809523809524"/>
      <point x="120.64285714285717" y="17.61904761904762"/>
      <point x="120.64285714285717" y="295.11904761904765" type="curve" smooth="yes"/>
      <point x="120.64285714285717" y="541.2142857142857"/>
      <point x="247.71428571428572" y="709.5238095238095"/>
      <point x="490.5238095238095" y="709.5238095238095" type="curve" smooth="yes"/>
      <point x="700.2380952380953" y="709.5238095238095"/>
      <point x="818.1190476190477" y="577.1904761904763"/>
      <point x="772.5714285714287" y="362.3571428571429" type="curve" smooth="yes"/>
      <point x="717.2142857142857" y="99.92857142857143" type="line"/>
      <point x="783.5000000000001" y="99.92857142857143" type="line"/>
      <point x="840.8571428571428" y="369.0952380952381" type="line" smooth="yes"/>
      <point x="901.952380952381" y="654.952380952381"/>
      <point x="765.8333333333333" y="839.2142857142858"/>
      <point x="502.71428571428567" y="839.2142857142858" type="curve" smooth="yes"/>
      <point x="202.6904761904762" y="839.2142857142858"/>
      <point x="50.714285714285715" y="600.8333333333334"/>
      <point x="50.714285714285715" y="309.40476190476187" type="curve" smooth="yes"/>
      <point x="50.714285714285715" y="-26.857142857142854"/>
      <point x="301.80952380952374" y="-323.8571428571429"/>
      <point x="522.8095238095239" y="-323.8571428571429" type="curve" smooth="yes"/>
      <point x="636.1904761904763" y="-323.8571428571429"/>
      <point x="719.5" y="-264.2142857142857"/>
      <point x="719.5" y="-148.99999999999997" type="curve" smooth="yes"/>
      <point x="719.5" y="6.642857142857145"/>
      <point x="548.1904761904761" y="105.35714285714285"/>
      <point x="344.88095238095235" y="105.35714285714285" type="curve" smooth="yes"/>
      <point x="136.38095238095238" y="105.35714285714285"/>
      <point x="-69.64285714285714" y="-7.1428571428571415"/>
      <point x="-69.64285714285714" y="-186.76190476190476" type="curve" smooth="yes"/>
      <point x="-69.64285714285714" y="-266.4761904761905"/>
      <point x="-16.285714285714285" y="-323.8571428571429"/>
    </contour>
  </outline>
</glyph>
<glyph name="ii-tamil" format="2">
  <advance width="692.8333333333333"/>
  <unicode hex="0B88"/>
  <note>
uni0B88
</note>
  <anchor x="288.8809523809524" y="0.0" name="bottom"/>
  <anchor x="289.4285714285714" y="0.0" name="nukta"/>
  <anchor x="412.42857142857144" y="571.0238095238095" name="top"/>
  <anchor x="412.9761904761905" y="571.0238095238095" name="vedic"/>
  <outline>
    <contour>
      <point x="-1.8333333333333313" y="0.0" type="line"/>
      <point x="66.0" y="0.0" type="line"/>
      <point x="173.54761904761904" y="507.1904761904762" type="line"/>
      <point x="365.0" y="507.1904761904762" type="line"/>
      <point x="257.4523809523809" y="0.0" type="line"/>
      <point x="418.0714285714286" y="0.0" type="line"/>
      <point x="525.6190476190476" y="507.1904761904762" type="line"/>
      <point x="697.1904761904763" y="507.1904761904762" type="line"/>
      <point x="710.7380952380953" y="571.0238095238095" type="line"/>
      <point x="119.26190476190474" y="571.0238095238095" type="line"/>
    </contour>
    <contour>
      <point x="218.54761904761904" y="206.80952380952382" type="curve" smooth="yes"/>
      <point x="254.73809523809527" y="206.80952380952382"/>
      <point x="286.38095238095235" y="236.45238095238096"/>
      <point x="286.38095238095235" y="272.1904761904762" type="curve" smooth="yes"/>
      <point x="286.38095238095235" y="306.9285714285714"/>
      <point x="254.73809523809527" y="336.1190476190476"/>
      <point x="218.54761904761904" y="336.1190476190476" type="curve" smooth="yes"/>
      <point x="182.35714285714286" y="336.1190476190476"/>
      <point x="151.7142857142857" y="306.9285714285714"/>
      <point x="151.7142857142857" y="272.1904761904762" type="curve" smooth="yes"/>
      <point x="151.7142857142857" y="236.45238095238096"/>
      <point x="182.35714285714286" y="206.80952380952382"/>
    </contour>
    <contour>
      <point x="571.7142857142858" y="206.80952380952382" type="curve" smooth="yes"/>
      <point x="607.904761904762" y="206.80952380952382"/>
      <point x="639.547619047619" y="236.45238095238096"/>
      <point x="639.547619047619" y="272.1904761904762" type="curve" smooth="yes"/>
      <point x="639.547619047619" y="306.9285714285714"/>
      <point x="607.9047619047619" y="336.1190476190476"/>
      <point x="571.7142857142858" y="336.1190476190476" type="curve" smooth="yes"/>
      <point x="535.5238095238096" y="336.1190476190476"/>
      <point x="504.8809523809523" y="306.9285714285714"/>
      <point x="504.8809523809523" y="272.1904761904762" type="curve" smooth="yes"/>
      <point x="504.8809523809523" y="236.45238095238096"/>
      <point x="535.5238095238096" y="206.80952380952382"/>
    </contour>
  </outline>
</glyph>
<glyph name="u-tamil" format="2">
  <advance width="772.952380952381"/>
  <unicode hex="0B89"/>
  <note>
uni0B89
</note>
  <anchor x="321.1904761904762" y="0.0" name="bottom"/>
  <anchor x="321.1904761904762" y="0.0" name="nukta"/>
  <anchor x="446.28571428571433" y="571.0238095238095" name="top"/>
  <anchor x="445.83333333333337" y="571.0238095238095" name="vedic"/>
  <outline>
    <contour>
      <point x="76.64285714285712" y="0.0" type="curve" smooth="yes"/>
      <point x="701.2380952380952" y="0.0" type="line"/>
      <point x="715.3333333333334" y="64.28571428571429" type="line"/>
      <point x="81.45238095238095" y="64.28571428571429" type="line" smooth="yes"/>
      <point x="63.90476190476191" y="64.28571428571429"/>
      <point x="49.64285714285715" y="75.83333333333333"/>
      <point x="49.64285714285715" y="96.64285714285714" type="curve" smooth="yes"/>
      <point x="49.64285714285715" y="120.35714285714286"/>
      <point x="64.9047619047619" y="131.90476190476187"/>
      <point x="85.45238095238095" y="131.90476190476187" type="curve" smooth="yes"/>
      <point x="281.02380952380946" y="131.90476190476187" type="line" smooth="yes"/>
      <point x="451.5714285714286" y="131.90476190476187"/>
      <point x="589.452380952381" y="216.6190476190476"/>
      <point x="589.452380952381" y="381.38095238095235" type="curve" smooth="yes"/>
      <point x="589.452380952381" y="506.3571428571428"/>
      <point x="490.9285714285714" y="576.0238095238095"/>
      <point x="352.8571428571429" y="576.0238095238095" type="curve" smooth="yes"/>
      <point x="222.4761904761905" y="576.0238095238095"/>
      <point x="106.26190476190479" y="484.2142857142857"/>
      <point x="106.26190476190479" y="360.452380952381" type="curve" smooth="yes"/>
      <point x="106.26190476190479" y="289.1666666666667"/>
      <point x="153.83333333333331" y="242.35714285714283"/>
      <point x="218.3809523809524" y="242.35714285714283" type="curve" smooth="yes"/>
      <point x="306.4761904761904" y="242.35714285714283"/>
      <point x="374.6666666666667" y="300.8809523809524"/>
      <point x="374.6666666666667" y="396.1666666666667" type="curve" smooth="yes"/>
      <point x="374.6666666666667" y="456.26190476190476"/>
      <point x="342.02380952380946" y="508.61904761904776"/>
      <point x="300.66666666666663" y="533.4761904761905" type="curve"/>
      <point x="237.28571428571428" y="528.3809523809524" type="line"/>
      <point x="275.02380952380946" y="498.6190476190476"/>
      <point x="289.9285714285714" y="456.4523809523809"/>
      <point x="289.9285714285714" y="412.2619047619047" type="curve" smooth="yes"/>
      <point x="289.9285714285714" y="356.09523809523813"/>
      <point x="265.0238095238096" y="313.3809523809524"/>
      <point x="217.83333333333334" y="313.3809523809524" type="curve" smooth="yes"/>
      <point x="192.02380952380952" y="313.3809523809524"/>
      <point x="175.28571428571428" y="336.2857142857143"/>
      <point x="175.28571428571428" y="369.4761904761904" type="curve" smooth="yes"/>
      <point x="175.28571428571428" y="445.5714285714286"/>
      <point x="242.30952380952382" y="512.1904761904763"/>
      <point x="324.1904761904762" y="512.1904761904763" type="curve" smooth="yes"/>
      <point x="398.3095238095238" y="512.1904761904763"/>
      <point x="445.11904761904765" y="472.16666666666663"/>
      <point x="445.11904761904765" y="389.28571428571433" type="curve" smooth="yes"/>
      <point x="445.11904761904765" y="274.73809523809524"/>
      <point x="377.47619047619054" y="192.64285714285717"/>
      <point x="271.8333333333333" y="192.64285714285717" type="curve" smooth="yes"/>
      <point x="94.54761904761905" y="192.64285714285717" type="line" smooth="yes"/>
      <point x="24.97619047619048" y="192.64285714285717"/>
      <point x="-13.095238095238098" y="150.80952380952382"/>
      <point x="-13.095238095238098" y="90.45238095238095" type="curve" smooth="yes"/>
      <point x="-13.095238095238098" y="37.166666666666664"/>
      <point x="24.023809523809526" y="0.0"/>
    </contour>
  </outline>
</glyph>
<glyph name="uu-tamil" format="2">
  <advance width="1495.357142857143"/>
  <unicode hex="0B8A"/>
  <note>
uni0B8A
</note>
  <anchor x="691.3333333333333" y="0.0" name="bottom"/>
  <anchor x="691.3333333333333" y="0.0" name="nukta"/>
  <anchor x="814.6190476190476" y="571.0238095238095" name="top"/>
  <anchor x="815.9761904761905" y="571.0238095238095" name="vedic"/>
  <outline>
    <contour>
      <point x="76.64285714285712" y="0.0" type="curve" smooth="yes"/>
      <point x="1385.047619047619" y="0.0" type="line"/>
      <point x="1399.142857142857" y="64.28571428571429" type="line"/>
      <point x="81.45238095238095" y="64.28571428571429" type="line" smooth="yes"/>
      <point x="63.90476190476191" y="64.28571428571429"/>
      <point x="49.64285714285715" y="75.83333333333333"/>
      <point x="49.64285714285715" y="96.64285714285714" type="curve" smooth="yes"/>
      <point x="49.64285714285715" y="120.35714285714286"/>
      <point x="64.9047619047619" y="131.90476190476187"/>
      <point x="85.45238095238095" y="131.90476190476187" type="curve" smooth="yes"/>
      <point x="281.02380952380946" y="131.90476190476187" type="line" smooth="yes"/>
      <point x="451.5714285714286" y="131.90476190476187"/>
      <point x="589.452380952381" y="216.6190476190476"/>
      <point x="589.452380952381" y="381.38095238095235" type="curve" smooth="yes"/>
      <point x="589.452380952381" y="506.3571428571428"/>
      <point x="490.9285714285714" y="576.0238095238095"/>
      <point x="352.8571428571429" y="576.0238095238095" type="curve" smooth="yes"/>
      <point x="222.4761904761905" y="576.0238095238095"/>
      <point x="106.26190476190479" y="484.2142857142857"/>
      <point x="106.26190476190479" y="360.452380952381" type="curve" smooth="yes"/>
      <point x="106.26190476190479" y="289.1666666666667"/>
      <point x="153.83333333333331" y="242.35714285714283"/>
      <point x="218.3809523809524" y="242.35714285714283" type="curve" smooth="yes"/>
      <point x="306.4761904761904" y="242.35714285714283"/>
      <point x="374.6666666666667" y="300.8809523809524"/>
      <point x="374.6666666666667" y="396.1666666666667" type="curve" smooth="yes"/>
      <point x="374.6666666666667" y="456.26190476190476"/>
      <point x="342.02380952380946" y="508.61904761904776"/>
      <point x="300.66666666666663" y="533.4761904761905" type="curve"/>
      <point x="237.28571428571428" y="528.3809523809524" type="line"/>
      <point x="275.02380952380946" y="498.6190476190476"/>
      <point x="289.9285714285714" y="456.4523809523809"/>
      <point x="289.9285714285714" y="412.2619047619047" type="curve" smooth="yes"/>
      <point x="289.9285714285714" y="356.09523809523813"/>
      <point x="265.0238095238096" y="313.3809523809524"/>
      <point x="217.83333333333334" y="313.3809523809524" type="curve" smooth="yes"/>
      <point x="192.02380952380952" y="313.3809523809524"/>
      <point x="175.28571428571428" y="336.2857142857143"/>
      <point x="175.28571428571428" y="369.4761904761904" type="curve" smooth="yes"/>
      <point x="175.28571428571428" y="445.5714285714286"/>
      <point x="242.30952380952382" y="512.1904761904763"/>
      <point x="324.1904761904762" y="512.1904761904763" type="curve" smooth="yes"/>
      <point x="398.3095238095238" y="512.1904761904763"/>
      <point x="445.11904761904765" y="472.16666666666663"/>
      <point x="445.11904761904765" y="389.28571428571433" type="curve" smooth="yes"/>
      <point x="445.11904761904765" y="274.73809523809524"/>
      <point x="377.47619047619054" y="192.64285714285717"/>
      <point x="271.8333333333333" y="192.64285714285717" type="curve" smooth="yes"/>
      <point x="94.54761904761905" y="192.64285714285717" type="line" smooth="yes"/>
      <point x="24.97619047619048" y="192.64285714285717"/>
      <point x="-13.095238095238098" y="150.80952380952382"/>
      <point x="-13.095238095238098" y="90.45238095238095" type="curve" smooth="yes"/>
      <point x="-13.095238095238098" y="37.166666666666664"/>
      <point x="24.023809523809526" y="0.0"/>
    </contour>
    <contour>
      <point x="765.7619047619049" y="119.02380952380953" type="curve" smooth="yes"/>
      <point x="862.6666666666667" y="119.02380952380953"/>
      <point x="935.6904761904763" y="189.64285714285714"/>
      <point x="935.6904761904763" y="289.5714285714286" type="curve" smooth="yes"/>
      <point x="935.6904761904763" y="361.2857142857143"/>
      <point x="889.7857142857143" y="402.92857142857144"/>
      <point x="829.2380952380954" y="402.92857142857144" type="curve" smooth="yes"/>
      <point x="743.5714285714286" y="402.92857142857144"/>
      <point x="689.1904761904761" y="327.2619047619047"/>
      <point x="666.9285714285716" y="244.14285714285714" type="curve"/>
      <point x="691.8571428571428" y="217.16666666666669" type="line"/>
      <point x="708.3095238095239" y="286.26190476190476"/>
      <point x="747.7619047619047" y="332.6428571428571"/>
      <point x="787.8571428571431" y="332.6428571428571" type="curve" smooth="yes"/>
      <point x="821.5714285714286" y="332.6428571428571"/>
      <point x="835.2142857142858" y="302.9285714285715"/>
      <point x="835.2142857142858" y="273.5714285714285" type="curve" smooth="yes"/>
      <point x="835.2142857142858" y="227.30952380952382"/>
      <point x="808.1190476190477" y="184.30952380952382"/>
      <point x="759.7619047619048" y="184.30952380952382" type="curve" smooth="yes"/>
      <point x="720.8571428571429" y="184.30952380952382"/>
      <point x="687.2857142857142" y="220.92857142857142"/>
      <point x="687.2857142857142" y="293.5" type="curve" smooth="yes"/>
      <point x="687.2857142857142" y="415.4761904761904"/>
      <point x="760.6666666666666" y="512.7380952380953"/>
      <point x="878.952380952381" y="512.7380952380953" type="curve" smooth="yes"/>
      <point x="980.6904761904763" y="512.7380952380953"/>
      <point x="1031.2380952380952" y="448.3095238095238"/>
      <point x="1007.595238095238" y="339.4047619047619" type="curve"/>
      <point x="1066.4285714285716" y="339.4047619047619" type="line"/>
      <point x="1093.4285714285716" y="477.5"/>
      <point x="1020.5" y="576.0238095238095"/>
      <point x="883.309523809524" y="576.0238095238095" type="curve" smooth="yes"/>
      <point x="732.7380952380954" y="576.0238095238095"/>
      <point x="624.547619047619" y="445.7380952380953"/>
      <point x="624.547619047619" y="285.1190476190477" type="curve" smooth="yes"/>
      <point x="624.547619047619" y="188.0952380952381"/>
      <point x="687.047619047619" y="119.02380952380953"/>
    </contour>
    <contour>
      <point x="961.0476190476189" y="120.92857142857143" type="line"/>
      <point x="1093.5476190476188" y="120.92857142857143" type="line"/>
      <point x="1176.547619047619" y="512.2857142857143" type="line"/>
      <point x="1283.6428571428573" y="512.2857142857143" type="line"/>
      <point x="1200.6428571428573" y="120.92857142857143" type="line"/>
      <point x="1332.7857142857142" y="120.92857142857143" type="line"/>
      <point x="1416.2380952380952" y="512.2857142857143" type="line"/>
      <point x="1493.7857142857144" y="512.2857142857143" type="line"/>
      <point x="1506.3333333333335" y="571.0238095238095" type="line"/>
      <point x="1085.4285714285713" y="571.0238095238095" type="line"/>
      <point x="1053.0714285714284" y="396.4761904761905" type="line"/>
      <point x="1019.5952380952383" y="395.11904761904765" type="line"/>
    </contour>
  </outline>
</glyph>
<glyph name="e-tamil" format="2">
  <advance width="779.547619047619"/>
  <unicode hex="0B8E"/>
  <note>
uni0B8E
</note>
  <anchor x="347.5" y="0.0" name="bottom"/>
  <anchor x="347.5" y="0.0" name="nukta"/>
  <anchor x="471.0476190476191" y="571.0238095238095" name="top"/>
  <anchor x="471.5952380952381" y="571.0238095238095" name="vedic"/>
  <outline>
    <contour>
      <point x="192.952380952381" y="-5.0" type="curve" smooth="yes"/>
      <point x="302.23809523809524" y="-5.0"/>
      <point x="383.4285714285714" y="75.73809523809523"/>
      <point x="383.4285714285714" y="195.21428571428572" type="curve" smooth="yes"/>
      <point x="383.4285714285714" y="278.76190476190476"/>
      <point x="333.07142857142856" y="333.4047619047619"/>
      <point x="257.5" y="333.4047619047619" type="curve" smooth="yes"/>
      <point x="170.5952380952381" y="333.4047619047619"/>
      <point x="108.66666666666666" y="262.8809523809524"/>
      <point x="65.83333333333333" y="153.92857142857142" type="curve"/>
      <point x="94.83333333333334" y="123.19047619047619" type="line"/>
      <point x="125.66666666666666" y="201.4047619047619"/>
      <point x="153.21428571428572" y="235.0"/>
      <point x="190.73809523809524" y="235.0" type="curve" smooth="yes"/>
      <point x="221.00000000000003" y="235.0"/>
      <point x="237.54761904761904" y="206.64285714285714"/>
      <point x="237.54761904761904" y="169.0238095238095" type="curve" smooth="yes"/>
      <point x="237.54761904761904" y="112.83333333333334"/>
      <point x="208.90476190476193" y="70.66666666666666"/>
      <point x="164.09523809523807" y="70.66666666666666" type="curve" smooth="yes"/>
      <point x="119.3809523809524" y="70.66666666666666"/>
      <point x="95.47619047619048" y="128.19047619047618"/>
      <point x="95.47619047619048" y="202.11904761904765" type="curve" smooth="yes"/>
      <point x="95.47619047619048" y="366.23809523809524"/>
      <point x="192.61904761904762" y="507.1904761904762"/>
      <point x="388.35714285714283" y="507.1904761904762" type="curve" smooth="yes"/>
      <point x="556.1428571428571" y="507.1904761904762" type="line"/>
      <point x="448.59523809523813" y="0.0" type="line"/>
      <point x="607.1190476190477" y="0.0" type="line"/>
      <point x="714.6666666666667" y="507.1904761904762" type="line"/>
      <point x="811.7380952380953" y="507.1904761904762" type="line"/>
      <point x="825.8333333333334" y="571.0238095238095" type="line"/>
      <point x="388.16666666666663" y="571.0238095238095" type="line" smooth="yes"/>
      <point x="160.23809523809524" y="571.0238095238095"/>
      <point x="27.547619047619047" y="398.7857142857143"/>
      <point x="27.547619047619047" y="197.2142857142857" type="curve" smooth="yes"/>
      <point x="27.547619047619047" y="84.64285714285714"/>
      <point x="93.1190476190476" y="-5.0"/>
    </contour>
  </outline>
</glyph>
<glyph name="ai-tamil" format="2">
  <advance width="817.2619047619047"/>
  <unicode hex="0B90"/>
  <note>
uni0B90
</note>
  <anchor x="344.2142857142857" y="0.0" name="bottom"/>
  <anchor x="274.1190476190476" y="-323.30952380952385" name="nukta"/>
  <anchor x="478.92857142857133" y="571.0238095238095" name="top"/>
  <anchor x="476.38095238095235" y="571.0238095238095" name="vedic"/>
  <outline>
    <contour>
      <point x="117.19047619047616" y="-323.30952380952385" type="curve" smooth="yes"/>
      <point x="214.47619047619048" y="-323.30952380952385"/>
      <point x="280.5714285714285" y="-273.11904761904765"/>
      <point x="319.2142857142858" y="-197.02380952380955" type="curve"/>
      <point x="324.40476190476187" y="-269.1190476190476"/>
      <point x="376.9523809523809" y="-323.30952380952385"/>
      <point x="465.59523809523813" y="-323.30952380952385" type="curve" smooth="yes"/>
      <point x="606.904761904762" y="-323.30952380952385"/>
      <point x="694.1666666666667" y="-214.83333333333334"/>
      <point x="694.1666666666667" y="-67.64285714285715" type="curve" smooth="yes"/>
      <point x="694.1666666666667" y="-20.38095238095238"/>
      <point x="684.6190476190477" y="25.357142857142858"/>
      <point x="671.6190476190476" y="63.809523809523796" type="curve"/>
      <point x="604.2380952380953" y="39.714285714285715" type="line"/>
      <point x="615.7857142857143" y="4.166666666666664"/>
      <point x="625.7857142857142" y="-35.476190476190474"/>
      <point x="625.7857142857142" y="-69.57142857142857" type="curve" smooth="yes"/>
      <point x="625.7857142857142" y="-178.38095238095238"/>
      <point x="568.0714285714286" y="-253.0238095238095"/>
      <point x="469.7857142857143" y="-253.0238095238095" type="curve" smooth="yes"/>
      <point x="398.23809523809535" y="-253.0238095238095"/>
      <point x="373.95238095238096" y="-201.7619047619048"/>
      <point x="392.4047619047619" y="-115.40476190476191" type="curve" smooth="yes"/>
      <point x="411.14285714285717" y="-27.07142857142857" type="line"/>
      <point x="292.0238095238096" y="-27.07142857142857" type="line"/>
      <point x="274.7380952380953" y="-108.95238095238096" type="line" smooth="yes"/>
      <point x="256.2857142857143" y="-196.66666666666666"/>
      <point x="220.28571428571433" y="-253.38095238095238"/>
      <point x="157.3095238095238" y="-253.38095238095238" type="curve" smooth="yes"/>
      <point x="110.69047619047619" y="-253.38095238095238"/>
      <point x="91.50000000000001" y="-215.11904761904762"/>
      <point x="91.50000000000001" y="-161.5" type="curve" smooth="yes"/>
      <point x="91.50000000000001" y="19.976190476190474"/>
      <point x="187.47619047619045" y="59.0"/>
      <point x="386.04761904761904" y="81.09523809523809" type="curve" smooth="yes"/>
      <point x="628.6190476190475" y="108.19047619047618"/>
      <point x="795.3571428571428" y="181.8095238095238"/>
      <point x="795.3571428571428" y="398.09523809523813" type="curve" smooth="yes"/>
      <point x="795.3571428571428" y="501.8095238095238"/>
      <point x="730.0" y="576.5714285714286"/>
      <point x="626.4285714285713" y="576.5714285714286" type="curve" smooth="yes"/>
      <point x="551.6904761904763" y="576.5714285714286"/>
      <point x="490.7619047619048" y="540.8333333333334"/>
      <point x="450.7619047619048" y="465.11904761904765" type="curve"/>
      <point x="436.0238095238095" y="534.857142857143"/>
      <point x="376.8333333333333" y="576.5714285714286"/>
      <point x="293.73809523809524" y="576.5714285714286" type="curve" smooth="yes"/>
      <point x="149.52380952380952" y="576.5714285714286"/>
      <point x="50.7142857142857" y="444.452380952381"/>
      <point x="50.7142857142857" y="297.35714285714283" type="curve" smooth="yes"/>
      <point x="50.7142857142857" y="217.26190476190476"/>
      <point x="92.73809523809524" y="153.45238095238096"/>
      <point x="163.99999999999997" y="153.45238095238096" type="curve" smooth="yes"/>
      <point x="251.73809523809524" y="153.45238095238096"/>
      <point x="311.2857142857143" y="222.547619047619"/>
      <point x="311.2857142857143" y="311.0" type="curve" smooth="yes"/>
      <point x="311.2857142857143" y="371.0952380952381"/>
      <point x="275.6428571428571" y="410.4523809523809"/>
      <point x="223.83333333333337" y="410.4523809523809" type="curve" smooth="yes"/>
      <point x="162.2619047619048" y="410.4523809523809"/>
      <point x="118.52380952380953" y="364.33333333333337"/>
      <point x="82.07142857142857" y="264.9761904761905" type="curve"/>
      <point x="102.54761904761907" y="243.0" type="line"/>
      <point x="127.45238095238095" y="312.97619047619054"/>
      <point x="155.0" y="339.26190476190476"/>
      <point x="179.35714285714283" y="339.26190476190476" type="curve" smooth="yes"/>
      <point x="199.9047619047619" y="339.26190476190476"/>
      <point x="211.7142857142857" y="324.26190476190476"/>
      <point x="211.7142857142857" y="297.452380952381" type="curve" smooth="yes"/>
      <point x="211.7142857142857" y="259.0238095238095"/>
      <point x="191.9047619047619" y="222.38095238095238"/>
      <point x="156.35714285714283" y="222.38095238095238" type="curve" smooth="yes"/>
      <point x="127.0952380952381" y="222.38095238095238"/>
      <point x="115.0" y="252.83333333333337"/>
      <point x="115.0" y="297.99999999999994" type="curve" smooth="yes"/>
      <point x="115.0" y="403.547619047619"/>
      <point x="174.2857142857143" y="508.09523809523813"/>
      <point x="281.8333333333333" y="508.09523809523813" type="curve" smooth="yes"/>
      <point x="357.61904761904765" y="508.09523809523813"/>
      <point x="395.0238095238095" y="465.95238095238096"/>
      <point x="378.11904761904765" y="385.5238095238096" type="curve" smooth="yes"/>
      <point x="340.73809523809524" y="209.35714285714283" type="line"/>
      <point x="459.85714285714283" y="209.35714285714283" type="line"/>
      <point x="499.952380952381" y="395.547619047619" type="line" smooth="yes"/>
      <point x="514.5" y="464.6428571428572"/>
      <point x="541.8571428571429" y="506.54761904761904"/>
      <point x="590.2142857142857" y="506.54761904761904" type="curve" smooth="yes"/>
      <point x="632.7619047619048" y="506.54761904761904"/>
      <point x="653.6666666666667" y="472.9047619047619"/>
      <point x="653.6666666666667" y="418.38095238095235" type="curve" smooth="yes"/>
      <point x="653.6666666666667" y="206.99999999999997"/>
      <point x="559.8809523809523" y="149.92857142857142"/>
      <point x="330.40476190476187" y="124.28571428571429" type="curve" smooth="yes"/>
      <point x="133.11904761904762" y="102.1904761904762"/>
      <point x="-50.73809523809524" y="43.07142857142856"/>
      <point x="-50.73809523809524" y="-153.85714285714286" type="curve" smooth="yes"/>
      <point x="-50.73809523809524" y="-252.85714285714283"/>
      <point x="11.52380952380953" y="-323.30952380952385"/>
    </contour>
  </outline>
</glyph>
<glyph name="o-tamil" format="2">
  <advance width="874.5000000000001"/>
  <unicode hex="0B92"/>
  <note>
uni0B92
</note>
  <anchor x="377.9761904761904" y="0.0" name="bottom"/>
  <anchor x="304.52380952380946" y="-335.0" name="nukta"/>
  <anchor x="492.0714285714285" y="571.0238095238095" name="top"/>
  <anchor x="492.0714285714286" y="571.0238095238095" name="vedic"/>
  <outline>
    <contour>
      <point x="198.85714285714286" y="-318.2142857142857" type="curve" smooth="yes"/>
      <point x="381.452380952381" y="-318.2142857142857"/>
      <point x="459.54761904761915" y="-130.35714285714283"/>
      <point x="588.1904761904761" y="-130.35714285714283" type="curve" smooth="yes"/>
      <point x="628.5714285714287" y="-130.35714285714283" type="line"/>
      <point x="642.1190476190476" y="-67.07142857142857" type="line"/>
      <point x="580.6428571428571" y="-67.07142857142857" type="line" smooth="yes"/>
      <point x="427.5476190476191" y="-67.07142857142857"/>
      <point x="406.6190476190476" y="61.833333333333336"/>
      <point x="503.7142857142858" y="213.30952380952382" type="curve"/>
      <point x="509.16666666666663" y="210.30952380952382" type="line"/>
      <point x="461.6190476190476" y="88.57142857142856"/>
      <point x="493.64285714285717" y="-3.4523809523809526"/>
      <point x="608.1190476190477" y="-3.4523809523809526" type="curve" smooth="yes"/>
      <point x="731.4761904761905" y="-3.4523809523809526"/>
      <point x="823.5952380952381" y="109.45238095238095"/>
      <point x="823.5952380952381" y="257.9047619047619" type="curve" smooth="yes"/>
      <point x="823.5952380952381" y="463.57142857142856"/>
      <point x="665.1190476190476" y="576.5714285714286"/>
      <point x="454.16666666666663" y="576.5714285714286" type="curve" smooth="yes"/>
      <point x="221.3571428571429" y="576.5714285714286"/>
      <point x="25.642857142857142" y="408.7142857142858"/>
      <point x="25.642857142857142" y="202.69047619047618" type="curve" smooth="yes"/>
      <point x="25.642857142857142" y="90.11904761904763"/>
      <point x="83.73809523809526" y="-5.0"/>
      <point x="189.0476190476191" y="-5.0" type="curve" smooth="yes"/>
      <point x="298.3333333333333" y="-5.0"/>
      <point x="378.4285714285714" y="75.73809523809523"/>
      <point x="378.4285714285714" y="195.21428571428572" type="curve" smooth="yes"/>
      <point x="378.4285714285714" y="278.76190476190476"/>
      <point x="328.2619047619048" y="333.4047619047619"/>
      <point x="252.6904761904762" y="333.4047619047619" type="curve" smooth="yes"/>
      <point x="165.78571428571428" y="333.4047619047619"/>
      <point x="106.76190476190474" y="262.8809523809524"/>
      <point x="63.92857142857144" y="153.92857142857142" type="curve"/>
      <point x="92.92857142857142" y="123.19047619047619" type="line"/>
      <point x="123.76190476190477" y="201.4047619047619"/>
      <point x="149.3095238095238" y="235.0"/>
      <point x="186.83333333333334" y="235.0" type="curve" smooth="yes"/>
      <point x="217.09523809523805" y="235.0"/>
      <point x="232.547619047619" y="206.64285714285714"/>
      <point x="232.547619047619" y="169.0238095238095" type="curve" smooth="yes"/>
      <point x="232.547619047619" y="112.83333333333334"/>
      <point x="204.99999999999997" y="70.66666666666666"/>
      <point x="160.1904761904762" y="70.66666666666666" type="curve" smooth="yes"/>
      <point x="115.47619047619048" y="70.66666666666666"/>
      <point x="93.57142857142857" y="133.66666666666669"/>
      <point x="93.57142857142857" y="207.59523809523807" type="curve" smooth="yes"/>
      <point x="93.57142857142857" y="380.28571428571433"/>
      <point x="265.2142857142857" y="509.64285714285717"/>
      <point x="431.59523809523813" y="509.64285714285717" type="curve" smooth="yes"/>
      <point x="579.5238095238095" y="509.64285714285717"/>
      <point x="679.7142857142857" y="423.73809523809524"/>
      <point x="679.7142857142857" y="266.9047619047619" type="curve" smooth="yes"/>
      <point x="679.7142857142857" y="168.09523809523813"/>
      <point x="642.4285714285714" y="77.85714285714288"/>
      <point x="579.642857142857" y="77.85714285714288" type="curve" smooth="yes"/>
      <point x="518.7380952380953" y="77.85714285714288"/>
      <point x="537.3571428571429" y="183.66666666666666"/>
      <point x="581.2619047619048" y="267.4761904761905" type="curve"/>
      <point x="508.8809523809524" y="302.2142857142857" type="line"/>
      <point x="387.4285714285714" y="145.47619047619048"/>
      <point x="333.0952380952381" y="-27.071428571428573"/>
      <point x="470.80952380952385" y="-92.16666666666666" type="curve"/>
      <point x="469.80952380952385" y="-97.16666666666666" type="line"/>
      <point x="343.7857142857143" y="-124.90476190476191"/>
      <point x="285.3095238095238" y="-244.4761904761905"/>
      <point x="187.21428571428572" y="-244.4761904761905" type="curve" smooth="yes"/>
      <point x="143.02380952380952" y="-244.4761904761905"/>
      <point x="117.57142857142857" y="-215.92857142857142"/>
      <point x="117.57142857142857" y="-182.38095238095238" type="curve" smooth="yes"/>
      <point x="117.57142857142857" y="-143.73809523809524"/>
      <point x="135.92857142857144" y="-120.83333333333334"/>
      <point x="173.11904761904762" y="-89.73809523809524" type="curve"/>
      <point x="139.47619047619045" y="-48.54761904761905" type="line"/>
      <point x="86.73809523809523" y="-91.19047619047619"/>
      <point x="54.380952380952394" y="-129.54761904761907"/>
      <point x="54.380952380952394" y="-194.73809523809524" type="curve" smooth="yes"/>
      <point x="54.380952380952394" y="-261.7380952380952"/>
      <point x="109.28571428571429" y="-318.2142857142857"/>
    </contour>
  </outline>
</glyph>
<glyph name="oo-tamil" format="2">
  <advance width="874.5000000000001"/>
  <unicode hex="0B93"/>
  <note>
uni0B93
</note>
  <anchor x="377.6190476190477" y="0.0" name="bottom"/>
  <anchor x="311.9761904761905" y="-297.66666666666674" name="nukta"/>
  <anchor x="491.71428571428567" y="571.0238095238095" name="top"/>
  <anchor x="491.7142857142858" y="571.0238095238095" name="vedic"/>
  <outline>
    <contour>
      <point x="176.92857142857144" y="-329.3095238095238" type="curve" smooth="yes"/>
      <point x="364.5238095238096" y="-329.3095238095238"/>
      <point x="459.54761904761904" y="-130.35714285714286"/>
      <point x="588.1904761904761" y="-130.35714285714286" type="curve" smooth="yes"/>
      <point x="628.5714285714284" y="-130.35714285714286" type="line"/>
      <point x="642.1190476190476" y="-67.07142857142857" type="line"/>
      <point x="580.6428571428572" y="-67.07142857142857" type="line" smooth="yes"/>
      <point x="427.54761904761904" y="-67.07142857142857"/>
      <point x="406.61904761904765" y="61.833333333333336"/>
      <point x="503.7142857142857" y="213.30952380952382" type="curve"/>
      <point x="509.16666666666663" y="210.30952380952382" type="line"/>
      <point x="461.6190476190476" y="88.57142857142856"/>
      <point x="493.64285714285717" y="-3.4523809523809526"/>
      <point x="608.1190476190477" y="-3.4523809523809526" type="curve" smooth="yes"/>
      <point x="731.4761904761905" y="-3.4523809523809526"/>
      <point x="823.5952380952381" y="109.45238095238095"/>
      <point x="823.5952380952381" y="257.9047619047619" type="curve" smooth="yes"/>
      <point x="823.5952380952381" y="463.57142857142856"/>
      <point x="665.1190476190476" y="576.5714285714286"/>
      <point x="454.16666666666663" y="576.5714285714286" type="curve" smooth="yes"/>
      <point x="221.3571428571429" y="576.5714285714286"/>
      <point x="25.642857142857142" y="408.7142857142858"/>
      <point x="25.642857142857142" y="202.69047619047618" type="curve" smooth="yes"/>
      <point x="25.642857142857142" y="90.11904761904763"/>
      <point x="83.73809523809526" y="-5.0"/>
      <point x="189.0476190476191" y="-5.0" type="curve" smooth="yes"/>
      <point x="298.3333333333333" y="-5.0"/>
      <point x="378.4285714285714" y="75.73809523809523"/>
      <point x="378.4285714285714" y="195.21428571428572" type="curve" smooth="yes"/>
      <point x="378.4285714285714" y="278.76190476190476"/>
      <point x="328.2619047619048" y="333.4047619047619"/>
      <point x="252.6904761904762" y="333.4047619047619" type="curve" smooth="yes"/>
      <point x="165.78571428571428" y="333.4047619047619"/>
      <point x="106.76190476190474" y="262.8809523809524"/>
      <point x="63.92857142857144" y="153.92857142857142" type="curve"/>
      <point x="92.92857142857142" y="123.19047619047619" type="line"/>
      <point x="123.76190476190477" y="201.4047619047619"/>
      <point x="149.3095238095238" y="235.0"/>
      <point x="186.83333333333334" y="235.0" type="curve" smooth="yes"/>
      <point x="217.09523809523805" y="235.0"/>
      <point x="232.547619047619" y="206.64285714285714"/>
      <point x="232.547619047619" y="169.0238095238095" type="curve" smooth="yes"/>
      <point x="232.547619047619" y="112.83333333333334"/>
      <point x="204.99999999999997" y="70.66666666666666"/>
      <point x="160.1904761904762" y="70.66666666666666" type="curve" smooth="yes"/>
      <point x="115.47619047619048" y="70.66666666666666"/>
      <point x="93.57142857142857" y="133.66666666666669"/>
      <point x="93.57142857142857" y="207.59523809523807" type="curve" smooth="yes"/>
      <point x="93.57142857142857" y="380.28571428571433"/>
      <point x="265.2142857142857" y="509.64285714285717"/>
      <point x="431.59523809523813" y="509.64285714285717" type="curve" smooth="yes"/>
      <point x="579.5238095238095" y="509.64285714285717"/>
      <point x="679.7142857142857" y="423.73809523809524"/>
      <point x="679.7142857142857" y="266.9047619047619" type="curve" smooth="yes"/>
      <point x="679.7142857142857" y="168.09523809523813"/>
      <point x="642.4285714285714" y="77.85714285714288"/>
      <point x="579.642857142857" y="77.85714285714288" type="curve" smooth="yes"/>
      <point x="518.7380952380953" y="77.85714285714288"/>
      <point x="537.3571428571429" y="183.66666666666666"/>
      <point x="581.2619047619048" y="267.4761904761905" type="curve"/>
      <point x="508.8809523809524" y="302.2142857142857" type="line"/>
      <point x="387.42857142857144" y="145.47619047619048"/>
      <point x="333.09523809523813" y="-27.07142857142857"/>
      <point x="470.80952380952385" y="-92.16666666666666" type="curve"/>
      <point x="469.80952380952385" y="-97.16666666666666" type="line"/>
      <point x="343.78571428571433" y="-124.9047619047619"/>
      <point x="259.547619047619" y="-255.5714285714286"/>
      <point x="161.45238095238093" y="-255.5714285714286" type="curve" smooth="yes"/>
      <point x="115.0" y="-255.5714285714286"/>
      <point x="91.83333333333333" y="-227.9285714285714"/>
      <point x="91.83333333333333" y="-192.57142857142858" type="curve" smooth="yes"/>
      <point x="91.83333333333333" y="-154.54761904761904"/>
      <point x="116.02380952380952" y="-125.00000000000001"/>
      <point x="152.11904761904765" y="-125.00000000000001" type="curve" smooth="yes"/>
      <point x="185.21428571428572" y="-125.00000000000001"/>
      <point x="205.21428571428572" y="-145.1904761904762"/>
      <point x="209.30952380952382" y="-186.83333333333331" type="curve"/>
      <point x="250.5" y="-175.1904761904762"/>
      <point x="276.0476190476191" y="-147.64285714285717"/>
      <point x="276.0476190476191" y="-111.54761904761904" type="curve" smooth="yes"/>
      <point x="276.0476190476191" y="-73.35714285714286"/>
      <point x="238.95238095238093" y="-47.904761904761905"/>
      <point x="187.95238095238093" y="-47.904761904761905" type="curve" smooth="yes"/>
      <point x="97.02380952380952" y="-47.904761904761905"/>
      <point x="32.54761904761905" y="-117.54761904761908"/>
      <point x="32.54761904761905" y="-200.83333333333334" type="curve" smooth="yes"/>
      <point x="32.54761904761905" y="-273.66666666666663"/>
      <point x="92.54761904761905" y="-329.3095238095238"/>
    </contour>
  </outline>
</glyph>
<glyph name="ja-tamil" format="2">
  <advance width="820.452380952381"/>
  <unicode hex="0B9C"/>
  <note>
uni0B9C
</note>
  <anchor x="346.95238095238096" y="0.0" name="bottom"/>
  <anchor x="276.85714285714283" y="-323.30952380952385" name="nukta"/>
  <anchor x="474.9523809523809" y="571.0238095238095" name="top"/>
  <anchor x="469.5" y="571.0238095238095" name="vedic"/>
  <outline>
    <contour>
      <point x="104.64285714285714" y="-323.30952380952385" type="curve" smooth="yes"/>
      <point x="290.6904761904762" y="-323.30952380952385"/>
      <point x="363.7857142857143" y="-27.19047619047619"/>
      <point x="488.6904761904762" y="-27.19047619047619" type="curve" smooth="yes"/>
      <point x="529.6904761904761" y="-27.19047619047619"/>
      <point x="551.3095238095239" y="-67.02380952380953"/>
      <point x="551.3095238095239" y="-110.1904761904762" type="curve" smooth="yes"/>
      <point x="551.3095238095239" y="-182.64285714285717"/>
      <point x="516.3095238095237" y="-249.19047619047618"/>
      <point x="442.85714285714283" y="-249.19047619047618" type="curve" smooth="yes"/>
      <point x="416.95238095238096" y="-249.19047619047618"/>
      <point x="390.76190476190476" y="-237.0"/>
      <point x="368.2142857142858" y="-222.0" type="curve"/>
      <point x="333.1190476190476" y="-276.38095238095235" type="line"/>
      <point x="367.76190476190476" y="-304.0238095238095"/>
      <point x="416.5" y="-323.30952380952385"/>
      <point x="473.8809523809524" y="-323.30952380952385" type="curve" smooth="yes"/>
      <point x="590.6190476190476" y="-323.30952380952385"/>
      <point x="693.5476190476192" y="-244.83333333333331"/>
      <point x="693.5476190476192" y="-107.45238095238095" type="curve" smooth="yes"/>
      <point x="693.5476190476192" y="-13.166666666666664"/>
      <point x="630.7142857142857" y="47.833333333333336"/>
      <point x="537.0" y="47.83333333333333" type="curve" smooth="yes"/>
      <point x="338.07142857142856" y="47.833333333333336"/>
      <point x="258.40476190476187" y="-245.73809523809524"/>
      <point x="149.04761904761907" y="-245.73809523809524" type="curve" smooth="yes"/>
      <point x="112.69047619047616" y="-245.73809523809524"/>
      <point x="91.59523809523809" y="-208.47619047619045"/>
      <point x="91.59523809523809" y="-158.92857142857142" type="curve" smooth="yes"/>
      <point x="91.59523809523809" y="12.547619047619047"/>
      <point x="191.21428571428567" y="59.904761904761905"/>
      <point x="389.7857142857143" y="82.0" type="curve" smooth="yes"/>
      <point x="632.3571428571428" y="109.0952380952381"/>
      <point x="796.3571428571429" y="181.80952380952385"/>
      <point x="796.3571428571429" y="398.09523809523813" type="curve" smooth="yes"/>
      <point x="796.3571428571429" y="501.8095238095238"/>
      <point x="731.0" y="576.5714285714286"/>
      <point x="627.4285714285714" y="576.5714285714286" type="curve" smooth="yes"/>
      <point x="552.6904761904761" y="576.5714285714286"/>
      <point x="491.76190476190476" y="540.8333333333334"/>
      <point x="451.76190476190476" y="465.11904761904765" type="curve"/>
      <point x="437.0238095238095" y="534.857142857143"/>
      <point x="377.8333333333333" y="576.5714285714286"/>
      <point x="294.73809523809524" y="576.5714285714286" type="curve" smooth="yes"/>
      <point x="150.52380952380952" y="576.5714285714286"/>
      <point x="51.71428571428572" y="444.452380952381"/>
      <point x="51.71428571428572" y="297.35714285714283" type="curve" smooth="yes"/>
      <point x="51.71428571428572" y="217.26190476190476"/>
      <point x="93.73809523809524" y="153.45238095238096"/>
      <point x="165.0" y="153.45238095238096" type="curve" smooth="yes"/>
      <point x="252.7380952380953" y="153.45238095238096"/>
      <point x="312.2857142857143" y="222.547619047619"/>
      <point x="312.2857142857143" y="311.0" type="curve" smooth="yes"/>
      <point x="312.2857142857143" y="371.0952380952381"/>
      <point x="276.64285714285717" y="410.4523809523809"/>
      <point x="224.83333333333334" y="410.4523809523809" type="curve" smooth="yes"/>
      <point x="163.26190476190476" y="410.4523809523809"/>
      <point x="119.52380952380952" y="364.33333333333337"/>
      <point x="83.07142857142857" y="264.9761904761905" type="curve"/>
      <point x="103.54761904761905" y="243.0" type="line"/>
      <point x="128.45238095238093" y="312.97619047619054"/>
      <point x="156.0" y="339.26190476190476"/>
      <point x="180.3571428571429" y="339.26190476190476" type="curve" smooth="yes"/>
      <point x="200.90476190476187" y="339.26190476190476"/>
      <point x="212.71428571428572" y="324.26190476190476"/>
      <point x="212.71428571428572" y="297.452380952381" type="curve" smooth="yes"/>
      <point x="212.71428571428572" y="259.0238095238095"/>
      <point x="192.90476190476195" y="222.38095238095238"/>
      <point x="157.35714285714286" y="222.38095238095238" type="curve" smooth="yes"/>
      <point x="128.09523809523807" y="222.38095238095238"/>
      <point x="116.0" y="252.83333333333337"/>
      <point x="116.0" y="297.99999999999994" type="curve" smooth="yes"/>
      <point x="116.0" y="403.547619047619"/>
      <point x="175.28571428571428" y="508.09523809523813"/>
      <point x="282.8333333333333" y="508.09523809523813" type="curve" smooth="yes"/>
      <point x="358.61904761904765" y="508.09523809523813"/>
      <point x="396.02380952380963" y="465.95238095238096"/>
      <point x="379.1190476190476" y="385.5238095238096" type="curve" smooth="yes"/>
      <point x="341.73809523809524" y="209.35714285714283" type="line"/>
      <point x="460.8571428571429" y="209.35714285714283" type="line"/>
      <point x="500.95238095238096" y="395.547619047619" type="line" smooth="yes"/>
      <point x="515.5000000000001" y="464.6428571428572"/>
      <point x="542.8571428571428" y="506.54761904761904"/>
      <point x="591.2142857142859" y="506.54761904761904" type="curve" smooth="yes"/>
      <point x="633.7619047619048" y="506.54761904761904"/>
      <point x="654.6666666666666" y="472.9047619047619"/>
      <point x="654.6666666666666" y="418.38095238095235" type="curve" smooth="yes"/>
      <point x="654.6666666666666" y="207.00000000000003"/>
      <point x="563.6190476190476" y="150.83333333333334"/>
      <point x="334.14285714285717" y="125.1904761904762" type="curve" smooth="yes"/>
      <point x="136.8571428571429" y="103.09523809523807"/>
      <point x="-50.642857142857146" y="32.92857142857143"/>
      <point x="-50.642857142857146" y="-149.47619047619048" type="curve" smooth="yes"/>
      <point x="-50.642857142857146" y="-243.47619047619048"/>
      <point x="3.2619047619047583" y="-323.30952380952385"/>
    </contour>
  </outline>
</glyph>
<glyph name="tta-tamil" format="2">
  <advance width="747.9047619047619"/>
  <unicode hex="0B9F"/>
  <note>
uni0B9F
</note>
  <anchor x="321.7619047619047" y="0.0" name="bottom"/>
  <anchor x="321.7619047619047" y="0.0" name="nukta"/>
  <anchor x="452.50000000000006" y="571.0238095238095" name="top"/>
  <anchor x="458.50000000000006" y="571.0238095238095" name="vedic"/>
  <outline>
    <contour>
      <point x="-1.8333333333333313" y="0.0" type="line"/>
      <point x="678.0" y="0.0" type="line"/>
      <point x="691.5476190476192" y="64.28571428571429" type="line"/>
      <point x="170.78571428571428" y="64.28571428571429" type="line"/>
      <point x="278.3333333333333" y="571.0238095238095" type="line"/>
      <point x="119.26190476190474" y="571.0238095238095" type="line"/>
    </contour>
  </outline>
</glyph>
<glyph name="nna-tamil" format="2">
  <advance width="1494.5714285714287"/>
  <unicode hex="0BA3"/>
  <note>
uni0BA3
</note>
  <anchor x="714.7142857142857" y="0.0" name="bottom"/>
  <anchor x="1458.8809523809525" y="571.0238095238095" name="imatra"/>
  <anchor x="714.2619047619047" y="0.0" name="nukta"/>
  <anchor x="827.4523809523808" y="571.0238095238095" name="top"/>
  <anchor x="828.1904761904763" y="571.0238095238095" name="vedic"/>
  <outline>
    <contour>
      <point x="555.2619047619048" y="-4.0" type="curve" smooth="yes"/>
      <point x="675.4761904761906" y="-4.0"/>
      <point x="756.3809523809524" y="88.38095238095238"/>
      <point x="756.3809523809524" y="240.1904761904762" type="curve" smooth="yes"/>
      <point x="756.3809523809524" y="440.50000000000006"/>
      <point x="623.5952380952382" y="576.5714285714286"/>
      <point x="403.33333333333337" y="576.5714285714286" type="curve" smooth="yes"/>
      <point x="205.5952380952381" y="576.5714285714286"/>
      <point x="26.095238095238095" y="402.66666666666663"/>
      <point x="26.095238095238095" y="202.69047619047618" type="curve" smooth="yes"/>
      <point x="26.095238095238095" y="90.11904761904762"/>
      <point x="86.1904761904762" y="-5.0"/>
      <point x="191.50000000000003" y="-5.0" type="curve" smooth="yes"/>
      <point x="300.7857142857143" y="-5.0"/>
      <point x="381.97619047619054" y="75.73809523809523"/>
      <point x="381.97619047619054" y="195.21428571428572" type="curve" smooth="yes"/>
      <point x="381.97619047619054" y="278.76190476190476"/>
      <point x="331.6190476190476" y="333.4047619047619"/>
      <point x="256.04761904761904" y="333.4047619047619" type="curve" smooth="yes"/>
      <point x="169.14285714285714" y="333.4047619047619"/>
      <point x="107.21428571428572" y="262.8809523809524"/>
      <point x="64.38095238095237" y="153.92857142857142" type="curve"/>
      <point x="93.38095238095238" y="123.19047619047619" type="line"/>
      <point x="124.21428571428574" y="201.4047619047619"/>
      <point x="151.76190476190473" y="235.0"/>
      <point x="189.28571428571428" y="235.0" type="curve" smooth="yes"/>
      <point x="219.54761904761907" y="235.0"/>
      <point x="236.09523809523805" y="206.64285714285714"/>
      <point x="236.09523809523805" y="169.0238095238095" type="curve" smooth="yes"/>
      <point x="236.09523809523805" y="112.83333333333334"/>
      <point x="207.45238095238096" y="70.66666666666666"/>
      <point x="162.64285714285717" y="70.66666666666666" type="curve" smooth="yes"/>
      <point x="117.92857142857144" y="70.66666666666666"/>
      <point x="94.02380952380952" y="133.66666666666666"/>
      <point x="94.02380952380952" y="207.5952380952381" type="curve" smooth="yes"/>
      <point x="94.02380952380952" y="365.76190476190476"/>
      <point x="224.88095238095244" y="508.09523809523813"/>
      <point x="390.6904761904762" y="508.09523809523813" type="curve" smooth="yes"/>
      <point x="561.7142857142858" y="508.09523809523813"/>
      <point x="616.047619047619" y="390.3571428571429"/>
      <point x="615.1428571428572" y="245.95238095238093" type="curve" smooth="yes"/>
      <point x="614.6904761904763" y="157.8095238095238"/>
      <point x="590.3571428571428" y="72.21428571428571"/>
      <point x="530.4285714285714" y="72.21428571428571" type="curve" smooth="yes"/>
      <point x="503.1666666666667" y="72.21428571428571"/>
      <point x="488.1666666666667" y="101.28571428571428"/>
      <point x="488.1666666666667" y="153.54761904761907" type="curve" smooth="yes"/>
      <point x="488.1666666666667" y="336.5"/>
      <point x="637.2857142857143" y="508.09523809523813"/>
      <point x="806.6190476190476" y="508.09523809523813" type="curve" smooth="yes"/>
      <point x="960.9285714285713" y="508.09523809523813"/>
      <point x="986.357142857143" y="401.64285714285717"/>
      <point x="985.4523809523811" y="258.1428571428571" type="curve" smooth="yes"/>
      <point x="985.0000000000002" y="162.8809523809524"/>
      <point x="959.7619047619047" y="72.21428571428571"/>
      <point x="900.7380952380953" y="72.21428571428571" type="curve" smooth="yes"/>
      <point x="873.4761904761904" y="72.21428571428571"/>
      <point x="858.4761904761905" y="101.38095238095237"/>
      <point x="858.4761904761905" y="153.64285714285714" type="curve" smooth="yes"/>
      <point x="858.4761904761905" y="346.54761904761904"/>
      <point x="1021.5952380952381" y="507.1904761904762"/>
      <point x="1220.3333333333333" y="507.1904761904762" type="curve" smooth="yes"/>
      <point x="1527.3095238095236" y="507.1904761904762" type="line"/>
      <point x="1540.4047619047617" y="571.0238095238095" type="line"/>
      <point x="1226.238095238095" y="571.0238095238095" type="line" smooth="yes"/>
      <point x="990.1428571428571" y="571.0238095238095"/>
      <point x="792.1904761904761" y="377.3809523809524"/>
      <point x="792.1904761904761" y="148.64285714285717" type="curve" smooth="yes"/>
      <point x="792.1904761904761" y="58.00000000000001"/>
      <point x="839.6666666666669" y="-4.0"/>
      <point x="925.5714285714286" y="-4.0" type="curve" smooth="yes"/>
      <point x="1046.6904761904761" y="-4.0"/>
      <point x="1126.6904761904761" y="98.92857142857142"/>
      <point x="1126.6904761904761" y="252.38095238095238" type="curve" smooth="yes"/>
      <point x="1126.6904761904761" y="443.3333333333333"/>
      <point x="1026.095238095238" y="576.5714285714286"/>
      <point x="819.2619047619046" y="576.5714285714286" type="curve" smooth="yes"/>
      <point x="607.8333333333333" y="576.5714285714286"/>
      <point x="421.88095238095235" y="367.33333333333337"/>
      <point x="421.88095238095235" y="148.54761904761904" type="curve" smooth="yes"/>
      <point x="421.88095238095235" y="57.9047619047619"/>
      <point x="469.3571428571429" y="-4.0"/>
    </contour>
    <contour>
      <point x="1163.619047619048" y="0.0" type="line"/>
      <point x="1322.7857142857144" y="0.0" type="line"/>
      <point x="1437.3333333333335" y="539.2857142857142" type="line"/>
      <point x="1278.166666666667" y="539.2857142857142" type="line"/>
    </contour>
  </outline>
</glyph>
<glyph name="ta-tamil" format="2">
  <advance width="732.3809523809525"/>
  <unicode hex="0BA4"/>
  <note>
uni0BA4
</note>
  <anchor x="305.0476190476191" y="0.0" name="bottom"/>
  <anchor x="565.095238095238" y="571.0238095238095" name="imatra"/>
  <anchor x="342.7380952380953" y="-135.35714285714286" name="nukta"/>
  <anchor x="438.14285714285705" y="571.0238095238095" name="top"/>
  <anchor x="429.4047619047618" y="571.0238095238095" name="vedic"/>
  <outline>
    <contour>
      <point x="65.11904761904763" y="-281.4285714285714" type="curve"/>
      <point x="80.40476190476193" y="-185.02380952380952"/>
      <point x="114.42857142857143" y="-128.0952380952381"/>
      <point x="212.99999999999997" y="-128.0952380952381" type="curve" smooth="yes"/>
      <point x="337.5952380952381" y="-128.0952380952381" type="line" smooth="yes"/>
      <point x="524.8571428571428" y="-128.0952380952381"/>
      <point x="670.9285714285714" y="-22.47619047619048"/>
      <point x="670.9285714285714" y="159.47619047619048" type="curve" smooth="yes"/>
      <point x="670.9285714285714" y="276.23809523809524"/>
      <point x="593.6190476190476" y="335.02380952380946"/>
      <point x="481.88095238095246" y="335.02380952380946" type="curve" smooth="yes"/>
      <point x="456.61904761904765" y="335.02380952380946" type="line"/>
      <point x="493.0714285714286" y="506.7380952380953" type="line"/>
      <point x="609.6190476190477" y="506.7380952380953" type="line"/>
      <point x="623.7142857142858" y="571.0238095238095" type="line"/>
      <point x="182.45238095238096" y="571.0238095238095" type="line"/>
      <point x="124.45238095238093" y="298.92857142857144" type="line"/>
      <point x="191.1904761904762" y="298.92857142857144" type="line"/>
      <point x="234.6428571428571" y="506.7380952380953" type="line"/>
      <point x="330.90476190476187" y="506.7380952380953" type="line"/>
      <point x="295.0" y="335.02380952380946" type="line"/>
      <point x="189.64285714285714" y="335.02380952380946" type="line" smooth="yes"/>
      <point x="92.33333333333334" y="335.02380952380946"/>
      <point x="18.095238095238102" y="257.7142857142857"/>
      <point x="18.095238095238102" y="154.0952380952381" type="curve" smooth="yes"/>
      <point x="18.095238095238102" y="70.3809523809524"/>
      <point x="84.11904761904762" y="-4.0"/>
      <point x="199.30952380952382" y="-4.0" type="curve" smooth="yes"/>
      <point x="327.71428571428567" y="-4.0"/>
      <point x="399.16666666666663" y="57.28571428571428"/>
      <point x="425.61904761904765" y="185.83333333333334" type="curve" smooth="yes"/>
      <point x="443.0714285714286" y="270.73809523809524" type="line"/>
      <point x="458.2380952380953" y="270.73809523809524" type="line" smooth="yes"/>
      <point x="495.40476190476187" y="270.73809523809524"/>
      <point x="525.2380952380953" y="240.83333333333337"/>
      <point x="525.2380952380953" y="158.73809523809524" type="curve" smooth="yes"/>
      <point x="525.2380952380953" y="19.523809523809522"/>
      <point x="447.6904761904762" y="-72.35714285714286"/>
      <point x="289.6666666666667" y="-72.35714285714286" type="curve" smooth="yes"/>
      <point x="172.16666666666669" y="-72.35714285714286" type="line" smooth="yes"/>
      <point x="59.76190476190477" y="-72.35714285714286"/>
      <point x="-36.64285714285714" y="-95.83333333333333"/>
      <point x="-36.64285714285714" y="-197.7619047619048" type="curve" smooth="yes"/>
      <point x="-36.64285714285714" y="-248.78571428571428"/>
      <point x="2.1904761904761925" y="-281.4285714285714"/>
    </contour>
    <contour>
      <point x="168.92857142857144" y="71.66666666666667" type="curve" smooth="yes"/>
      <point x="123.1904761904762" y="71.66666666666667"/>
      <point x="86.28571428571429" y="103.76190476190476"/>
      <point x="86.28571428571429" y="161.92857142857144" type="curve" smooth="yes"/>
      <point x="86.28571428571429" y="225.09523809523807"/>
      <point x="122.26190476190473" y="270.73809523809524"/>
      <point x="182.2857142857143" y="270.73809523809524" type="curve" smooth="yes"/>
      <point x="280.90476190476187" y="270.73809523809524" type="line"/>
      <point x="261.45238095238096" y="173.83333333333331" type="line" smooth="yes"/>
      <point x="246.00000000000003" y="96.38095238095238"/>
      <point x="218.38095238095238" y="71.66666666666667"/>
    </contour>
  </outline>
</glyph>
<glyph name="na-tamil" format="2">
  <advance width="693.7380952380951"/>
  <unicode hex="0BA8"/>
  <note>
uni0BA8
</note>
  <anchor x="268.4047619047619" y="0.0" name="bottom"/>
  <anchor x="502.8571428571429" y="571.0238095238095" name="imatra"/>
  <anchor x="265.8571428571429" y="-211.95238095238096" name="nukta"/>
  <anchor x="389.9523809523809" y="571.0238095238095" name="top"/>
  <anchor x="411.2380952380952" y="571.0238095238095" name="vedic"/>
  <outline>
    <contour>
      <point x="61.119047619047635" y="-284.5952380952381" type="curve"/>
      <point x="76.40476190476191" y="-188.19047619047618"/>
      <point x="114.42857142857143" y="-131.26190476190476"/>
      <point x="213.0" y="-131.26190476190476" type="curve" smooth="yes"/>
      <point x="312.4523809523809" y="-131.26190476190476" type="line" smooth="yes"/>
      <point x="491.0238095238096" y="-131.26190476190476"/>
      <point x="632.8333333333333" y="10.547619047619047"/>
      <point x="632.8333333333333" y="200.2619047619048" type="curve" smooth="yes"/>
      <point x="632.8333333333333" y="298.71428571428567"/>
      <point x="587.0238095238095" y="352.73809523809524"/>
      <point x="512.8095238095239" y="352.73809523809524" type="curve" smooth="yes"/>
      <point x="455.1666666666667" y="352.73809523809524"/>
      <point x="427.1666666666667" y="321.54761904761904"/>
      <point x="394.2380952380953" y="284.80952380952385" type="curve"/>
      <point x="440.78571428571433" y="507.1904761904762" type="line"/>
      <point x="551.5476190476189" y="507.1904761904762" type="line"/>
      <point x="565.0952380952381" y="571.0238095238095" type="line"/>
      <point x="121.26190476190477" y="571.0238095238095" type="line"/>
      <point x="0.16666666666666818" y="0.0" type="line"/>
      <point x="67.45238095238095" y="0.0" type="line"/>
      <point x="175.0" y="507.1904761904762" type="line"/>
      <point x="281.71428571428567" y="507.1904761904762" type="line"/>
      <point x="174.16666666666663" y="0.0" type="line"/>
      <point x="333.23809523809524" y="0.0" type="line"/>
      <point x="372.14285714285717" y="182.88095238095238" type="line" smooth="yes"/>
      <point x="382.6904761904762" y="231.61904761904762"/>
      <point x="408.6904761904762" y="252.23809523809527"/>
      <point x="434.047619047619" y="252.23809523809527" type="curve" smooth="yes"/>
      <point x="467.595238095238" y="252.23809523809527"/>
      <point x="483.04761904761904" y="228.14285714285714"/>
      <point x="483.04761904761904" y="183.6904761904762" type="curve" smooth="yes"/>
      <point x="483.04761904761904" y="42.07142857142857"/>
      <point x="413.6904761904762" y="-75.97619047619047"/>
      <point x="272.54761904761904" y="-75.97619047619047" type="curve" smooth="yes"/>
      <point x="172.61904761904762" y="-75.97619047619047" type="line" smooth="yes"/>
      <point x="60.21428571428572" y="-75.97619047619047"/>
      <point x="-40.642857142857146" y="-99.45238095238093"/>
      <point x="-40.642857142857146" y="-201.3809523809524" type="curve" smooth="yes"/>
      <point x="-40.642857142857146" y="-252.40476190476193"/>
      <point x="-1.8095238095238058" y="-284.5952380952381"/>
    </contour>
  </outline>
</glyph>
<glyph name="nnna-tamil" format="2">
  <advance width="1129.238095238095"/>
  <unicode hex="0BA9"/>
  <note>
uni0BA9
</note>
  <anchor x="484.9761904761905" y="0.0" name="bottom"/>
  <anchor x="1054.142857142857" y="571.0238095238095" name="imatra"/>
  <anchor x="486.97619047619037" y="0.0" name="nukta"/>
  <anchor x="650.9999999999999" y="571.0238095238095" name="top"/>
  <anchor x="640.8095238095237" y="571.0238095238095" name="vedic"/>
  <outline>
    <contour>
      <point x="191.50000000000003" y="-5.0" type="curve" smooth="yes"/>
      <point x="300.7857142857143" y="-5.0"/>
      <point x="381.97619047619054" y="75.73809523809523"/>
      <point x="381.97619047619054" y="195.21428571428572" type="curve" smooth="yes"/>
      <point x="381.97619047619054" y="278.76190476190476"/>
      <point x="331.6190476190476" y="333.4047619047619"/>
      <point x="256.04761904761904" y="333.4047619047619" type="curve" smooth="yes"/>
      <point x="169.14285714285714" y="333.4047619047619"/>
      <point x="107.21428571428572" y="262.8809523809524"/>
      <point x="64.38095238095237" y="153.92857142857142" type="curve"/>
      <point x="93.38095238095238" y="123.19047619047619" type="line"/>
      <point x="124.21428571428574" y="201.4047619047619"/>
      <point x="151.76190476190473" y="235.0"/>
      <point x="189.28571428571428" y="235.0" type="curve" smooth="yes"/>
      <point x="219.54761904761907" y="235.0"/>
      <point x="236.09523809523805" y="206.64285714285714"/>
      <point x="236.09523809523805" y="169.0238095238095" type="curve" smooth="yes"/>
      <point x="236.09523809523805" y="112.83333333333334"/>
      <point x="207.45238095238096" y="70.66666666666666"/>
      <point x="162.64285714285717" y="70.66666666666666" type="curve" smooth="yes"/>
      <point x="117.92857142857144" y="70.66666666666666"/>
      <point x="94.02380952380952" y="133.66666666666666"/>
      <point x="94.02380952380952" y="207.5952380952381" type="curve" smooth="yes"/>
      <point x="94.02380952380952" y="365.76190476190476"/>
      <point x="224.88095238095238" y="508.09523809523813"/>
      <point x="390.6904761904762" y="508.09523809523813" type="curve" smooth="yes"/>
      <point x="561.7142857142858" y="508.09523809523813"/>
      <point x="616.047619047619" y="390.3571428571429"/>
      <point x="615.1428571428571" y="245.95238095238093" type="curve" smooth="yes"/>
      <point x="614.6904761904761" y="157.8095238095238"/>
      <point x="590.3571428571429" y="72.21428571428571"/>
      <point x="530.4285714285714" y="72.21428571428571" type="curve" smooth="yes"/>
      <point x="503.1666666666666" y="72.21428571428571"/>
      <point x="488.16666666666663" y="101.38095238095237"/>
      <point x="488.16666666666663" y="153.64285714285714" type="curve" smooth="yes"/>
      <point x="488.16666666666663" y="346.54761904761904"/>
      <point x="651.2857142857143" y="507.1904761904762"/>
      <point x="850.0238095238094" y="507.1904761904762" type="curve" smooth="yes"/>
      <point x="1161.9761904761904" y="507.1904761904762" type="line"/>
      <point x="1175.0714285714284" y="571.0238095238095" type="line"/>
      <point x="855.9285714285713" y="571.0238095238095" type="line" smooth="yes"/>
      <point x="619.8333333333333" y="571.0238095238095"/>
      <point x="421.88095238095246" y="377.3809523809524"/>
      <point x="421.88095238095246" y="148.64285714285717" type="curve" smooth="yes"/>
      <point x="421.88095238095246" y="58.00000000000001"/>
      <point x="469.3571428571429" y="-4.0"/>
      <point x="555.2619047619048" y="-4.0" type="curve" smooth="yes"/>
      <point x="675.4761904761905" y="-4.0"/>
      <point x="756.3809523809524" y="88.3809523809524"/>
      <point x="756.3809523809524" y="240.1904761904762" type="curve" smooth="yes"/>
      <point x="756.3809523809524" y="440.5"/>
      <point x="623.5952380952381" y="576.5714285714286"/>
      <point x="403.3333333333333" y="576.5714285714286" type="curve" smooth="yes"/>
      <point x="205.59523809523807" y="576.5714285714286"/>
      <point x="26.095238095238095" y="402.66666666666663"/>
      <point x="26.095238095238095" y="202.69047619047618" type="curve" smooth="yes"/>
      <point x="26.095238095238095" y="90.11904761904762"/>
      <point x="86.1904761904762" y="-5.0"/>
    </contour>
    <contour>
      <point x="798.2857142857141" y="0.0" type="line"/>
      <point x="957.4523809523808" y="0.0" type="line"/>
      <point x="1071.9999999999998" y="539.2857142857142" type="line"/>
      <point x="912.8333333333334" y="539.2857142857142" type="line"/>
    </contour>
  </outline>
</glyph>
<glyph name="pa-tamil" format="2">
  <advance width="744.8095238095237"/>
  <unicode hex="0BAA"/>
  <note>
uni0BAA
</note>
  <anchor x="315.85714285714283" y="0.0" name="bottom"/>
  <anchor x="738.6428571428572" y="571.0238095238095" name="imatra"/>
  <anchor x="315.85714285714283" y="0.0" name="nukta"/>
  <anchor x="439.59523809523813" y="571.0238095238095" name="top"/>
  <anchor x="432.4047619047619" y="571.0238095238095" name="vedic"/>
  <outline>
    <contour>
      <point x="-1.8333333333333313" y="0.0" type="line"/>
      <point x="625.547619047619" y="0.0" type="line"/>
      <point x="746.6428571428571" y="571.0238095238095" type="line"/>
      <point x="589.6666666666667" y="571.0238095238095" type="line"/>
      <point x="482.11904761904765" y="64.28571428571429" type="line"/>
      <point x="170.78571428571428" y="64.28571428571429" type="line"/>
      <point x="278.3333333333333" y="571.0238095238095" type="line"/>
      <point x="119.26190476190474" y="571.0238095238095" type="line"/>
    </contour>
  </outline>
</glyph>
<glyph name="ya-tamil" format="2">
  <advance width="839.6666666666666"/>
  <unicode hex="0BAF"/>
  <note>
uni0BAF
</note>
  <anchor x="348.5" y="0.0" name="bottom"/>
  <anchor x="840.5" y="571.0238095238095" name="imatra"/>
  <anchor x="345.30952380952385" y="0.0" name="nukta"/>
  <anchor x="487.5952380952382" y="571.0238095238095" name="top"/>
  <anchor x="484.3333333333333" y="571.0238095238095" name="vedic"/>
  <outline>
    <contour>
      <point x="139.0952380952381" y="-10.19047619047619" type="curve" smooth="yes"/>
      <point x="192.19047619047618" y="-10.19047619047619"/>
      <point x="235.47619047619045" y="14.166666666666663"/>
      <point x="269.30952380952385" y="55.00000000000001" type="curve"/>
      <point x="257.76190476190476" y="0.0" type="line"/>
      <point x="720.4047619047619" y="0.0" type="line"/>
      <point x="841.5" y="571.0238095238095" type="line"/>
      <point x="682.4285714285714" y="571.0238095238095" type="line"/>
      <point x="574.3333333333333" y="64.28571428571429" type="line"/>
      <point x="407.547619047619" y="64.28571428571429" type="line"/>
      <point x="515.547619047619" y="571.0238095238095" type="line"/>
      <point x="362.11904761904765" y="571.0238095238095" type="line"/>
      <point x="269.92857142857144" y="134.61904761904762" type="line" smooth="yes"/>
      <point x="260.5714285714286" y="90.64285714285714"/>
      <point x="237.85714285714286" y="73.02380952380953"/>
      <point x="213.04761904761907" y="73.02380952380953" type="curve" smooth="yes"/>
      <point x="184.7857142857143" y="73.02380952380953"/>
      <point x="174.23809523809524" y="97.64285714285715"/>
      <point x="185.69047619047618" y="150.45238095238093" type="curve" smooth="yes"/>
      <point x="274.78571428571433" y="571.0238095238095" type="line"/>
      <point x="117.26190476190474" y="571.0238095238095" type="line"/>
      <point x="31.16666666666667" y="166.1904761904762" type="line" smooth="yes"/>
      <point x="7.523809523809526" y="55.61904761904761"/>
      <point x="59.9047619047619" y="-10.19047619047619"/>
    </contour>
  </outline>
</glyph>
<glyph name="rra-tamil" format="2">
  <advance width="752.1190476190476"/>
  <unicode hex="0BB1"/>
  <note>
uni0BB1
</note>
  <anchor x="314.16666666666663" y="0.0" name="bottom"/>
  <anchor x="353.1666666666667" y="-127.35714285714283" name="nukta"/>
  <anchor x="444.83333333333326" y="571.0238095238096" name="top"/>
  <anchor x="445.8095238095238" y="571.0238095238095" name="vedic"/>
  <outline>
    <contour>
      <point x="58.21428571428572" y="-284.9761904761904" type="curve"/>
      <point x="73.50000000000001" y="-188.57142857142856"/>
      <point x="111.52380952380955" y="-131.64285714285717"/>
      <point x="210.0952380952381" y="-131.64285714285717" type="curve" smooth="yes"/>
      <point x="300.9285714285714" y="-131.64285714285717" type="line" smooth="yes"/>
      <point x="564.3571428571429" y="-131.64285714285717"/>
      <point x="725.2380952380952" y="90.42857142857142"/>
      <point x="725.2380952380952" y="335.1666666666667" type="curve" smooth="yes"/>
      <point x="725.2380952380952" y="496.0238095238096"/>
      <point x="642.7619047619048" y="576.5714285714286"/>
      <point x="531.6428571428571" y="576.5714285714286" type="curve" smooth="yes"/>
      <point x="448.1904761904761" y="576.5714285714286"/>
      <point x="393.8809523809524" y="536.2142857142858"/>
      <point x="358.14285714285717" y="475.8095238095238" type="curve"/>
      <point x="345.78571428571433" y="536.8333333333333"/>
      <point x="303.047619047619" y="576.0238095238095"/>
      <point x="238.7619047619048" y="576.0238095238095" type="curve" smooth="yes"/>
      <point x="164.85714285714286" y="576.0238095238095"/>
      <point x="105.83333333333334" y="528.3095238095237"/>
      <point x="87.1904761904762" y="438.64285714285717" type="curve" smooth="yes"/>
      <point x="-6.357142857142861" y="0.0" type="line"/>
      <point x="60.476190476190474" y="0.0" type="line"/>
      <point x="152.47619047619048" y="431.452380952381" type="line" smooth="yes"/>
      <point x="163.02380952380952" y="479.73809523809524"/>
      <point x="183.47619047619045" y="505.0"/>
      <point x="220.9285714285714" y="505.0" type="curve" smooth="yes"/>
      <point x="265.57142857142856" y="505.0"/>
      <point x="272.8333333333333" y="460.2619047619047"/>
      <point x="262.3809523809524" y="410.5476190476191" type="curve" smooth="yes"/>
      <point x="175.3809523809524" y="0.0" type="line"/>
      <point x="339.5476190476191" y="0.0" type="line"/>
      <point x="426.3571428571429" y="407.952380952381" type="line" smooth="yes"/>
      <point x="440.00000000000006" y="471.7142857142857"/>
      <point x="462.90476190476187" y="505.5476190476191"/>
      <point x="507.00000000000006" y="505.5476190476191" type="curve" smooth="yes"/>
      <point x="552.452380952381" y="505.5476190476191"/>
      <point x="571.1666666666666" y="460.5476190476191"/>
      <point x="571.1666666666666" y="380.83333333333337" type="curve" smooth="yes"/>
      <point x="571.1666666666666" y="151.33333333333331"/>
      <point x="490.59523809523813" y="-75.00000000000001"/>
      <point x="276.64285714285717" y="-75.00000000000001" type="curve" smooth="yes"/>
      <point x="169.71428571428572" y="-75.00000000000001" type="line" smooth="yes"/>
      <point x="57.30952380952381" y="-75.00000000000001"/>
      <point x="-43.54761904761905" y="-99.38095238095238"/>
      <point x="-43.54761904761905" y="-201.3095238095238" type="curve" smooth="yes"/>
      <point x="-43.54761904761905" y="-252.33333333333331"/>
      <point x="-4.7142857142857135" y="-284.9761904761904"/>
    </contour>
  </outline>
</glyph>
<glyph name="la-tamil" format="2">
  <advance width="884.1190476190477"/>
  <unicode hex="0BB2"/>
  <note>
uni0BB2
</note>
  <anchor x="375.23809523809524" y="0.0" name="bottom"/>
  <anchor x="373.59523809523813" y="0.0" name="nukta"/>
  <anchor x="504.9523809523809" y="571.0238095238095" name="top"/>
  <anchor x="499.3333333333334" y="571.0238095238095" name="vedic"/>
  <outline>
    <contour>
      <point x="192.04761904761904" y="-5.0" type="curve" smooth="yes"/>
      <point x="301.33333333333326" y="-5.0"/>
      <point x="382.5238095238096" y="75.73809523809523"/>
      <point x="382.5238095238096" y="195.21428571428572" type="curve" smooth="yes"/>
      <point x="382.5238095238096" y="278.76190476190476"/>
      <point x="331.26190476190476" y="333.4047619047619"/>
      <point x="255.69047619047623" y="333.4047619047619" type="curve" smooth="yes"/>
      <point x="168.78571428571428" y="333.4047619047619"/>
      <point x="107.76190476190474" y="262.8809523809524"/>
      <point x="64.92857142857143" y="153.92857142857142" type="curve"/>
      <point x="93.92857142857142" y="123.19047619047619" type="line"/>
      <point x="124.76190476190476" y="201.4047619047619"/>
      <point x="152.30952380952382" y="235.0"/>
      <point x="189.83333333333334" y="235.0" type="curve" smooth="yes"/>
      <point x="220.09523809523807" y="235.0"/>
      <point x="236.6428571428571" y="206.64285714285714"/>
      <point x="236.6428571428571" y="169.0238095238095" type="curve" smooth="yes"/>
      <point x="236.6428571428571" y="112.83333333333334"/>
      <point x="208.00000000000006" y="70.66666666666666"/>
      <point x="163.19047619047618" y="70.66666666666666" type="curve" smooth="yes"/>
      <point x="118.47619047619047" y="70.66666666666666"/>
      <point x="94.57142857142858" y="133.66666666666666"/>
      <point x="94.57142857142858" y="207.5952380952381" type="curve" smooth="yes"/>
      <point x="94.57142857142858" y="365.76190476190476"/>
      <point x="211.52380952380952" y="504.0"/>
      <point x="349.95238095238096" y="504.0" type="curve" smooth="yes"/>
      <point x="473.7857142857143" y="504.0"/>
      <point x="498.69047619047615" y="414.4523809523809"/>
      <point x="469.04761904761904" y="283.88095238095235" type="curve" smooth="yes"/>
      <point x="444.6904761904762" y="176.9047619047619" type="line" smooth="yes"/>
      <point x="419.6904761904762" y="66.35714285714286"/>
      <point x="460.04761904761915" y="-3.6428571428571432"/>
      <point x="572.5238095238096" y="-3.6428571428571432" type="curve" smooth="yes"/>
      <point x="736.7619047619048" y="-3.6428571428571432"/>
      <point x="855.1190476190476" y="154.3095238095238"/>
      <point x="855.1190476190476" y="371.7380952380952" type="curve" smooth="yes"/>
      <point x="855.1190476190476" y="448.47619047619054"/>
      <point x="840.3809523809524" y="514.4761904761905"/>
      <point x="816.2857142857143" y="576.0238095238095" type="curve"/>
      <point x="749.0952380952381" y="550.2857142857142" type="line"/>
      <point x="770.2857142857143" y="495.1904761904762"/>
      <point x="785.8333333333333" y="430.47619047619054"/>
      <point x="785.8333333333333" y="365.38095238095235" type="curve" smooth="yes"/>
      <point x="785.8333333333333" y="199.38095238095238"/>
      <point x="701.1190476190477" y="77.57142857142857"/>
      <point x="628.3809523809524" y="77.57142857142857" type="curve" smooth="yes"/>
      <point x="591.1190476190477" y="77.57142857142857"/>
      <point x="590.952380952381" y="116.83333333333331"/>
      <point x="602.7619047619047" y="168.16666666666666" type="curve" smooth="yes"/>
      <point x="631.7619047619047" y="294.1666666666667" type="line" smooth="yes"/>
      <point x="672.952380952381" y="471.4761904761905"/>
      <point x="580.3095238095239" y="576.0238095238095"/>
      <point x="393.26190476190476" y="576.0238095238095" type="curve" smooth="yes"/>
      <point x="188.21428571428572" y="576.0238095238095"/>
      <point x="26.642857142857146" y="401.3095238095238"/>
      <point x="26.642857142857146" y="202.69047619047618" type="curve" smooth="yes"/>
      <point x="26.642857142857146" y="90.11904761904762"/>
      <point x="86.73809523809526" y="-5.0"/>
    </contour>
  </outline>
</glyph>
<glyph name="lla-tamil" format="2">
  <advance width="1072.5238095238094"/>
  <unicode hex="0BB3"/>
  <note>
uni0BB3
</note>
  <anchor x="474.35714285714283" y="0.0" name="bottom"/>
  <anchor x="1010.5952380952382" y="571.0238095238095" name="imatra"/>
  <anchor x="476.80952380952385" y="0.0" name="nukta"/>
  <anchor x="615.3333333333333" y="571.0238095238095" name="top"/>
  <anchor x="611.547619047619" y="571.0238095238095" name="vedic"/>
  <outline>
    <contour>
      <point x="193.50000000000003" y="-5.0" type="curve" smooth="yes"/>
      <point x="302.7857142857143" y="-5.0"/>
      <point x="383.97619047619054" y="75.73809523809523"/>
      <point x="383.97619047619054" y="195.21428571428572" type="curve" smooth="yes"/>
      <point x="383.97619047619054" y="278.76190476190476"/>
      <point x="333.6190476190476" y="333.4047619047619"/>
      <point x="258.0476190476191" y="333.4047619047619" type="curve" smooth="yes"/>
      <point x="171.14285714285717" y="333.4047619047619"/>
      <point x="109.21428571428571" y="262.8809523809524"/>
      <point x="66.38095238095237" y="153.92857142857142" type="curve"/>
      <point x="95.3809523809524" y="123.19047619047619" type="line"/>
      <point x="126.21428571428574" y="201.4047619047619"/>
      <point x="153.76190476190476" y="235.0"/>
      <point x="191.28571428571428" y="235.0" type="curve" smooth="yes"/>
      <point x="221.5476190476191" y="235.0"/>
      <point x="238.09523809523805" y="206.64285714285714"/>
      <point x="238.09523809523805" y="169.0238095238095" type="curve" smooth="yes"/>
      <point x="238.09523809523805" y="112.83333333333334"/>
      <point x="209.452380952381" y="70.66666666666666"/>
      <point x="164.64285714285714" y="70.66666666666666" type="curve" smooth="yes"/>
      <point x="119.92857142857144" y="70.66666666666666"/>
      <point x="96.02380952380952" y="133.66666666666666"/>
      <point x="96.02380952380952" y="207.5952380952381" type="curve" smooth="yes"/>
      <point x="96.02380952380952" y="365.76190476190476"/>
      <point x="192.5952380952381" y="501.9047619047619"/>
      <point x="351.4047619047619" y="501.9047619047619" type="curve" smooth="yes"/>
      <point x="471.0238095238094" y="501.9047619047619"/>
      <point x="537.2380952380952" y="434.19047619047615"/>
      <point x="510.7857142857143" y="297.64285714285717" type="curve"/>
      <point x="577.6190476190476" y="310.92857142857144" type="line"/>
      <point x="601.9761904761906" y="477.11904761904765"/>
      <point x="509.69047619047615" y="576.0238095238095"/>
      <point x="357.4047619047619" y="576.0238095238095" type="curve" smooth="yes"/>
      <point x="166.66666666666666" y="576.0238095238095"/>
      <point x="28.095238095238095" y="402.6666666666667"/>
      <point x="28.095238095238095" y="202.69047619047618" type="curve" smooth="yes"/>
      <point x="28.095238095238095" y="90.11904761904762"/>
      <point x="88.1904761904762" y="-5.0"/>
    </contour>
    <contour>
      <point x="447.2380952380952" y="0.0" type="line"/>
      <point x="605.3095238095237" y="0.0" type="line"/>
      <point x="713.3095238095237" y="507.1904761904762" type="line"/>
      <point x="850.1190476190476" y="507.1904761904762" type="line"/>
      <point x="742.1190476190477" y="0.0" type="line"/>
      <point x="900.7380952380952" y="0.0" type="line"/>
      <point x="1008.7380952380952" y="507.1904761904762" type="line"/>
      <point x="1105.2619047619048" y="507.1904761904762" type="line"/>
      <point x="1118.3571428571427" y="571.0238095238095" type="line"/>
      <point x="606.8095238095236" y="571.0238095238095" type="line"/>
      <point x="558.8809523809524" y="344.7619047619047" type="line"/>
      <point x="523.5952380952381" y="359.33333333333337" type="line"/>
    </contour>
  </outline>
</glyph>
<glyph name="llla-tamil" format="2">
  <advance width="740.5238095238095"/>
  <unicode hex="0BB4"/>
  <note>
uni0BB4
</note>
  <anchor x="315.2142857142857" y="0.0" name="bottom"/>
  <anchor x="246.0952380952381" y="-321.04761904761904" name="nukta"/>
  <anchor x="460.1190476190476" y="571.0238095238095" name="top"/>
  <anchor x="436.1190476190476" y="571.0238095238095" name="vedic"/>
  <anchor x="751.6428571428571" y="571.0238095238095" name="imatra"/>
  <outline>
    <contour>
      <point x="146.38095238095238" y="-337.3095238095238" type="curve" smooth="yes"/>
      <point x="327.95238095238096" y="-337.3095238095238"/>
      <point x="393.04761904761904" y="-156.6428571428571"/>
      <point x="540.3571428571429" y="-156.6428571428571" type="curve" smooth="yes"/>
      <point x="553.8809523809525" y="-156.6428571428571" type="line"/>
      <point x="567.5238095238095" y="-92.8095238095238" type="line"/>
      <point x="556.1904761904763" y="-92.8095238095238" type="line" smooth="yes"/>
      <point x="473.7142857142858" y="-92.8095238095238"/>
      <point x="426.0" y="-66.38095238095238"/>
      <point x="442.54761904761904" y="11.904761904761905" type="curve" smooth="yes"/>
      <point x="464.64285714285717" y="116.11904761904762" type="line"/>
      <point x="305.5714285714286" y="116.11904761904762" type="line"/>
      <point x="284.92857142857144" y="16.547619047619047" type="line" smooth="yes"/>
      <point x="269.8333333333333" y="-54.73809523809525"/>
      <point x="339.11904761904765" y="-104.7142857142857"/>
      <point x="421.69047619047615" y="-118.45238095238093" type="curve"/>
      <point x="420.6904761904762" y="-124.45238095238096" type="line"/>
      <point x="267.00000000000006" y="-147.28571428571428"/>
      <point x="224.28571428571428" y="-261.2857142857143"/>
      <point x="122.54761904761907" y="-261.2857142857143" type="curve" smooth="yes"/>
      <point x="80.19047619047618" y="-261.2857142857143"/>
      <point x="50.26190476190476" y="-232.6666666666667"/>
      <point x="50.26190476190476" y="-192.73809523809524" type="curve" smooth="yes"/>
      <point x="50.26190476190476" y="-152.54761904761904"/>
      <point x="76.45238095238095" y="-119.28571428571428"/>
      <point x="124.35714285714286" y="-119.28571428571428" type="curve" smooth="yes"/>
      <point x="153.80952380952382" y="-119.28571428571428"/>
      <point x="180.54761904761904" y="-134.28571428571428"/>
      <point x="201.0952380952381" y="-154.38095238095238" type="curve"/>
      <point x="242.73809523809524" y="-105.1904761904762" type="line"/>
      <point x="212.09523809523805" y="-77.0"/>
      <point x="172.45238095238093" y="-59.0"/>
      <point x="126.35714285714286" y="-59.0" type="curve" smooth="yes"/>
      <point x="46.16666666666667" y="-59.0"/>
      <point x="-14.476190476190482" y="-120.35714285714286"/>
      <point x="-14.476190476190482" y="-200.47619047619045" type="curve" smooth="yes"/>
      <point x="-14.476190476190482" y="-272.8571428571429"/>
      <point x="47.54761904761905" y="-337.3095238095238"/>
    </contour>
    <component base="ma-tamil"/>
  </outline>
</glyph>
<glyph name="va-tamil" format="2">
  <advance width="944.9285714285716"/>
  <unicode hex="0BB5"/>
  <note>
uni0BB5
</note>
  <anchor x="439.6904761904762" y="0.0" name="bottom"/>
  <anchor x="794.952380952381" y="571.0238095238095" name="imatra"/>
  <anchor x="430.9523809523809" y="0.0" name="nukta"/>
  <anchor x="536.1428571428571" y="571.0238095238095" name="top"/>
  <anchor x="540.1666666666667" y="571.0238095238095" name="vedic"/>
  <outline>
    <contour>
      <point x="192.0476190476191" y="-5.0" type="curve" smooth="yes"/>
      <point x="301.3333333333333" y="-5.0"/>
      <point x="382.5238095238095" y="75.73809523809523"/>
      <point x="382.5238095238095" y="195.21428571428572" type="curve" smooth="yes"/>
      <point x="382.5238095238095" y="278.76190476190476"/>
      <point x="331.26190476190476" y="333.4047619047619"/>
      <point x="255.69047619047618" y="333.4047619047619" type="curve" smooth="yes"/>
      <point x="168.78571428571425" y="333.4047619047619"/>
      <point x="107.76190476190477" y="262.8809523809524"/>
      <point x="64.92857142857143" y="153.92857142857142" type="curve"/>
      <point x="93.92857142857144" y="123.19047619047619" type="line"/>
      <point x="124.76190476190476" y="201.4047619047619"/>
      <point x="152.30952380952382" y="235.0"/>
      <point x="189.83333333333334" y="235.0" type="curve" smooth="yes"/>
      <point x="220.09523809523813" y="235.0"/>
      <point x="236.6428571428571" y="206.64285714285714"/>
      <point x="236.6428571428571" y="169.0238095238095" type="curve" smooth="yes"/>
      <point x="236.6428571428571" y="112.83333333333334"/>
      <point x="208.00000000000006" y="70.66666666666666"/>
      <point x="163.19047619047618" y="70.66666666666666" type="curve" smooth="yes"/>
      <point x="118.4761904761905" y="70.66666666666666"/>
      <point x="94.57142857142857" y="133.66666666666666"/>
      <point x="94.57142857142857" y="207.5952380952381" type="curve" smooth="yes"/>
      <point x="94.57142857142857" y="365.76190476190476"/>
      <point x="205.59523809523807" y="504.00000000000006"/>
      <point x="346.2857142857143" y="504.00000000000006" type="curve" smooth="yes"/>
      <point x="441.8333333333333" y="504.00000000000006"/>
      <point x="499.5714285714286" y="444.0238095238095"/>
      <point x="498.6666666666667" y="326.4523809523809" type="curve" smooth="yes"/>
      <point x="497.76190476190476" y="217.85714285714286"/>
      <point x="460.30952380952385" y="129.0952380952381"/>
      <point x="403.3095238095238" y="46.19047619047619" type="curve"/>
      <point x="418.404761904762" y="0.0" type="line"/>
      <point x="825.6666666666667" y="0.0" type="line"/>
      <point x="946.7619047619046" y="571.0238095238095" type="line"/>
      <point x="787.6904761904761" y="571.0238095238095" type="line"/>
      <point x="679.5952380952381" y="64.28571428571429" type="line"/>
      <point x="510.16666666666674" y="64.28571428571429" type="line"/>
      <point x="594.7857142857143" y="135.97619047619048"/>
      <point x="655.6428571428571" y="227.45238095238096"/>
      <point x="655.6428571428571" y="342.90476190476187" type="curve" smooth="yes"/>
      <point x="655.6428571428571" y="501.95238095238096"/>
      <point x="529.595238095238" y="576.5714285714286"/>
      <point x="380.40476190476187" y="576.5714285714286" type="curve" smooth="yes"/>
      <point x="178.57142857142858" y="576.5714285714286"/>
      <point x="26.64285714285714" y="401.3095238095238"/>
      <point x="26.64285714285714" y="202.69047619047618" type="curve" smooth="yes"/>
      <point x="26.64285714285714" y="90.11904761904762"/>
      <point x="86.73809523809523" y="-5.0"/>
    </contour>
  </outline>
</glyph>
<glyph name="ssa-tamil" format="2">
  <advance width="1288.404761904762"/>
  <unicode hex="0BB7"/>
  <note>
uni0BB7
</note>
  <anchor x="588.6428571428571" y="0.0" name="bottom"/>
  <anchor x="460.5" y="0.0" name="nukta"/>
  <anchor x="730.0238095238095" y="571.0238095238095" name="top"/>
  <anchor x="711.5476190476192" y="571.0238095238095" name="vedic"/>
  <outline>
    <contour>
      <point x="192.0476190476191" y="-5.0" type="curve" smooth="yes"/>
      <point x="301.3333333333333" y="-5.0"/>
      <point x="382.5238095238095" y="75.73809523809523"/>
      <point x="382.5238095238095" y="195.21428571428572" type="curve" smooth="yes"/>
      <point x="382.5238095238095" y="278.76190476190476"/>
      <point x="331.26190476190476" y="333.4047619047619"/>
      <point x="255.69047619047618" y="333.4047619047619" type="curve" smooth="yes"/>
      <point x="168.78571428571425" y="333.4047619047619"/>
      <point x="107.76190476190477" y="262.8809523809524"/>
      <point x="64.92857142857143" y="153.92857142857142" type="curve"/>
      <point x="93.92857142857144" y="123.19047619047619" type="line"/>
      <point x="124.76190476190476" y="201.4047619047619"/>
      <point x="152.30952380952382" y="235.0"/>
      <point x="189.83333333333334" y="235.0" type="curve" smooth="yes"/>
      <point x="220.09523809523813" y="235.0"/>
      <point x="236.6428571428571" y="206.64285714285714"/>
      <point x="236.6428571428571" y="169.0238095238095" type="curve" smooth="yes"/>
      <point x="236.6428571428571" y="112.83333333333334"/>
      <point x="208.00000000000006" y="70.66666666666666"/>
      <point x="163.19047619047618" y="70.66666666666666" type="curve" smooth="yes"/>
      <point x="118.4761904761905" y="70.66666666666666"/>
      <point x="94.57142857142857" y="133.66666666666666"/>
      <point x="94.57142857142857" y="207.5952380952381" type="curve" smooth="yes"/>
      <point x="94.57142857142857" y="365.76190476190476"/>
      <point x="205.59523809523807" y="504.00000000000006"/>
      <point x="346.2857142857143" y="504.00000000000006" type="curve" smooth="yes"/>
      <point x="441.83333333333337" y="504.00000000000006"/>
      <point x="499.5714285714286" y="444.0238095238095"/>
      <point x="498.6666666666667" y="326.4523809523809" type="curve" smooth="yes"/>
      <point x="497.76190476190476" y="217.85714285714283"/>
      <point x="460.30952380952385" y="129.0952380952381"/>
      <point x="403.3095238095238" y="46.19047619047619" type="curve"/>
      <point x="418.404761904762" y="0.0" type="line"/>
      <point x="1182.5" y="0.0" type="line"/>
      <point x="1250.6904761904761" y="316.40476190476187" type="line"/>
      <point x="1096.2619047619048" y="266.4047619047619" type="line"/>
      <point x="1052.7142857142858" y="64.28571428571429" type="line"/>
      <point x="510.16666666666674" y="64.28571428571429" type="line"/>
      <point x="594.7857142857143" y="135.97619047619048"/>
      <point x="655.6428571428571" y="227.45238095238093"/>
      <point x="655.6428571428571" y="342.90476190476187" type="curve" smooth="yes"/>
      <point x="655.6428571428571" y="501.95238095238096"/>
      <point x="529.5952380952381" y="576.5714285714286"/>
      <point x="380.40476190476187" y="576.5714285714286" type="curve" smooth="yes"/>
      <point x="178.57142857142856" y="576.5714285714286"/>
      <point x="26.64285714285714" y="401.3095238095238"/>
      <point x="26.64285714285714" y="202.69047619047618" type="curve" smooth="yes"/>
      <point x="26.64285714285714" y="90.11904761904762"/>
      <point x="86.73809523809523" y="-5.0"/>
    </contour>
    <contour>
      <point x="740.8333333333334" y="-270.47619047619054" type="line"/>
      <point x="887.2619047619047" y="-270.47619047619054" type="line"/>
      <point x="1031.2619047619046" y="405.2619047619048" type="line" smooth="yes"/>
      <point x="1052.8095238095236" y="505.45238095238096"/>
      <point x="1017.9761904761906" y="576.5714285714286"/>
      <point x="919.309523809524" y="576.5714285714286" type="curve" smooth="yes"/>
      <point x="804.1190476190476" y="576.5714285714286"/>
      <point x="725.9999999999999" y="483.1190476190476"/>
      <point x="725.9999999999999" y="367.0" type="curve" smooth="yes"/>
      <point x="725.9999999999999" y="273.45238095238096"/>
      <point x="791.9285714285716" y="198.38095238095238"/>
      <point x="908.0476190476193" y="198.38095238095238" type="curve" smooth="yes"/>
      <point x="1031.7142857142856" y="198.38095238095238"/>
      <point x="1122.7380952380952" y="236.02380952380955"/>
      <point x="1249.142857142857" y="309.85714285714283" type="curve"/>
      <point x="1250.142857142857" y="320.85714285714283" type="line"/>
      <point x="1227.595238095238" y="365.3333333333333" type="line"/>
      <point x="1112.1904761904761" y="297.9523809523809"/>
      <point x="1014.547619047619" y="260.66666666666663"/>
      <point x="916.4047619047618" y="260.66666666666663" type="curve" smooth="yes"/>
      <point x="827.6666666666666" y="260.66666666666663"/>
      <point x="789.2857142857143" y="308.8333333333333"/>
      <point x="789.2857142857143" y="378.54761904761904" type="curve" smooth="yes"/>
      <point x="789.2857142857143" y="425.54761904761904"/>
      <point x="816.1904761904763" y="480.42857142857144"/>
      <point x="856.1904761904764" y="480.42857142857144" type="curve" smooth="yes"/>
      <point x="885.6428571428571" y="480.42857142857144"/>
      <point x="894.9285714285714" y="452.5238095238095"/>
      <point x="887.3809523809524" y="416.9761904761905" type="curve" smooth="yes"/>
    </contour>
  </outline>
</glyph>
<glyph name="sa-tamil" format="2">
  <advance width="1164.3333333333333"/>
  <unicode hex="0BB8"/>
  <note>
uni0BB8
</note>
  <anchor x="554.2857142857142" y="0.0" name="bottom"/>
  <anchor x="550.1904761904761" y="0.0" name="nukta"/>
  <anchor x="667.0238095238095" y="571.0238095238095" name="top"/>
  <anchor x="671.3809523809525" y="571.0238095238095" name="vedic"/>
  <outline>
    <contour>
      <point x="424.95238095238096" y="0.0" type="line"/>
      <point x="582.4761904761905" y="0.0" type="line"/>
      <point x="676.0238095238094" y="441.54761904761904" type="line" smooth="yes"/>
      <point x="687.1190476190476" y="494.3809523809524"/>
      <point x="708.4761904761905" y="507.6428571428571"/>
      <point x="740.7380952380952" y="507.6428571428571" type="curve" smooth="yes"/>
      <point x="773.3571428571429" y="507.6428571428571"/>
      <point x="791.5476190476192" y="480.0238095238095"/>
      <point x="782.0" y="435.92857142857144" type="curve" smooth="yes"/>
      <point x="724.9047619047619" y="176.9047619047619" type="line" smooth="yes"/>
      <point x="700.9047619047618" y="66.35714285714283"/>
      <point x="740.2619047619048" y="-3.6428571428571432"/>
      <point x="852.7380952380953" y="-3.6428571428571432" type="curve" smooth="yes"/>
      <point x="1016.9761904761904" y="-3.6428571428571432"/>
      <point x="1135.3333333333335" y="154.3095238095238"/>
      <point x="1135.3333333333335" y="371.73809523809524" type="curve" smooth="yes"/>
      <point x="1135.3333333333335" y="448.4761904761905"/>
      <point x="1120.5952380952383" y="514.4761904761905"/>
      <point x="1096.5" y="576.0238095238095" type="curve"/>
      <point x="1029.3095238095236" y="550.2857142857142" type="line"/>
      <point x="1050.5" y="495.1904761904762"/>
      <point x="1066.047619047619" y="430.4761904761905"/>
      <point x="1066.047619047619" y="365.38095238095235" type="curve" smooth="yes"/>
      <point x="1066.047619047619" y="199.38095238095238"/>
      <point x="981.3333333333333" y="77.57142857142857"/>
      <point x="908.595238095238" y="77.57142857142857" type="curve" smooth="yes"/>
      <point x="871.3333333333333" y="77.57142857142857"/>
      <point x="871.6190476190477" y="116.83333333333333"/>
      <point x="882.9761904761905" y="168.16666666666666" type="curve" smooth="yes"/>
      <point x="931.8809523809525" y="390.07142857142856" type="line" smooth="yes"/>
      <point x="958.5238095238096" y="509.3809523809524"/>
      <point x="877.3095238095237" y="575.0238095238095"/>
      <point x="760.1904761904763" y="575.0238095238095" type="curve" smooth="yes"/>
      <point x="655.7142857142856" y="575.0238095238095"/>
      <point x="570.2380952380952" y="522.1428571428572"/>
      <point x="550.8571428571429" y="433.6190476190476" type="curve" smooth="yes"/>
      <point x="534.8571428571428" y="359.8095238095238" type="line"/>
      <point x="501.4047619047619" y="359.8095238095238" type="line"/>
    </contour>
    <contour>
      <point x="192.5" y="-5.0" type="curve" smooth="yes"/>
      <point x="301.7857142857143" y="-5.0"/>
      <point x="382.97619047619054" y="75.73809523809523"/>
      <point x="382.97619047619054" y="195.21428571428572" type="curve" smooth="yes"/>
      <point x="382.97619047619054" y="278.76190476190476"/>
      <point x="331.7142857142857" y="333.4047619047619"/>
      <point x="256.1428571428572" y="333.4047619047619" type="curve" smooth="yes"/>
      <point x="169.23809523809527" y="333.4047619047619"/>
      <point x="108.21428571428572" y="262.8809523809524"/>
      <point x="65.38095238095238" y="153.92857142857142" type="curve"/>
      <point x="94.38095238095237" y="123.19047619047619" type="line"/>
      <point x="125.21428571428571" y="201.4047619047619"/>
      <point x="152.76190476190476" y="235.0"/>
      <point x="190.2857142857143" y="235.0" type="curve" smooth="yes"/>
      <point x="220.54761904761904" y="235.0"/>
      <point x="237.0952380952381" y="206.64285714285714"/>
      <point x="237.0952380952381" y="169.0238095238095" type="curve" smooth="yes"/>
      <point x="237.0952380952381" y="112.83333333333334"/>
      <point x="208.45238095238093" y="70.66666666666666"/>
      <point x="163.64285714285717" y="70.66666666666666" type="curve" smooth="yes"/>
      <point x="118.92857142857142" y="70.66666666666666"/>
      <point x="95.02380952380953" y="133.66666666666666"/>
      <point x="95.02380952380953" y="207.5952380952381" type="curve" smooth="yes"/>
      <point x="95.02380952380953" y="365.76190476190476"/>
      <point x="213.78571428571428" y="503.5476190476191"/>
      <point x="352.2142857142857" y="503.5476190476191" type="curve" smooth="yes"/>
      <point x="473.97619047619054" y="503.5476190476191"/>
      <point x="516.4047619047619" y="433.6904761904762"/>
      <point x="489.76190476190476" y="304.23809523809524" type="curve"/>
      <point x="558.142857142857" y="317.5238095238095" type="line"/>
      <point x="587.8809523809524" y="493.71428571428567"/>
      <point x="496.80952380952374" y="576.0238095238095"/>
      <point x="371.30952380952385" y="576.0238095238095" type="curve" smooth="yes"/>
      <point x="181.1428571428571" y="576.0238095238095"/>
      <point x="27.09523809523809" y="395.83333333333337"/>
      <point x="27.09523809523809" y="202.69047619047618" type="curve" smooth="yes"/>
      <point x="27.09523809523809" y="90.11904761904762"/>
      <point x="87.19047619047618" y="-5.0"/>
    </contour>
  </outline>
</glyph>
<glyph name="aaMatra-tamil" format="2">
  <advance width="526.1190476190476"/>
  <unicode hex="0BBE"/>
  <note>
uni0BBE
</note>
  <anchor x="214.47619047619045" y="0.0" name="bottom"/>
  <anchor x="213.47619047619045" y="0.0" name="nukta"/>
  <anchor x="328.57142857142856" y="571.0238095238095" name="top"/>
  <anchor x="328.57142857142856" y="571.0238095238095" name="vedic"/>
  <outline>
    <contour>
      <point x="-1.8333333333333313" y="0.0" type="line"/>
      <point x="66.45238095238096" y="0.0" type="line"/>
      <point x="174.0" y="507.1904761904762" type="line"/>
      <point x="302.7142857142857" y="507.1904761904762" type="line"/>
      <point x="195.16666666666669" y="0.0" type="line"/>
      <point x="354.2380952380953" y="0.0" type="line"/>
      <point x="461.7857142857142" y="507.1904761904762" type="line"/>
      <point x="558.8571428571429" y="507.1904761904762" type="line"/>
      <point x="572.4047619047619" y="571.0238095238095" type="line"/>
      <point x="119.26190476190474" y="571.0238095238095" type="line"/>
    </contour>
  </outline>
</glyph>
<glyph name="iMatra-tamil" format="2">
  <advance width="183.40476190476193"/>
  <unicode hex="0BBF"/>
  <note>
uni0BBF
</note>
  <anchor x="-11.547619047619037" y="839.2142857142858" name="top"/>
  <outline>
    <contour>
      <point x="-13.642857142857142" y="0.0" type="line"/>
      <point x="54.64285714285714" y="0.0" type="line"/>
      <point x="176.64285714285717" y="572.8095238095239" type="line" smooth="yes"/>
      <point x="210.73809523809524" y="733.7380952380952"/>
      <point x="109.3095238095238" y="839.2142857142858"/>
      <point x="-54.26190476190476" y="839.2142857142858" type="curve" smooth="yes"/>
      <point x="-192.11904761904762" y="839.2142857142858"/>
      <point x="-288.6904761904762" y="755.309523809524"/>
      <point x="-288.6904761904762" y="644.3095238095236" type="curve" smooth="yes"/>
      <point x="-288.6904761904762" y="578.1428571428571"/>
      <point x="-240.2380952380953" y="519.5952380952382"/>
      <point x="-149.02380952380955" y="519.5952380952382" type="curve" smooth="yes"/>
      <point x="-147.11904761904765" y="519.5952380952382" type="line"/>
      <point x="-134.57142857142858" y="571.0238095238095" type="line"/>
      <point x="-136.0238095238095" y="571.0238095238095" type="line" smooth="yes"/>
      <point x="-175.47619047619048" y="571.0238095238095"/>
      <point x="-203.1190476190476" y="585.6190476190476"/>
      <point x="-203.1190476190476" y="621.7142857142858" type="curve" smooth="yes"/>
      <point x="-203.1190476190476" y="670.7857142857143"/>
      <point x="-149.38095238095238" y="709.9761904761905"/>
      <point x="-67.26190476190474" y="709.9761904761905" type="curve" smooth="yes"/>
      <point x="44.28571428571429" y="709.9761904761905"/>
      <point x="123.71428571428572" y="648.2619047619048"/>
      <point x="99.71428571428572" y="534.0714285714287" type="curve" smooth="yes"/>
    </contour>
  </outline>
</glyph>
<glyph name="iiMatra-tamil" format="2">
  <unicode hex="0BC0"/>
  <note>
uni0BC0
</note>
  <anchor x="62.64285714285714" y="571.0238095238095" name="_imatra"/>
  <anchor x="104.90476190476191" y="918.5952380952381" name="top"/>
  <outline>
    <contour>
      <point x="32.547619047619044" y="508.09523809523813" type="curve" smooth="yes"/>
      <point x="48.452380952380956" y="508.09523809523813" type="line"/>
      <point x="62.095238095238095" y="571.0238095238095" type="line"/>
      <point x="46.99999999999999" y="571.0238095238095" type="line" smooth="yes"/>
      <point x="-13.83333333333333" y="571.0238095238095"/>
      <point x="-48.28571428571429" y="613.952380952381"/>
      <point x="-48.28571428571429" y="684.8571428571428" type="curve" smooth="yes"/>
      <point x="-48.28571428571429" y="773.7619047619047"/>
      <point x="1.7857142857142838" y="851.2142857142857"/>
      <point x="89.07142857142858" y="851.2142857142857" type="curve" smooth="yes"/>
      <point x="137.8095238095238" y="851.2142857142857"/>
      <point x="160.7142857142857" y="823.4047619047619"/>
      <point x="160.7142857142857" y="776.8571428571429" type="curve" smooth="yes"/>
      <point x="160.7142857142857" y="733.2380952380953"/>
      <point x="141.35714285714286" y="693.1428571428571"/>
      <point x="101.35714285714285" y="693.1428571428571" type="curve" smooth="yes"/>
      <point x="44.54761904761905" y="693.1428571428571"/>
      <point x="57.90476190476191" y="800.952380952381"/>
      <point x="105.71428571428571" y="873.6666666666666" type="curve"/>
      <point x="61.71428571428572" y="878.2142857142857" type="line"/>
      <point x="-22.38095238095238" y="757.6666666666667"/>
      <point x="-8.73809523809524" y="609.7380952380953"/>
      <point x="123.28571428571429" y="609.7380952380953" type="curve" smooth="yes"/>
      <point x="205.73809523809524" y="609.7380952380953"/>
      <point x="279.2142857142857" y="673.7380952380953"/>
      <point x="279.2142857142857" y="768.7619047619048" type="curve" smooth="yes"/>
      <point x="279.2142857142857" y="863.6666666666667"/>
      <point x="206.66666666666663" y="918.5952380952381"/>
      <point x="104.90476190476191" y="918.5952380952381" type="curve" smooth="yes"/>
      <point x="-16.642857142857146" y="918.5952380952381"/>
      <point x="-114.02380952380953" y="813.5238095238095"/>
      <point x="-114.02380952380953" y="679.2142857142857" type="curve" smooth="yes"/>
      <point x="-114.02380952380953" y="577.2142857142858"/>
      <point x="-58.02380952380953" y="508.09523809523813"/>
    </contour>
  </outline>
</glyph>
<glyph name="uuMatra-tamil" format="2">
  <advance width="736.4285714285714"/>
  <unicode hex="0BC2"/>
  <note>
uni0BC2
</note>
  <anchor x="422.90476190476187" y="789.7380952380952" name="top"/>
  <outline>
    <contour>
      <point x="277.0238095238095" y="6.738095238095239" type="curve" smooth="yes"/>
      <point x="507.57142857142856" y="6.738095238095239"/>
      <point x="713.4285714285714" y="203.5"/>
      <point x="713.4285714285714" y="482.9761904761905" type="curve" smooth="yes"/>
      <point x="713.4285714285714" y="677.452380952381"/>
      <point x="589.1190476190477" y="789.7380952380953"/>
      <point x="422.90476190476187" y="789.7380952380953" type="curve" smooth="yes"/>
      <point x="237.88095238095235" y="789.7380952380953"/>
      <point x="149.50000000000003" y="661.2857142857143"/>
      <point x="125.04761904761905" y="542.6428571428571" type="curve" smooth="yes"/>
      <point x="97.78571428571429" y="412.4047619047619" type="line" smooth="yes"/>
      <point x="72.78571428571429" y="291.5714285714286"/>
      <point x="131.33333333333334" y="226.38095238095238"/>
      <point x="232.2619047619048" y="226.38095238095238" type="curve" smooth="yes"/>
      <point x="322.00000000000006" y="226.38095238095238"/>
      <point x="396.4761904761904" y="266.3809523809524"/>
      <point x="420.0238095238096" y="376.66666666666663" type="curve" smooth="yes"/>
      <point x="461.47619047619054" y="571.0238095238095" type="line"/>
      <point x="-186.23809523809527" y="571.0238095238095" type="line"/>
      <point x="-149.95238095238096" y="507.1904761904762" type="line"/>
      <point x="287.85714285714283" y="507.1904761904762" type="line"/>
      <point x="258.95238095238096" y="374.76190476190476" type="line" smooth="yes"/>
      <point x="248.40476190476187" y="326.76190476190476"/>
      <point x="228.76190476190476" y="308.14285714285717"/>
      <point x="196.69047619047618" y="308.14285714285717" type="curve" smooth="yes"/>
      <point x="158.88095238095235" y="308.14285714285717"/>
      <point x="148.52380952380952" y="346.04761904761904"/>
      <point x="161.4285714285714" y="407.2142857142858" type="curve" smooth="yes"/>
      <point x="190.33333333333334" y="542.6428571428572" type="line" smooth="yes"/>
      <point x="208.88095238095238" y="631.2857142857143"/>
      <point x="264.07142857142856" y="714.6190476190476"/>
      <point x="378.33333333333326" y="714.6190476190476" type="curve" smooth="yes"/>
      <point x="483.14285714285717" y="714.6190476190476"/>
      <point x="545.0714285714287" y="641.0952380952381"/>
      <point x="545.0714285714287" y="512.3571428571429" type="curve" smooth="yes"/>
      <point x="545.0714285714287" y="297.8095238095238"/>
      <point x="439.5238095238095" y="81.85714285714286"/>
      <point x="255.9047619047619" y="81.85714285714286" type="curve" smooth="yes"/>
      <point x="168.09523809523807" y="81.85714285714286"/>
      <point x="116.73809523809526" y="117.21428571428571"/>
      <point x="70.83333333333333" y="183.0952380952381" type="curve"/>
      <point x="10.547619047619051" y="132.61904761904762" type="line"/>
      <point x="62.190476190476176" y="59.73809523809524"/>
      <point x="137.1904761904762" y="6.738095238095239"/>
    </contour>
  </outline>
</glyph>
<glyph name="eMatra-tamil" format="2">
  <advance width="683.3571428571429"/>
  <unicode hex="0BC6"/>
  <note>
uni0BC6
</note>
  <outline>
    <contour>
      <point x="230.66666666666669" y="-5.0" type="curve" smooth="yes"/>
      <point x="339.952380952381" y="-5.0"/>
      <point x="423.3333333333333" y="75.73809523809524"/>
      <point x="423.3333333333333" y="195.21428571428572" type="curve" smooth="yes"/>
      <point x="423.3333333333333" y="278.76190476190476"/>
      <point x="372.9761904761905" y="333.4047619047619"/>
      <point x="297.4047619047619" y="333.4047619047619" type="curve" smooth="yes"/>
      <point x="210.5" y="333.4047619047619"/>
      <point x="148.57142857142856" y="262.8809523809524"/>
      <point x="105.73809523809523" y="153.92857142857144" type="curve"/>
      <point x="134.73809523809524" y="123.19047619047619" type="line"/>
      <point x="165.57142857142856" y="201.40476190476193"/>
      <point x="193.1190476190476" y="235.00000000000003"/>
      <point x="230.64285714285717" y="235.00000000000003" type="curve" smooth="yes"/>
      <point x="260.9047619047619" y="235.00000000000003"/>
      <point x="277.45238095238096" y="206.64285714285714"/>
      <point x="277.45238095238096" y="169.02380952380952" type="curve" smooth="yes"/>
      <point x="277.45238095238096" y="112.83333333333334"/>
      <point x="248.80952380952377" y="70.66666666666666"/>
      <point x="204.0" y="70.66666666666666" type="curve" smooth="yes"/>
      <point x="147.09523809523807" y="70.66666666666666"/>
      <point x="119.38095238095238" y="146.02380952380955"/>
      <point x="119.38095238095238" y="266.11904761904765" type="curve" smooth="yes"/>
      <point x="119.38095238095238" y="475.3333333333333"/>
      <point x="235.2142857142857" y="703.8809523809524"/>
      <point x="440.3809523809523" y="703.8809523809524" type="curve" smooth="yes"/>
      <point x="571.452380952381" y="703.8809523809524"/>
      <point x="619.4047619047619" y="623.7380952380952"/>
      <point x="591.9523809523808" y="493.38095238095235" type="curve" smooth="yes"/>
      <point x="488.4047619047619" y="0.0" type="line"/>
      <point x="555.1428571428571" y="0.0" type="line"/>
      <point x="666.8809523809525" y="528.952380952381" type="line" smooth="yes"/>
      <point x="704.0714285714286" y="704.2619047619048"/>
      <point x="638.0" y="839.2142857142858"/>
      <point x="464.1190476190476" y="839.2142857142858" type="curve" smooth="yes"/>
      <point x="203.38095238095235" y="839.2142857142858"/>
      <point x="52.45238095238095" y="522.9047619047618"/>
      <point x="52.45238095238095" y="259.7380952380953" type="curve" smooth="yes"/>
      <point x="52.45238095238095" y="100.99999999999999"/>
      <point x="119.73809523809521" y="-5.0"/>
    </contour>
  </outline>
</glyph>
